<svg width="91" height="91" fill="none" xmlns="http://www.w3.org/2000/svg"><path fill-rule="evenodd" clip-rule="evenodd" d="M46.153 74.613c15.914 0 28.815-12.9 28.815-28.814S62.067 16.985 46.153 16.985c-15.913 0-28.814 12.9-28.814 28.814s12.9 28.814 28.814 28.814zm0 2.77c17.444 0 31.585-14.14 31.585-31.584s-14.14-31.585-31.585-31.585c-17.444 0-31.585 14.141-31.585 31.585 0 17.444 14.141 31.585 31.585 31.585z" fill="#27AE61"/><path fill-rule="evenodd" clip-rule="evenodd" d="M66.362 23.788l1.001.594c3.954 2.348 6.319 6.518 7.697 10.567 1.385 4.07 1.847 8.227 1.847 10.85v1.385h-7.12l-1.663 1.94h-6.211l-8.338-8.616-12.686-.59v-5.839l4.863-4.168L51.744 31l2.962-3.232 8.007.276 3.649-4.257zm.546 3.62L63.95 30.86l-8.063-.278L52.753 34l-6.199-1.127-2.894 2.48v1.92l11.141.518 8.286 8.562h3.763l1.662-1.94h5.582c-.134-2.337-.608-5.49-1.657-8.571-1.146-3.367-2.921-6.481-5.529-8.435z" fill="#27AE61"/><path fill-rule="evenodd" clip-rule="evenodd" d="M43.61 44.968h9.802l6.871 7.496V63.85l-5.821 5.498H49.2v-11l-3.006-2.576h-7.522v-8.337l4.937-2.468zm.654 2.77l-2.82 1.41v3.854h5.776l4.752 4.073v9.504h1.388l4.153-3.922V53.54l-5.32-5.803h-7.93zM33.769 17.695c3.878-1.568 7.74-2.096 10.168-2.096h1.727l-1.677 7.546-7.014 1.461-3.148 4.198-6.593 4.512-4.329-6.297.443-.758c2.53-4.337 6.54-6.996 10.423-8.566zm-7.571 9.226l1.75 2.547 3.935-2.692 3.502-4.669 6.285-1.31.52-2.338a26.94 26.94 0 00-7.383 1.805c-3.275 1.324-6.47 3.432-8.61 6.657z" fill="#27AE61"/><g filter="url(#filter0_dd)"><mask id="a" fill="#fff"><path fill-rule="evenodd" clip-rule="evenodd" d="M35.449 40.174c-.982.894-4.32 4.1-9.63 9.632-3.237 3.372-7.178 8.67-9.888 13.785-1.355 2.558-2.37 5.01-2.852 7.111-.493 2.15-.368 3.664.184 4.584.672 1.12 1.508 1.767 2.44 2.12.959.365 2.103.45 3.401.29 2.628-.323 5.564-1.6 8.127-2.928l1.274 2.46c-2.609 1.352-5.915 2.831-9.063 3.218-1.59.195-3.217.122-4.722-.45-1.531-.58-2.85-1.647-3.833-3.285-1.11-1.85-1.054-4.25-.509-6.628.557-2.428 1.69-5.119 3.105-7.79 2.832-5.344 6.925-10.851 10.338-14.406 5.329-5.55 8.715-8.809 9.764-9.763l1.864 2.05z"/><path fill-rule="evenodd" clip-rule="evenodd" d="M33.131 40.258h-7.48v-2.771H35.9v10.805h-2.77v-8.034zm38.429-26.88c-2.838.549-5.997 2.102-8.044 3.393l-1.478-2.344c2.201-1.387 5.691-3.13 8.996-3.769 1.65-.319 3.386-.389 4.927.115 1.61.527 2.916 1.656 3.624 3.498.709 1.842.524 4.104-.035 6.357-.569 2.295-1.583 4.801-2.783 7.263-2.401 4.928-5.637 9.863-7.889 12.913l-2.228-1.646c2.18-2.954 5.318-7.744 7.626-12.48 1.156-2.371 2.08-4.683 2.585-6.717.515-2.076.538-3.656.138-4.696-.4-1.04-1.057-1.583-1.9-1.858-.912-.3-2.12-.303-3.54-.029z"/></mask><path d="M25.82 49.806l3.606 3.463-3.607-3.463zm9.629-9.632l3.363 3.7 3.7-3.363-3.363-3.7-3.7 3.363zM15.931 63.591l4.418 2.34-4.418-2.34zm-2.852 7.111l4.873 1.118-4.873-1.118zm.184 4.584l-4.287 2.573 4.287-2.573zm2.44 2.12l1.776-4.674-1.775 4.675zm3.401.29l-.609-4.963.61 4.963zm8.127-2.928l4.44-2.299-2.3-4.44-4.44 2.3 2.3 4.44zm1.274 2.46l2.299 4.44 4.44-2.299-2.3-4.44-4.44 2.3zm-9.063 3.218l-.61-4.963.61 4.963zm-4.722-.45l1.775-4.673-1.775 4.674zm-3.833-3.285L6.6 79.284l4.287-2.573zm-.509-6.628l-4.873-1.118 4.873 1.118zm3.105-7.79l-4.418-2.34 4.418 2.34zm10.338-14.406l-3.607-3.462 3.607 3.462zm9.764-9.763l3.7-3.363-3.363-3.7-3.7 3.364 3.363 3.7zm-7.934 2.134h-5v5h5v-5zm7.48 0h5v-5h-5v5zm-7.48-2.771v-5h-5v5h5zm10.25 0h5v-5h-5v5zm0 10.805v5h5v-5h-5zm-2.77 0h-5v5h5v-5zm30.385-31.521l-4.23 2.666 2.666 4.23 4.23-2.666-2.666-4.23zm8.043-3.393l.949 4.91-.949-4.91zm-9.52 1.05l-2.667-4.23-4.23 2.666 2.666 4.23 4.23-2.667zm8.995-3.77l.948 4.91-.948-4.91zm4.927.115l-1.555 4.752 1.555-4.752zm3.624 3.498l4.667-1.795-4.667 1.795zm-.035 6.357l-4.853-1.204 4.853 1.204zm-2.783 7.263l-4.495-2.19 4.495 2.19zm-7.889 12.913l-2.97 4.022 4.022 2.97 2.97-4.022-4.022-2.97zm-2.228-1.646l-4.023-2.97-2.97 4.022 4.022 2.97 2.97-4.022zm7.626-12.48l4.495 2.19-4.495-2.19zm2.585-6.717l4.853 1.203-4.853-1.203zM77 15.265l-4.666 1.795L77 15.265zm-1.9-1.858l1.556-4.752-1.556 4.752zM29.426 53.269c5.277-5.497 8.525-8.612 9.386-9.395l-6.726-7.4c-1.104 1.004-4.53 4.303-9.873 9.87l7.213 6.925zM20.35 65.93c2.49-4.698 6.157-9.62 9.077-12.662l-7.213-6.926c-3.554 3.702-7.77 9.377-10.7 14.907l8.836 4.681zm-2.397 5.89c.347-1.513 1.15-3.534 2.397-5.89l-8.836-4.681c-1.463 2.761-2.69 5.644-3.307 8.334l9.746 2.236zm-.402.892c.258.429.232.68.223.489-.01-.183.005-.623.18-1.382l-9.747-2.236c-.589 2.565-.79 5.677.77 8.275l8.574-5.146zm-.071.02a.537.537 0 01.134.081c.02.017.025.024.016.014a.936.936 0 01-.079-.115l-8.574 5.146c1.232 2.053 2.94 3.458 4.952 4.222l3.55-9.349zm1.016 0c-.773.095-1.044-.011-1.016 0l-3.55 9.348c1.944.738 3.96.802 5.785.578l-1.219-9.926zm6.436-2.405c-2.482 1.286-4.748 2.198-6.436 2.405l1.219 9.926c3.568-.438 7.172-2.082 9.816-3.45l-4.599-8.88zm8.014 4.601l-1.274-2.46-8.88 4.599 1.274 2.46 8.88-4.599zM20.05 85.41c4.087-.502 8.061-2.346 10.753-3.74l-4.598-8.88c-2.526 1.308-5.164 2.423-7.373 2.694l1.218 9.926zm-7.106-.738c2.492.946 4.992.997 7.106.738l-1.218-9.926c-1.065.13-1.82.036-2.338-.16l-3.55 9.348zM6.6 79.284c1.543 2.57 3.732 4.395 6.345 5.387l3.55-9.349c-.45-.17-.898-.48-1.32-1.184L6.6 79.284zm-1.095-10.32c-.64 2.788-1.024 6.789 1.095 10.32l8.575-5.146c-.036-.059-.143-.273-.17-.794-.026-.534.042-1.25.247-2.143l-9.747-2.236zm3.56-9.011c-1.523 2.874-2.868 5.995-3.56 9.011l9.747 2.237c.422-1.839 1.342-4.099 2.65-6.567l-8.837-4.681zm11.149-15.529c-3.729 3.885-8.097 9.768-11.15 15.529l8.837 4.681c2.612-4.929 6.43-10.06 9.527-13.284l-7.214-6.925zm10.008-10c-1.17 1.065-4.646 4.415-10.008 10l7.214 6.926c5.295-5.516 8.592-8.682 9.52-9.526l-6.726-7.4zm8.927 2.387l-1.864-2.05-7.4 6.727 1.864 2.05 7.4-6.727zM25.65 45.258h7.48v-10h-7.48v10zm-5-7.771v2.77h10v-2.77h-10zm12.48 15.805h2.77v-10h-2.77v10zm-5-13.034v8.034h10v-8.034h-10zm7.77-7.771H25.65v10H35.9v-10zm5 15.805V37.487h-10v10.805h10zm25.281-27.291c1.77-1.116 4.332-2.328 6.326-2.713L70.61 8.469c-3.68.711-7.437 2.607-9.762 4.072l5.333 8.46zm-8.373-3.907l1.477 2.343 8.46-5.333-1.478-2.343-8.46 5.333zM70.085 5.749c-4.147.801-8.234 2.886-10.713 4.449l5.333 8.459c1.923-1.212 4.816-2.614 7.277-3.09L70.085 5.75zm7.431.272c-2.674-.875-5.364-.672-7.43-.272l1.896 9.818c1.235-.238 2.017-.175 2.424-.042l3.11-9.504zm6.736 6.455c-1.264-3.288-3.74-5.474-6.736-6.455l-3.11 9.504a.722.722 0 01.284.15c.033.03.127.127.228.39l9.334-3.59zm.151 9.355c.638-2.572 1.114-6.066-.151-9.355l-9.334 3.59c.152.394.259 1.425-.22 3.358l9.705 2.407zm-3.141 8.25c1.28-2.627 2.455-5.483 3.141-8.25l-9.706-2.407c-.452 1.825-1.306 3.98-2.425 6.277l8.99 4.38zM72.9 43.774c2.38-3.222 5.792-8.42 8.362-13.693l-8.99-4.38c-2.233 4.583-5.291 9.255-7.416 12.132l8.044 5.94zm-9.22-.594l2.228 1.646 5.94-8.045-2.228-1.646-5.94 8.045zm6.102-18.693c-2.141 4.393-5.1 8.92-7.155 11.7l8.045 5.94c2.308-3.125 5.623-8.178 8.1-13.26l-8.99-4.38zm2.226-5.73c-.387 1.563-1.152 3.525-2.226 5.73l8.99 4.38c1.235-2.535 2.32-5.197 2.942-7.703l-9.706-2.406zm.325-1.697c-.106-.274-.049-.318-.058.036-.009.332-.072.877-.267 1.662l9.706 2.406c.594-2.394.91-5.205-.048-7.694l-9.333 3.59zm1.211 1.099c-.15-.05-.45-.181-.751-.465a1.862 1.862 0 01-.46-.634l9.333-3.59c-.955-2.484-2.781-4.086-5.011-4.815l-3.11 9.504zm-1.036.129c.456-.089.778-.112.978-.11.206 0 .203.028.058-.02l3.11-9.503c-2.046-.67-4.207-.54-6.043-.186l1.897 9.819z" fill="#FFAEC7" mask="url(#a)"/></g><defs><filter id="filter0_dd" x="0" y=".407" width="90.046" height="90.137" filterUnits="userSpaceOnUse" color-interpolation-filters="sRGB"><feFlood flood-opacity="0" result="BackgroundImageFix"/><feColorMatrix in="SourceAlpha" values="0 0 0 0 0 0 0 0 0 0 0 0 0 0 0 0 0 0 127 0"/><feOffset/><feGaussianBlur stdDeviation="5"/><feColorMatrix values="0 0 0 0 1 0 0 0 0 0.409831 0 0 0 0 0.5927 0 0 0 1 0"/><feBlend in2="BackgroundImageFix" result="effect1_dropShadow"/><feColorMatrix in="SourceAlpha" values="0 0 0 0 0 0 0 0 0 0 0 0 0 0 0 0 0 0 127 0"/><feOffset dy="4"/><feGaussianBlur stdDeviation="2"/><feColorMatrix values="0 0 0 0 0 0 0 0 0 0 0 0 0 0 0 0 0 0 0.25 0"/><feBlend in2="effect1_dropShadow" result="effect2_dropShadow"/><feBlend in="SourceGraphic" in2="effect2_dropShadow" result="shape"/></filter></defs></svg>