<svg width="86" height="91" fill="none" xmlns="http://www.w3.org/2000/svg"><path fill-rule="evenodd" clip-rule="evenodd" d="M29.15 48.447l8.873 13.013h6.37l17.19 27.898-2.343 1.444-16.383-26.59h-6.288L28.93 53.01l-6.314 7.577-4.861-1.62-15.1 21.986-2.268-1.558L16.66 55.7l5.046 1.681 7.445-8.934z" fill="#27AE61"/><path fill-rule="evenodd" clip-rule="evenodd" d="M36.195 70.376l7.108 9.95 6.56-5.857 1.834 2.052-8.85 7.902-6.652-9.313-6.754 9.457-7.862-8.705-6.83 7.102-8.146-8.147 1.945-1.946 6.163 6.163 6.93-7.208 7.55 8.357 7.004-9.807z" fill="#27AE61"/><g filter="url(#filter0_dd)"><mask id="a" fill="#fff"><path fill-rule="evenodd" clip-rule="evenodd" d="M30.417 10v40.728h-2.752V10h2.752z"/><path fill-rule="evenodd" clip-rule="evenodd" d="M44.451 22.659h7.706v-7.706H27.94v15.961h16.51V22.66zM41.7 28.163v-8.256h7.706v-2.202H30.692v10.458h11.007z"/><path fill-rule="evenodd" clip-rule="evenodd" d="M62.614 28.988l7.705-9.081H42.25v17.612h28.07l-7.705-8.53zm1.511 5.78l-5.168-5.723 5.418-6.386H45.002v12.108h19.123z"/></mask><path d="M30.417 50.728v5h5v-5h-5zm0-40.728h5V5h-5v5zm-2.752 40.728h-5v5h5v-5zm0-40.728V5h-5v5h5zM44.45 22.659v-5h-5v5h5zm7.706 0v5h5v-5h-5zm0-7.706h5v-5h-5v5zm-24.217 0v-5h-5v5h5zm0 15.961h-5v5h5v-5zm16.511 0v5h5v-5h-5zm-2.75-2.752v5h5v-5h-5zm0-8.255v-5h-5v5h5zm7.706 0v5h5v-5h-5zm0-2.202h5v-5h-5v5zm-18.713 0v-5h-5v5h5zm0 10.458h-5v5h5v-5zm31.922.825L58.8 25.753l-2.832 3.338 2.934 3.248 3.71-3.35zm7.705-9.081l3.813 3.235 6.987-8.235h-10.8v5zm-28.07 0v-5h-5v5h5zm0 17.612h-5v5h5v-5zm28.07 0v5h11.254l-7.543-8.352-3.71 3.352zm-6.194-2.752v5H75.38l-7.543-8.351-3.71 3.351zm-5.168-5.722l-3.813-3.235-2.832 3.338 2.934 3.248 3.71-3.351zm5.418-6.386l3.813 3.235 6.987-8.235h-10.8v5zm-19.373 0v-5h-5v5h5zm0 12.108h-5v5h5v-5zm-9.585 15.961V10h-10v40.728h10zm-7.752 5h2.752v-10h-2.752v10zm-5-45.728v40.728h10V10h-10zm7.752-5h-2.752v10h2.752V5zm13.988 12.705v2.202h10v-2.202h-10zm-13.713 5h18.713v-10H30.692v10zm5 5.458V17.705h-10v10.458h10zm6.007-5H30.692v10h11.007v-10zm-2.248-.504v8.255h10V22.66h-10zm12.706-5H44.45v10h7.706v-10zm-5-2.706v7.706h10v-7.706h-10zm-19.217 5h24.217v-10H27.94v10zm5 10.961v-15.96h-10v15.96h10zm11.511-5H27.94v10h16.51v-10zM36.7 19.907v8.256h10v-8.256h-10zm12.706-5H41.7v10h7.706v-10zm-4.403 12.752h19.373v-10H45.002v10zm5 7.108V22.66h-10v12.108h10zm14.123-5H45.002v10h19.123v-10zm2.382-13.095L58.8 25.753l7.625 6.47 7.706-9.081-7.625-6.47zM42.25 24.907h28.07v-10H42.25v10zm5 12.612V19.907h-10v17.612h10zm23.07-5H42.25v10h28.07v-10zm-11.417-.18l7.706 8.531 7.42-6.703-7.705-8.53-7.42 6.703zm-3.657.057l5.169 5.722 7.42-6.702-5.168-5.723-7.42 6.703zm5.317-12.972l-5.419 6.386 7.625 6.47 5.419-6.386-7.625-6.47z" fill="#FFAEC7" mask="url(#a)"/></g><path fill-rule="evenodd" clip-rule="evenodd" d="M60.099 53.7l7.514 5.807 4.681 12.223 4.052-.76 9.324 10.78-2.082 1.8-8.289-9.584-4.754.892-5.225-13.645-4.594-3.55-6.883 10.077-2.272-1.551L60.099 53.7z" fill="#27AE61"/><defs><filter id="filter0_dd" x="17.665" y="0" width="62.654" height="60.728" filterUnits="userSpaceOnUse" color-interpolation-filters="sRGB"><feFlood flood-opacity="0" result="BackgroundImageFix"/><feColorMatrix in="SourceAlpha" values="0 0 0 0 0 0 0 0 0 0 0 0 0 0 0 0 0 0 127 0"/><feOffset/><feGaussianBlur stdDeviation="5"/><feColorMatrix values="0 0 0 0 1 0 0 0 0 0.409831 0 0 0 0 0.5927 0 0 0 1 0"/><feBlend in2="BackgroundImageFix" result="effect1_dropShadow"/><feColorMatrix in="SourceAlpha" values="0 0 0 0 0 0 0 0 0 0 0 0 0 0 0 0 0 0 127 0"/><feOffset dy="4"/><feGaussianBlur stdDeviation="2"/><feColorMatrix values="0 0 0 0 0 0 0 0 0 0 0 0 0 0 0 0 0 0 0.25 0"/><feBlend in2="effect1_dropShadow" result="effect2_dropShadow"/><feBlend in="SourceGraphic" in2="effect2_dropShadow" result="shape"/></filter></defs></svg>