<svg width="93" height="65" fill="none" xmlns="http://www.w3.org/2000/svg"><g filter="url(#filter0_dd)"><mask id="a" fill="#fff"><path fill-rule="evenodd" clip-rule="evenodd" d="M44.867 18.495c1.137 1.377 1.698 2.636 1.698 2.636s.578-1.25 1.726-2.62c1.294-1.545 3.312-3.24 6.039-3.466 4-.331 6.612 1.97 8.774 5.352 3.611 5.647-.286 11.248-4.3 16.615-4.474 5.982-12.24 12.278-12.24 12.278s-7.555-6.506-12.239-12.278c-4.683-5.772-7.919-10.973-4.3-16.615 2.204-3.438 4.923-5.784 8.984-5.352 2.663.283 4.609 1.938 5.858 3.45zm1.741 27.117c-.694-.629-1.55-1.417-2.494-2.312-2.446-2.321-5.403-5.293-7.63-8.039-2.34-2.883-4.029-5.294-4.795-7.513-.696-2.013-.626-3.823.675-5.851 1.986-3.098 3.853-4.354 6.351-4.089 1.56.166 2.857 1.116 3.874 2.297a10.87 10.87 0 011.38 2.044c.028.053.046.09.055.11l.007.013 2.484 5.584 2.567-5.548.007-.014.059-.116a11.247 11.247 0 011.452-2.09c1.063-1.203 2.394-2.144 3.959-2.274 2.468-.204 4.256 1.033 6.204 4.08 1.23 1.922 1.244 3.784.443 5.953-.863 2.339-2.585 4.77-4.628 7.5-2.086 2.79-5.002 5.726-7.463 8.011-.943.876-1.806 1.644-2.507 2.254zm-2.576-23.337z"/></mask><path d="M44.867 18.495l3.855-3.184-3.855 3.184zm1.698 2.636l-4.569 2.033 4.48 10.066 4.626-10-4.537-2.099zm1.726-2.62l3.832 3.21-3.832-3.21zm6.039-3.466l-.413-4.983.413 4.983zm8.774 5.352l4.213-2.694-4.213 2.694zm-4.3 16.615l-4.005-2.994 4.005 2.994zM46.563 49.29l-3.262 3.79 3.166 2.726 3.245-2.632-3.148-3.884zM34.326 37.012l3.883-3.15-3.883 3.15zm-4.3-16.615l4.209 2.699-4.21-2.7zm8.984-5.352l.529-4.972-.53 4.972zm7.599 30.567l-3.356 3.706 3.29 2.98 3.348-2.914-3.282-3.772zM44.114 43.3l-3.442 3.627 3.442-3.627zm-7.63-8.039l3.882-3.15-3.883 3.15zm-4.795-7.513l-4.726 1.633 4.726-1.633zm.675-5.851l-4.21-2.7 4.21 2.7zm6.351-4.089l.529-4.972-.529 4.972zm3.874 2.297l-3.787 3.264 3.788-3.264zm1.115 1.56l4.31-2.535-4.31 2.536zm.266.484l-4.46 2.26 4.46-2.26zm.054.11l4.528-2.122-.005-.01-.004-.01-4.519 2.142zm.007.013l4.568-2.033-.02-.045-.021-.044-4.527 2.122zm2.484 5.584l-4.568 2.033 4.48 10.066 4.626-10-4.538-2.099zm2.567-5.548l-4.497-2.186-.021.044-.02.043 4.538 2.1zm.007-.014l-4.487-2.207-.005.01-.005.01 4.497 2.187zm.059-.116l4.427 2.324-4.427-2.324zm.282-.497l4.275 2.593-4.275-2.593zm1.17-1.593l-3.747-3.311 3.746 3.311zm3.959-2.274l.412 4.983-.412-4.983zm6.204 4.08l-4.212 2.693 4.212-2.693zm.443 5.953l4.691 1.731-4.69-1.731zm-4.628 7.5l4.004 2.995-4.004-2.994zm-7.463 8.011l3.403 3.664-3.403-3.664zm-5.083-21.083l4.537-2.1-9.077 4.195 4.54-2.095zm-3.02-.596a8.698 8.698 0 01.982 1.483l.024.049-.005-.01-.007-.015-.004-.01-.003-.006a.039.039 0 01-.002-.004c0-.001 0-.002 4.568-2.035 4.568-2.033 4.567-2.034 4.567-2.034v-.002l-.002-.003a.383.383 0 00-.01-.022l-.017-.037a9.393 9.393 0 00-.178-.37 18.714 18.714 0 00-2.203-3.353l-7.71 6.37zm5.553-.548a1539.623 1539.623 0 014.536 2.102l-.001.003-.003.006a.587.587 0 00-.004.01l-.007.013-.004.01c0-.003.01-.02.026-.052a9.123 9.123 0 011.015-1.501l-7.664-6.423a19.1 19.1 0 00-1.758 2.478 16.716 16.716 0 00-.645 1.191 2.586 2.586 0 00-.016.036l-.007.015-.004.007-.001.003v.001c-.001.001-.001.002 4.537 2.101zm5.558.59c.91-1.084 1.81-1.626 2.62-1.693l-.826-9.966c-4.645.384-7.779 3.233-9.458 5.237l7.664 6.423zm2.62-1.693c.844-.07 1.372.113 1.874.45.623.419 1.376 1.206 2.275 2.612l8.425-5.387c-2.548-3.984-6.643-8.2-13.4-7.641l.825 9.966zm4.149 3.062c.768 1.202.851 2.305.23 3.988-.733 1.988-2.252 4.17-4.323 6.94l8.009 5.989c1.943-2.599 4.38-5.901 5.696-9.467 1.429-3.871 1.655-8.392-1.187-12.837l-8.425 5.387zm-4.093 10.928c-1.966 2.629-4.766 5.457-7.195 7.712a102.536 102.536 0 01-3.894 3.434l-.23.19-.053.044a1.015 1.015 0 01-.013.01c.001-.001.002-.001 3.15 3.882l3.15 3.884.001-.001.003-.002.007-.006.022-.018.078-.064.279-.23a112.574 112.574 0 004.305-3.794c2.572-2.389 5.891-5.7 8.399-9.052l-8.009-5.99zM46.565 49.29l3.263-3.788-.003-.002-.012-.01-.056-.049-.23-.2a144.336 144.336 0 01-3.884-3.551c-2.424-2.301-5.298-5.195-7.435-7.828l-7.765 6.3c2.547 3.14 5.792 6.385 8.317 8.78a154.307 154.307 0 004.174 3.817 67.99 67.99 0 00.338.295l.02.017.006.005.003.002 3.264-3.788zm-8.357-15.428c-2.338-2.882-3.794-5.026-4.42-6.839-.498-1.442-.449-2.533.446-3.927l-8.418-5.398c-2.724 4.247-2.866 8.578-1.48 12.59 1.258 3.641 3.761 6.984 6.107 9.875l7.765-6.301zm-3.974-10.766c.91-1.42 1.689-2.224 2.334-2.649.524-.344 1.065-.52 1.912-.43l1.058-9.944c-6.874-.731-11.125 3.574-13.722 7.625l8.418 5.398zm4.246-3.08c.813.087 1.679.63 2.532 1.663l7.71-6.368c-1.646-1.993-4.67-4.758-9.184-5.238l-1.058 9.944zm11.485 21.89a142.52 142.52 0 01-2.409-2.233l-6.884 7.254c.976.926 1.861 1.74 2.58 2.39l6.712-7.41zm-2.409-2.233c-2.396-2.273-5.168-5.07-7.19-7.562l-7.765 6.3c2.433 3 5.575 6.147 8.071 8.516l6.884-7.254zm-7.19-7.562c-2.34-2.883-3.501-4.692-3.951-5.995l-9.452 3.265c1.083 3.135 3.298 6.147 5.638 9.03l7.765-6.3zm-3.951-5.995c-.179-.516-.167-.736-.16-.804.004-.048.025-.26.318-.716l-8.418-5.398c-1.008 1.571-1.672 3.28-1.854 5.146-.18 1.848.144 3.54.662 5.037l9.452-3.265zm.158-1.52c.817-1.274 1.322-1.697 1.5-1.813.06-.039.053-.024.002-.012-.047.01-.027-.006.111.01l1.058-9.945c-2.334-.248-4.584.238-6.622 1.564-1.876 1.22-3.298 2.974-4.467 4.798l8.418 5.398zm1.613-1.816c-.095-.01-.1-.04.011.03.127.08.338.249.605.559l7.575-6.528c-1.447-1.68-3.81-3.651-7.133-4.005l-1.058 9.944zm.616.589c.252.293.457.6.593.832l8.619-5.071a15.862 15.862 0 00-1.637-2.289l-7.575 6.528zm.593.832c.064.11.103.184.115.209l8.92-4.523a14.248 14.248 0 00-.416-.757l-8.62 5.071zm.115.209c.006.012.005.01-.004-.01l9.037-4.282a9.833 9.833 0 00-.114-.23L39.51 24.41zm-.013-.028l.006.013 9.055-4.245-.006-.013-9.055 4.245zm-.035-.077l2.485 5.584 9.136-4.066L48.6 20.24l-9.137 4.066zm11.591 5.65l2.567-5.547-9.076-4.199-2.566 5.548 9.075 4.198zm2.526-5.46l.007-.015-8.994-4.372-.007.014 8.993 4.373zm-.003.005c-.008.016-.008.016 0 .002l-8.856-4.647a9.33 9.33 0 00-.118.232l8.974 4.413zm0 .002c.015-.03.059-.111.13-.228l-8.55-5.186c-.19.312-.335.575-.436.767l8.855 4.647zm.13-.228c.148-.246.37-.569.64-.874l-7.493-6.623a16.244 16.244 0 00-1.698 2.311l8.55 5.186zm.64-.874c.286-.325.51-.498.642-.578.115-.07.1-.034-.017-.025l-.824-9.966c-3.373.28-5.802 2.258-7.294 3.946l7.492 6.623zm.625-.603c.146-.012.17.005.124-.006-.051-.013-.062-.029-.008.007.168.112.655.525 1.464 1.79l8.425-5.388c-1.14-1.782-2.521-3.511-4.35-4.728-1.994-1.326-4.192-1.83-6.48-1.64l.825 9.965zm1.58 1.79c.199.312.2.44.203.483.006.093.002.395-.239 1.046l9.382 3.462c.56-1.518.949-3.232.84-5.092-.112-1.912-.731-3.675-1.761-5.286l-8.425 5.387zm-.036 1.529c-.57 1.547-1.83 3.415-3.941 6.237l8.008 5.99c1.974-2.64 4.16-5.635 5.315-8.765l-9.382-3.462zm-3.941 6.237c-1.816 2.428-4.471 5.122-6.86 7.341l6.804 7.328c2.532-2.351 5.707-5.528 8.064-8.68l-8.008-5.989zm-6.86 7.341a99.826 99.826 0 01-2.388 2.146l6.564 7.544a110.25 110.25 0 002.628-2.362l-6.805-7.328zM39.491 24.37a.86.86 0 00.005.01l.001.004.003.005.005.011.009.02.013.026a4.54 4.54 0 00.052.105c.027.053.173.311.302.512 5.946 1.878 8.995-4.025 8.835-4.534a9.601 9.601 0 00-.085-.213l-.023-.053-.017-.038-.007-.015-.008-.02a.157.157 0 00-.003-.005l-.003-.007v-.002l-.002-.002-9.075 4.201v-.002l-.002-.002-.002-.006-.003-.006-.009-.02a1.115 1.115 0 01-.024-.052l-.023-.054-.085-.213c-.159-.509 2.89-6.412 8.836-4.534.128.201.274.46.301.512a6.651 6.651 0 01.053.106l.013.026.008.02.006.011.002.005a.17.17 0 00.007.013l-9.08 4.191z" fill="#FFAEC7" mask="url(#a)"/></g><path fill-rule="evenodd" clip-rule="evenodd" d="M83.01 3.256c.031.065.065.14.1.225.286.702.542 1.813.646 3.178.208 2.742-.223 6.121-1.799 8.747l2.55 1.53c1.99-3.32 2.45-7.372 2.213-10.502-.12-1.57-.42-3.004-.858-4.077-.215-.526-.5-1.058-.887-1.471-.38-.406-1.069-.9-1.988-.747l-.11.018-.106.035C76.797 2.14 73.789 6.13 72.54 10.32c-1.224 4.105-.754 8.347.052 11.033l2.847-.854c-.68-2.27-1.072-5.905-.05-9.33.948-3.183 3.12-6.233 7.62-7.914zm-3.984 22.307c-2.03 2.856-2.676 6.37-2.631 8.712l-2.972.057c-.054-2.812.696-6.996 3.18-10.491 2.544-3.58 6.825-6.312 13.494-6.184l.336.006.3.15c.417.21.668.536.806.756.15.239.256.495.334.73.157.473.259 1.038.316 1.633.116 1.202.071 2.73-.21 4.338-.555 3.166-2.1 7.016-5.605 9.119l-1.529-2.55c2.44-1.464 3.72-4.302 4.206-7.081.238-1.365.268-2.624.18-3.54a6.604 6.604 0 00-.082-.587c-5.158.132-8.258 2.308-10.123 4.932zm-2.962 14.979c-2.81 1.61-4.112 4.278-4.447 6.203l-2.929-.51c.458-2.632 2.187-6.146 5.898-8.272 3.748-2.148 9.23-2.719 16.871-.007l1.08.383-.095 1.14c-.103 1.233-.668 2.473-1.348 3.565-.696 1.118-1.593 2.212-2.517 3.175a22.52 22.52 0 01-2.796 2.485c-.444.327-.882.615-1.291.838-.384.209-.844.418-1.311.495l-.489-2.932c-.004 0-.003 0 .003-.001.026-.009.146-.048.376-.173.258-.14.58-.348.948-.62a19.562 19.562 0 002.415-2.15c.823-.857 1.579-1.789 2.138-2.687.259-.416.46-.8.607-1.147-6.369-1.998-10.513-1.275-13.113.215zM60.218 57.183c4.926 3.913 9.095 4.466 12.513 3.62 3.182-.79 5.94-2.845 8.205-5.123-5.931-3.68-10.601-4.025-14.01-3.11-3.136.843-5.395 2.801-6.708 4.613zm5.937-7.483c4.71-1.265 10.753-.459 17.92 4.485l1.39.957-1.126 1.257c-2.593 2.899-6.259 6.14-10.894 7.289-4.755 1.178-10.217.082-16.157-5.077l-.909-.789.583-1.053c1.448-2.618 4.543-5.82 9.193-7.07zM9.527 3.256a3.92 3.92 0 00-.1.225c-.287.702-.543 1.813-.646 3.178-.209 2.742.223 6.121 1.798 8.747l-2.548 1.53c-1.992-3.32-2.452-7.372-2.214-10.502.119-1.57.42-3.004.858-4.077.215-.526.5-1.058.887-1.471.38-.406 1.068-.9 1.987-.747l.11.018.107.035c5.973 1.948 8.981 5.938 10.23 10.129 1.224 4.105.753 8.347-.052 11.033l-2.848-.854c.681-2.27 1.072-5.905.052-9.33-.949-3.183-3.121-6.233-7.621-7.914zm3.983 22.307c2.03 2.856 2.677 6.37 2.632 8.712l2.972.057c.054-2.812-.696-6.996-3.18-10.491-2.544-3.58-6.825-6.312-13.495-6.184l-.335.006-.3.15a2.042 2.042 0 00-.807.756 3.39 3.39 0 00-.333.73c-.157.473-.259 1.038-.316 1.633-.116 1.202-.071 2.73.21 4.338.554 3.166 2.1 7.016 5.604 9.119l1.53-2.55c-2.44-1.464-3.72-4.302-4.206-7.081-.239-1.365-.268-2.624-.18-3.54.022-.229.05-.424.081-.587 5.159.132 8.26 2.308 10.124 4.932zm2.963 14.979c2.81 1.61 4.112 4.278 4.447 6.203l2.928-.51c-.457-2.632-2.186-6.146-5.897-8.272-3.748-2.148-9.23-2.719-16.872-.007L0 38.339l.095 1.14c.103 1.233.668 2.473 1.348 3.565.695 1.118 1.592 2.212 2.516 3.175a22.52 22.52 0 002.797 2.485c.443.327.881.615 1.29.838.385.209.845.418 1.312.495l.489-2.932-.004-.001a2.251 2.251 0 01-.375-.173 8.567 8.567 0 01-.949-.62 19.568 19.568 0 01-2.415-2.15c-.822-.857-1.578-1.789-2.137-2.687a8.39 8.39 0 01-.607-1.147c6.369-1.998 10.512-1.275 13.113.215zm15.846 16.641c-4.926 3.913-9.095 4.466-12.513 3.62-3.182-.79-5.941-2.845-8.205-5.123 5.93-3.68 10.6-4.025 14.01-3.11 3.135.843 5.394 2.801 6.707 4.613zM26.38 49.7c-4.71-1.265-10.752-.459-17.92 4.485l-1.388.957L8.197 56.4c2.594 2.899 6.26 6.14 10.894 7.289 4.755 1.178 10.218.082 16.158-5.077l.908-.789-.582-1.053c-1.449-2.618-4.544-5.82-9.194-7.07z" fill="#27AE61"/><defs><filter id="filter0_dd" x="18.473" y="4.994" width="56.061" height="54.297" filterUnits="userSpaceOnUse" color-interpolation-filters="sRGB"><feFlood flood-opacity="0" result="BackgroundImageFix"/><feColorMatrix in="SourceAlpha" values="0 0 0 0 0 0 0 0 0 0 0 0 0 0 0 0 0 0 127 0"/><feOffset/><feGaussianBlur stdDeviation="5"/><feColorMatrix values="0 0 0 0 1 0 0 0 0 0.409831 0 0 0 0 0.5927 0 0 0 1 0"/><feBlend in2="BackgroundImageFix" result="effect1_dropShadow"/><feColorMatrix in="SourceAlpha" values="0 0 0 0 0 0 0 0 0 0 0 0 0 0 0 0 0 0 127 0"/><feOffset dy="4"/><feGaussianBlur stdDeviation="2"/><feColorMatrix values="0 0 0 0 0 0 0 0 0 0 0 0 0 0 0 0 0 0 0.25 0"/><feBlend in2="effect1_dropShadow" result="effect2_dropShadow"/><feBlend in="SourceGraphic" in2="effect2_dropShadow" result="shape"/></filter></defs></svg>