<svg width="189" height="163" fill="none" xmlns="http://www.w3.org/2000/svg"><path d="M38.98 54.758v16.396h-7.667V27.027h16.88c4.93 0 8.84 1.283 11.73 3.85 2.91 2.565 4.364 5.96 4.364 10.182 0 4.324-1.425 7.688-4.273 10.092-2.83 2.405-6.8 3.607-11.911 3.607h-9.122zm0-6.152h9.214c2.727 0 4.809-.637 6.243-1.91 1.435-1.293 2.152-3.152 2.152-5.576 0-2.384-.727-4.284-2.182-5.698-1.455-1.434-3.455-2.172-6.001-2.212h-9.425v15.396zm38.581-6.668c2.405-2.788 5.445-4.182 9.123-4.182 6.99 0 10.536 3.99 10.638 11.971v21.427h-7.365V50c0-2.263-.495-3.86-1.485-4.789-.97-.95-2.404-1.424-4.304-1.424-2.95 0-5.152 1.313-6.607 3.94v23.427h-7.364V24.603h7.364v17.335zm25.852 12.517c0-3.213.637-6.102 1.909-8.668 1.273-2.586 3.061-4.566 5.365-5.94 2.303-1.394 4.95-2.091 7.94-2.091 4.425 0 8.011 1.424 10.759 4.273 2.768 2.849 4.263 6.627 4.486 11.335l.03 1.727c0 3.233-.626 6.122-1.879 8.668-1.233 2.546-3.011 4.516-5.334 5.91-2.303 1.394-4.97 2.091-8.001 2.091-4.627 0-8.335-1.535-11.123-4.607-2.768-3.09-4.152-7.202-4.152-12.334v-.364zm7.365.636c0 3.374.697 6.021 2.091 7.94 1.394 1.9 3.334 2.85 5.819 2.85s4.415-.97 5.789-2.91c1.394-1.94 2.091-4.778 2.091-8.516 0-3.314-.718-5.94-2.152-7.88-1.414-1.94-3.344-2.91-5.789-2.91-2.404 0-4.313.96-5.728 2.88-1.414 1.899-2.121 4.748-2.121 8.546zm38.581-24.7v7.97h5.788v5.456h-5.788v18.306c0 1.252.242 2.161.727 2.727.505.546 1.394.819 2.667.819.848 0 1.707-.102 2.576-.304v5.698c-1.677.465-3.293.697-4.849.697-5.657 0-8.486-3.121-8.486-9.365V43.817h-5.395v-5.455h5.395v-7.97h7.365zm9.152 24.064c0-3.213.637-6.102 1.91-8.668 1.272-2.586 3.061-4.566 5.364-5.94 2.303-1.394 4.95-2.091 7.94-2.091 4.425 0 8.011 1.424 10.759 4.273 2.768 2.849 4.263 6.627 4.486 11.335l.03 1.727c0 3.233-.626 6.122-1.879 8.668-1.233 2.546-3.011 4.516-5.334 5.91-2.303 1.394-4.97 2.091-8.001 2.091-4.627 0-8.334-1.535-11.123-4.607-2.768-3.09-4.152-7.202-4.152-12.334v-.364zm7.365.636c0 3.374.697 6.021 2.091 7.94 1.394 1.9 3.334 2.85 5.819 2.85s4.415-.97 5.789-2.91c1.394-1.94 2.091-4.778 2.091-8.516 0-3.314-.718-5.94-2.152-7.88-1.414-1.94-3.344-2.91-5.789-2.91-2.404 0-4.313.96-5.728 2.88-1.414 1.899-2.121 4.748-2.121 8.546z" fill="#fff"/><path d="M66.348 144.729H58.71v-19.608H38.98v19.608h-7.667v-44.127h7.668v18.366h19.73v-18.366h7.637v44.127zm32.939 0c-.324-.626-.607-1.646-.849-3.061-2.344 2.445-5.213 3.667-8.607 3.667-3.294 0-5.98-.939-8.062-2.818-2.08-1.879-3.122-4.203-3.122-6.971 0-3.495 1.294-6.172 3.88-8.031 2.606-1.879 6.324-2.819 11.153-2.819h4.515v-2.151c0-1.698-.474-3.051-1.424-4.062-.95-1.03-2.394-1.545-4.334-1.545-1.677 0-3.05.424-4.122 1.273-1.07.828-1.606 1.889-1.606 3.182h-7.364c0-1.798.596-3.475 1.788-5.031 1.192-1.576 2.808-2.809 4.849-3.698 2.06-.889 4.354-1.333 6.88-1.333 3.838 0 6.9.97 9.182 2.909 2.284 1.92 3.455 4.627 3.516 8.123v14.789c0 2.95.414 5.304 1.243 7.062v.515h-7.516zm-8.092-5.303a8.295 8.295 0 004.091-1.061c1.293-.707 2.263-1.657 2.91-2.849v-6.183h-3.97c-2.728 0-4.78.475-6.153 1.425-1.374.949-2.06 2.293-2.06 4.031 0 1.414.464 2.545 1.393 3.394.95.828 2.213 1.243 3.789 1.243zm40.515.03c1.839 0 3.364-.536 4.577-1.606 1.212-1.071 1.858-2.395 1.939-3.971h6.94c-.08 2.041-.717 3.95-1.909 5.728-1.192 1.758-2.808 3.152-4.849 4.183-2.041 1.03-4.243 1.545-6.607 1.545-4.586 0-8.223-1.485-10.91-4.455-2.688-2.97-4.031-7.071-4.031-12.304v-.758c0-4.991 1.333-8.981 4-11.971 2.667-3.011 6.304-4.516 10.911-4.516 3.899 0 7.071 1.142 9.516 3.425 2.465 2.263 3.758 5.243 3.879 8.94h-6.94c-.081-1.879-.727-3.424-1.939-4.637-1.193-1.212-2.718-1.818-4.577-1.818-2.384 0-4.223.869-5.516 2.606-1.293 1.718-1.949 4.334-1.97 7.85v1.182c0 3.556.637 6.213 1.91 7.97 1.293 1.738 3.152 2.607 5.576 2.607zm34.636-8.789l-3.273 3.364v10.698h-7.365V98.178h7.365v26.852l2.303-2.879 9.062-10.214h8.85l-12.184 13.669 13.487 19.123h-8.516l-9.729-14.062z" fill="#FF72A0"/><path d="M26.828 2H2v23.113m.388 111.09v23.859h24.051" stroke="#FF72A0" stroke-width="3.986"/></svg>