<svg xmlns="http://www.w3.org/2000/svg" width="85" height="85" fill="none"><circle cx="42.071" cy="42.071" r="42.071" fill="url(#a)"/><path fill="url(#b)" d="M24.57 55.76V27.38h5.54c1.36.1 2.2.63 2.45.9l3.03 3.06v-3.96h1.1c.83.87 2.67 2.77 3.3 3.4.85 0 1.65.43 1.95.64a528.18 528.18 0 013.2 3.24c.16-2.02 1.5-3 1.6-3.03 2.14-1.55 4.44-.67 5.33-.04l4.03 4.02.03-2.18-1.3-1.56V31h1.3v-2.56h1.1c1.2 1.23 3.65 3.74 3.95 3.9 1.26-1.55 2.86-1.6 3.24-1.55 1.64-.14 2.92.83 3.36 1.34l15.47 15.68s-.43 3.1-.58 3.85c-.16.74-1.48 9.6-8.86 17.7C66.44 77.5 57.58 81.2 57.58 81.2H49.9L24.58 55.75z"/><path fill="#fff" fill-rule="evenodd" d="M68.56 37.74a4.58 4.58 0 01-.88 1.57c-.38.44-.85.78-1.38 1a4.4 4.4 0 01-1.8.37 4.9 4.9 0 01-1.68-.33 3.8 3.8 0 01-1.38-.93 4.44 4.44 0 01-.94-1.53 6.18 6.18 0 01-.34-2.16 6.64 6.64 0 01.27-1.92 4.57 4.57 0 01.82-1.57 3.88 3.88 0 011.36-1.05 4.38 4.38 0 011.9-.4 4.42 4.42 0 011.93.4c.53.24 1 .6 1.37 1.05.37.46.64 1 .8 1.57.18.63.27 1.28.27 1.94a6.3 6.3 0 01-.3 2.04zm-1.04-3.6a3.7 3.7 0 00-.56-1.25 2.7 2.7 0 00-.98-.86 3.19 3.19 0 00-1.47-.3 2.98 2.98 0 00-1.45.33c-.4.22-.73.52-1 .9a3.9 3.9 0 00-.55 1.26 6 6 0 00-.18 1.48 5.87 5.87 0 00.2 1.62c.13.45.33.88.6 1.26.28.35.62.63 1 .82.44.2.92.3 1.4.3a2.98 2.98 0 001.45-.35c.4-.2.74-.52 1-.9.25-.4.44-.82.55-1.27a5.93 5.93 0 00.18-1.47 6.44 6.44 0 00-.18-1.55zm-9.74 6.53c-.54 0-.96-.14-1.24-.4-.3-.28-.43-.77-.43-1.47v-6.88H54.8v-.9h1.33V28.4h1.1V31h1.76v.92H57.2v6.44c0 .23 0 .43.02.6a1 1 0 00.1.42.52.52 0 00.3.24c.16.05.34.08.52.07.15 0 .3-.02.45-.05.14-.02.3-.05.43-.1v.9a6.15 6.15 0 00-.53.13 2.7 2.7 0 01-.72.1zm-5.24-1.36a3.88 3.88 0 01-1.38 1 4.4 4.4 0 01-1.78.37 4.9 4.9 0 01-1.7-.33 3.8 3.8 0 01-1.38-.93 4.44 4.44 0 01-.93-1.53 6.17 6.17 0 01-.35-2.16 6.64 6.64 0 01.27-1.92 4.57 4.57 0 01.8-1.57 3.88 3.88 0 011.37-1.05 4.38 4.38 0 011.9-.4 4.42 4.42 0 011.93.4c.53.24 1 .6 1.36 1.05.38.46.65 1 .8 1.57a6.9 6.9 0 01.27 1.94c0 .7-.1 1.4-.3 2.05a4.58 4.58 0 01-.9 1.56zm-.15-5.15a3.7 3.7 0 00-.57-1.26 2.7 2.7 0 00-.98-.86 3.2 3.2 0 00-1.47-.3 2.98 2.98 0 00-1.46.33c-.4.22-.74.52-1 .9a3.9 3.9 0 00-.56 1.26 6 6 0 00-.18 1.48 5.87 5.87 0 00.2 1.62c.13.45.34.88.62 1.26.26.35.6.63 1 .82.43.2.9.3 1.38.3a2.98 2.98 0 001.46-.35c.4-.2.73-.52 1-.9.25-.4.44-.82.55-1.27.1-.48.17-.97.17-1.47a6.44 6.44 0 00-.18-1.55zM45.85 47.7a3.37 3.37 0 011.44-1.33 4.33 4.33 0 011.9-.44 4 4 0 011.87.4c.52.26.96.64 1.3 1.1a4.7 4.7 0 01.78 1.58c.17.63.26 1.26.26 1.9a7.7 7.7 0 01-.23 1.94 4.26 4.26 0 01-.75 1.57c-.35.46-.8.82-1.32 1.06-.6.27-1.27.4-1.94.38a3.55 3.55 0 01-.93-.13 4.37 4.37 0 01-.9-.35 3.67 3.67 0 01-.83-.6 2.94 2.94 0 01-.6-.82h-.04v1.65h-1.1V42.5h1.1v5.2zm.2 4.73c.13.46.34.9.6 1.27.28.36.62.65 1 .85.43.2.9.32 1.37.3.44 0 .87-.07 1.27-.24a2.9 2.9 0 001.02-.7 3.35 3.35 0 00.68-1.16 4.63 4.63 0 00.25-1.57 6.15 6.15 0 00-.15-1.66 3.97 3.97 0 00-.58-1.34 2.88 2.88 0 00-1.03-.92 3.05 3.05 0 00-1.47-.33 2.77 2.77 0 00-1.33.33c-.4.2-.73.5-1 .85-.28.38-.5.8-.63 1.25a5.2 5.2 0 00-.2 1.52 5.8 5.8 0 00.2 1.58zm-4.14-18.15c0-.85-.2-1.5-.56-1.9-.38-.43-1-.64-1.87-.64a2.66 2.66 0 00-.94.15c-.27.1-.52.23-.75.4a2.73 2.73 0 00-.92 1.27c-.1.28-.18.57-.2.87-.03.28-.04.58-.04.9v5.07h-1.1V27.35h1.1v4.98c.4-.43.85-.8 1.35-1.13a3.1 3.1 0 011.67-.44 4.3 4.3 0 011.6.3c.53.2.96.57 1.27 1.04.2.3.35.67.4 1.04.05.37.07.75.07 1.12v6.15h-1.08V34.3zM36.94 46.1a5.86 5.86 0 011.44-.17 5.6 5.6 0 011.33.15c.4.1.77.26 1.1.5.32.22.57.53.73.9.2.43.28.9.26 1.37v5.12c0 .42.07.7.22.8.15.12.45.1.9-.07v.85c-.07.02-.2.06-.36.1a1.7 1.7 0 01-.48.08 2.17 2.17 0 01-.5-.05.84.84 0 01-.42-.18 1.06 1.06 0 01-.27-.32 1.35 1.35 0 01-.14-.42 3.04 3.04 0 01-.04-.48c-.44.5-.98.9-1.58 1.16a4.64 4.64 0 01-1.92.4 4.3 4.3 0 01-1.2-.16 2.88 2.88 0 01-1-.5 2.52 2.52 0 01-.7-.86 2.6 2.6 0 01-.24-1.2c0-1.58 1.1-2.53 3.28-2.82l1.5-.2c.22-.02.46-.06.75-.1a2.72 2.72 0 00.7-.2.58.58 0 00.34-.43c.04-.2.06-.37.06-.56a1.86 1.86 0 00-.53-1.36c-.36-.35-.96-.53-1.8-.53a5 5 0 00-1.04.1 2.25 2.25 0 00-.83.35 1.9 1.9 0 00-.58.66 2.75 2.75 0 00-.3 1.03h-1.1c.02-.5.15-.98.38-1.42.2-.37.5-.7.84-.96.36-.25.77-.44 1.2-.54zm2.37 4.93c-.47.06-.94.1-1.4.14-.84.06-1.5.25-1.96.56-.47.32-.7.8-.7 1.44 0 .26.05.52.17.75.12.2.28.4.47.53.2.14.42.25.65.3.25.07.5.1.75.1a5 5 0 001.27-.16c.4-.1.77-.28 1.1-.5a2.55 2.55 0 00.77-.86c.22-.38.32-.8.3-1.22v-1.47c-.44.2-.9.32-1.4.38zM32 33.9a4.96 4.96 0 01-1.6.58c-.6.1-1.2.16-1.8.16h-2.8v5.77h-1.23V27.35h4.77c.85 0 1.55.1 2.1.3.5.15.94.43 1.3.8.32.32.55.72.68 1.16.13.45.2.92.2 1.4 0 .72-.16 1.32-.46 1.8A3.28 3.28 0 0132 33.9zm-.43-4.87c-.54-.42-1.4-.63-2.57-.63h-3.2v5.2h2.84c.52 0 1.04-.04 1.56-.12a3.12 3.12 0 001.17-.4c.32-.2.57-.5.74-.83a3 3 0 00.28-1.35c0-.82-.27-1.45-.8-1.87zM19 24.73h-1.28V17.7h7V19H19v5.72zm5.63 17.78h1.23v12.03h7v1.05h-8.23V42.5zM19 64.4h5.7v1.3h-7v-7H19v5.7z" clip-rule="evenodd"/><defs><linearGradient id="a" x2="84.232" y2="84.054" gradientUnits="userSpaceOnUse"><stop stop-color="#FA29B4"/><stop offset="1" stop-color="#0721AF"/></linearGradient><linearGradient id="b" x1="38.899" x2="38.899" y1="36.464" y2="70.177" gradientUnits="userSpaceOnUse"><stop stop-color="#1321B0"/><stop offset="1" stop-color="#1321B0" stop-opacity="0"/></linearGradient></defs></svg>