<svg width="314" height="174" fill="none" xmlns="http://www.w3.org/2000/svg"><path d="M157.501 101.373c0-3.687 1.8-6.925 4.521-8.806h-13.219c2.722 1.874 4.522 5.111 4.522 8.806 0 5.805-4.45 10.505-9.929 10.505h24.04c-5.486 0-9.935-4.7-9.935-10.505z" fill="#FF72A0"/><path d="M167.436 111.877h-24.04v3.306h24.04v-3.306z" fill="#FFFB00"/><path d="M175.414 115.184h-39.996v9.75h39.996v-9.75z" fill="#27AE61"/><path d="M179.748 131.282h-48.672l1.944-6.346h44.136l2.592 6.346z" fill="#186E73"/><path d="M188.928 23.033h-67.031c0 1.896.036 3.77.1 5.63h66.823c.072-1.86.108-3.733.108-5.63zm24.653 3.559c-.749-1.364-2.023-2.727-3.255-3.596-4.924-3.504-12.744-2.24-17.092 1.745-1.822 1.676-3.247 3.801-4.147 5.987-.879 2.21-1.412 4.213-1.606 6.59l2.11.54c.892-5.91 4.384-11.25 10.274-12.218 5.328-.869 9.713 3.892 9.842 9.149.31 13.102-11.232 21.2-20.606 27.157-3.11 1.973-6.883 4.342-8.827 7.709-.612 1.058-1.159 2.27-1.397 3.633-.238 1.356-.158 2.887.432 4.266a6.125 6.125 0 002.938 3.131c1.26.617 2.635.746 3.873.564.713-.107 1.995-.777 2.247-1.38v-1.965c-1.75.519-3.514.541-4.745-.19-1.275-.724-1.901-2.148-1.606-3.84 1.174-6.688 10.051-11.494 14.882-14.922 5.343-3.794 10.952-7.9 14.609-13.62a23.219 23.219 0 003.586-10.65c.23-2.583-.087-5.492-1.512-8.09z" fill="#FF72A0"/><path d="M187.488 37.523c0 2.605 1.995 4.715 4.457 4.715 2.462 0 4.457-2.11 4.457-4.715s-1.995-4.715-4.457-4.715c-2.462-.008-4.457 2.11-4.457 4.715zm-5.587 39.596c0 2.293 1.757 4.151 3.924 4.151s3.924-1.858 3.924-4.151c0-2.293-1.757-4.152-3.924-4.152-2.167.008-3.924 1.859-3.924 4.152zM97.245 26.592c.749-1.363 2.023-2.727 3.254-3.595 4.925-3.504 12.744-2.24 17.093 1.744 1.821 1.676 3.247 3.802 4.147 5.988.878 2.209 1.411 4.212 1.606 6.59l-2.11.54c-.893-5.911-4.385-11.251-10.274-12.219-5.328-.868-9.713 3.893-9.843 9.149-.309 13.102 11.232 21.2 20.607 27.157 3.11 1.973 6.883 4.342 8.827 7.71.612 1.058 1.159 2.27 1.397 3.633.237 1.356.158 2.887-.432 4.266a6.126 6.126 0 01-2.938 3.13c-1.26.617-2.635.747-3.874.564-.712-.106-1.994-.777-2.246-1.379v-1.965c1.75.518 3.514.54 4.745-.19 1.274-.724 1.901-2.149 1.605-3.84-1.173-6.688-10.051-11.495-14.882-14.923-5.342-3.793-10.951-7.9-14.609-13.62a23.22 23.22 0 01-3.585-10.65c-.23-2.582.086-5.492 1.512-8.09z" fill="#FF72A0"/><path d="M123.337 37.523c0 2.605-1.995 4.715-4.457 4.715-2.462 0-4.457-2.11-4.457-4.715s1.995-4.715 4.457-4.715c2.462-.008 4.457 2.11 4.457 4.715zm5.587 39.596c0 2.293-1.757 4.151-3.924 4.151s-3.924-1.858-3.924-4.151c0-2.293 1.757-4.152 3.924-4.152 2.167.008 3.924 1.859 3.924 4.152z" fill="#FF72A0"/><path d="M179.835 28.664h-57.067c.698 19.326 4.946 36.481 11.325 48.395 5.732 10.695 13.176 17.163 21.319 17.163 17.216 0 31.32-28.871 32.645-65.55h-8.222v-.008z" fill="#FFFB00"/><path d="M122.768 28.664c.698 19.326 4.946 36.481 11.325 48.395l45.742-48.395h-57.067z" fill="#fff"/><path d="M129.607 98.066c-.676.128-1.339.27-2.013.442-.357.087-.633.168-.991.265-.34.097-.666.2-.998.307-1.307.44-2.555.95-3.786 1.48-2.462 1.059-4.847 2.19-7.246 3.263a131.762 131.762 0 01-4.207 1.807c-2.356-1.734-4.978-3.821-7.058-4.096-2.822-.365-6.537.529-9.298 1.856 2.165 1.762 6.043 3.967 8.86 4.337.516.07 1.09.085 1.692.073a72.22 72.22 0 01-4.627 1.383 56.86 56.86 0 01-4.343.949c-2.209-2.99-4.673-7.15-7.176-8.408-2.957-1.488-7.334-1.938-10.811-1.534 1.763 2.771 5.244 6.687 8.206 8.17 1.943.976 4.846 1.518 7.405 2.142-2.824.381-5.673.54-8.521.418a45.596 45.596 0 01-6.318-.714c-1.37-3.544-2.658-8.39-4.77-10.365-2.454-2.294-6.535-3.997-9.977-4.615.973 3.18 3.3 7.97 5.75 10.258 1.603 1.499 4.228 2.859 6.519 4.193a47.006 47.006 0 01-6.2-1.942c-.597-.236-1.2-.478-1.788-.733a37.04 37.04 0 01-1.758-.808 38.59 38.59 0 01-3.38-1.883 44.58 44.58 0 01-1.757-1.171c-.043-3.83.422-8.816-.85-11.456-1.49-3.086-4.684-6.25-7.664-8.16-.198 3.344.316 8.71 1.8 11.791.89 1.845 2.614 3.91 4.175 5.885a45.653 45.653 0 01-1.91-1.634c-2.97-2.699-5.63-5.774-8.036-9.075.583-3.702 2.218-8.814 1.45-11.781-.826-3.21-3.25-6.847-5.692-9.26-.8 3.102-1.311 8.257-.485 11.468.62 2.41 2.416 5.43 3.636 8.039a96.26 96.26 0 01-1.083-1.606 89.864 89.864 0 01-6.98-12.839c1.066-2.72 1.23-5.84.21-8.812-1.076-3.127-3.383-5.524-6.161-7.58-.797 3.116-1.158 6.887-.092 10.014 1.025 2.976 3.03 5.261 5.498 6.599.754 2.091 1.634 4.127 2.587 6.129a68.92 68.92 0 002.165 4.173c-1.605-2.178-3.298-4.825-4.962-6.303-2.403-2.134-7.038-3.789-10.032-4.307 1.049 3.36 3.154 7.21 5.566 9.345 2.23 1.98 7.317 2.525 10.734 3.52.159.256.308.522.466.78 2.21 3.558 4.712 6.931 7.54 9.99-2.41-1.898-5.219-4.914-7.629-6.234-2.92-1.596-7.996-2.168-11.168-1.983 1.81 3.18 4.793 6.592 7.708 8.192 2.783 1.526 8.332.779 12.046 1.027a49.196 49.196 0 001.724 1.711 46.693 46.693 0 005.593 4.523c-1.937-.837-3.893-1.655-5.539-1.936-3.349-.57-8.526.594-11.586 1.852 2.723 2.5 6.69 4.828 10.043 5.403 2.945.501 7.61-1.67 11.234-2.813.031.016.062.032.097.053a41.59 41.59 0 001.813.873 41.11 41.11 0 001.845.798 49.206 49.206 0 005.915 2.013c-2.331-.235-4.734-.483-6.584-.224-3.477.486-8.267 3.258-10.948 5.46 3.395 1.605 7.976 2.659 11.457 2.169 3.112-.438 7.216-4.169 10.515-6.425 1.708.294 3.433.507 5.165.616a47.83 47.83 0 004.82.047c-2.362.591-4.826 1.192-6.561 2.102-3.15 1.651-6.846 5.901-8.713 8.896 3.708.354 8.38-.219 11.528-1.87 2.758-1.442 5.445-6.189 7.846-9.448a59.026 59.026 0 006.734-1.179c-.332.217-.651.43-.935.665-2.53 2.013-5.136 6.429-6.31 9.407 3.347-.345 7.388-1.677 9.918-3.69 1.974-1.573 3.48-5.448 4.93-8.608 2.622-.912 5.2-1.937 7.735-3.022 2.447-1.037 4.857-2.128 7.261-3.124 1.202-.493 2.403-.967 3.595-1.35.299-.095.593-.185.891-.261.28-.076.633-.168.917-.23.6-.146 1.217-.272 1.833-.379 2.456-.419 4.948-.492 7.357-.123.18.028.359.066.538.094l-2.082-3.427c-2.124-.115-4.232.054-6.292.431zm55.003-.001c.676.128 1.339.27 2.013.442.357.086.633.168.991.264.34.098.666.2.998.308 1.307.44 2.555.949 3.786 1.479 2.462 1.06 4.847 2.191 7.246 3.263a131.79 131.79 0 004.207 1.808c2.356-1.734 4.978-3.822 7.058-4.096 2.822-.366 6.537.529 9.298 1.856-2.165 1.762-6.043 3.967-8.86 4.337-.516.069-1.09.084-1.692.072 1.533.51 3.073.981 4.627 1.384 1.44.376 2.891.688 4.343.949 2.209-2.99 4.673-7.15 7.176-8.409 2.957-1.487 7.334-1.937 10.812-1.533-1.764 2.77-5.245 6.687-8.207 8.17-1.943.975-4.846 1.517-7.405 2.142 2.824.381 5.673.54 8.521.417a45.436 45.436 0 006.318-.713c1.37-3.544 2.658-8.391 4.771-10.365 2.453-2.294 6.534-3.998 9.976-4.615-.973 3.18-3.3 7.969-5.749 10.258-1.604 1.499-4.229 2.859-6.52 4.193a47.15 47.15 0 006.199-1.942 58.3 58.3 0 001.789-.733 38.443 38.443 0 005.138-2.691 43.949 43.949 0 001.757-1.172c.043-3.83-.422-8.816.85-11.455 1.489-3.087 4.684-6.251 7.664-8.16.198 3.343-.316 8.71-1.801 11.79-.889 1.846-2.613 3.91-4.174 5.886a45.735 45.735 0 001.909-1.635c2.971-2.698 5.632-5.773 8.037-9.074-.583-3.702-2.218-8.814-1.451-11.782.827-3.21 3.251-6.847 5.693-9.26.801 3.102 1.311 8.258.485 11.468-.62 2.41-2.416 5.43-3.636 8.04.366-.532.727-1.067 1.083-1.607a90.01 90.01 0 006.98-12.838c-1.066-2.72-1.23-5.841-.21-8.813 1.076-3.127 3.383-5.523 6.161-7.58.797 3.117 1.158 6.888.092 10.014-1.025 2.977-3.031 5.262-5.498 6.6-.754 2.091-1.634 4.127-2.587 6.128a69.04 69.04 0 01-2.165 4.174c1.605-2.178 3.298-4.826 4.962-6.304 2.403-2.133 7.038-3.788 10.033-4.306-1.05 3.36-3.155 7.21-5.567 9.344-2.23 1.981-7.317 2.526-10.734 3.52-.159.257-.308.523-.466.78-2.211 3.559-4.711 6.932-7.541 9.992 2.411-1.9 5.22-4.916 7.63-6.236 2.919-1.595 7.996-2.168 11.168-1.982-1.81 3.18-4.793 6.591-7.708 8.192-2.783 1.526-8.332.778-12.046 1.027a48.524 48.524 0 01-1.724 1.711 46.83 46.83 0 01-5.593 4.523c1.937-.837 3.893-1.656 5.539-1.937 3.349-.569 8.526.595 11.586 1.853-2.723 2.499-6.69 4.828-10.043 5.403-2.945.501-7.61-1.67-11.234-2.814-.031.016-.062.032-.097.053-.599.309-1.208.598-1.813.874-.614.285-1.225.546-1.845.798a49.193 49.193 0 01-5.914 2.013c2.33-.235 4.733-.483 6.583-.224 3.477.485 8.267 3.258 10.948 5.459-3.394 1.606-7.976 2.66-11.457 2.17-3.112-.438-7.216-4.169-10.515-6.425a48.125 48.125 0 01-5.165.615 47.53 47.53 0 01-4.819.048c2.36.591 4.826 1.191 6.56 2.102 3.149 1.651 6.846 5.901 8.713 8.896-3.708.353-8.379-.219-11.528-1.871-2.758-1.441-5.445-6.188-7.846-9.447a59.025 59.025 0 01-6.734-1.179c.332.217.651.43.935.664 2.53 2.014 5.136 6.43 6.31 9.407-3.347-.344-7.388-1.676-9.918-3.69-1.974-1.573-3.48-5.447-4.93-8.607a120.43 120.43 0 01-7.735-3.022c-2.448-1.037-4.857-2.128-7.261-3.124-1.202-.493-2.403-.967-3.595-1.351a16.895 16.895 0 00-.891-.26c-.28-.076-.633-.168-.917-.23-.6-.146-1.217-.272-1.834-.379-2.455-.419-4.947-.492-7.356-.124-.18.029-.359.067-.538.095l2.082-3.428c2.124-.114 4.232.055 6.292.432z" fill="#27AE61"/></svg>