<svg width="133" height="80" fill="none" xmlns="http://www.w3.org/2000/svg"><path d="M37.48 28.885c0 1.637.178 2.964.487 3.937a23.74 23.74 0 001.416 3.185c.22.354.31.708.31 1.017 0 .443-.266.885-.841 1.327l-2.787 1.858c-.398.265-.796.398-1.15.398-.442 0-.885-.221-1.327-.62a13.695 13.695 0 01-1.592-2.078 34.27 34.27 0 01-1.372-2.61c-3.45 4.07-7.785 6.104-13.005 6.104-3.715 0-6.679-1.061-8.846-3.184-2.168-2.124-3.274-4.955-3.274-8.494 0-3.76 1.327-6.812 4.026-9.112 2.698-2.3 6.28-3.45 10.837-3.45 1.504 0 3.052.133 4.689.354 1.637.221 3.317.575 5.087.973v-3.23c0-3.36-.708-5.705-2.08-7.077-1.415-1.37-3.803-2.034-7.21-2.034-1.548 0-3.14.177-4.777.575a35.25 35.25 0 00-4.777 1.504 12.69 12.69 0 01-1.548.575c-.31.088-.531.132-.708.132-.62 0-.929-.442-.929-1.37V5.396c0-.708.088-1.239.31-1.549.22-.31.619-.619 1.238-.929 1.548-.796 3.406-1.46 5.574-1.99 2.167-.575 4.467-.84 6.9-.84 5.264 0 9.113 1.194 11.59 3.582 2.433 2.39 3.671 6.016 3.671 10.882v14.332h.089zM19.523 35.61c1.46 0 2.963-.266 4.556-.797 1.592-.53 3.008-1.503 4.202-2.83.708-.841 1.238-1.77 1.504-2.831.265-1.062.442-2.345.442-3.849v-1.858a36.964 36.964 0 00-4.07-.752A33.339 33.339 0 0022 22.427c-2.964 0-5.132.575-6.591 1.77-1.46 1.194-2.168 2.875-2.168 5.086 0 2.08.531 3.627 1.637 4.689 1.061 1.106 2.61 1.637 4.644 1.637zm35.52 4.777c-.797 0-1.327-.133-1.681-.442-.354-.266-.664-.885-.93-1.726L42.038 4.026c-.266-.884-.398-1.46-.398-1.77 0-.707.354-1.105 1.061-1.105h4.335c.84 0 1.416.133 1.725.442.354.266.62.885.885 1.726l7.43 29.281 6.901-29.283c.221-.885.487-1.46.84-1.726.354-.265.974-.442 1.77-.442h3.539c.84 0 1.415.133 1.769.442.354.266.663.885.84 1.726l6.99 29.637 7.652-29.637c.266-.885.575-1.46.885-1.726.354-.265.929-.442 1.725-.442H94.1c.707 0 1.106.354 1.106 1.106 0 .221-.045.442-.089.708a6.295 6.295 0 01-.31 1.106l-10.66 34.193c-.266.884-.575 1.46-.929 1.725-.354.265-.929.442-1.68.442h-3.805c-.84 0-1.415-.133-1.77-.442-.353-.31-.663-.885-.84-1.77l-6.856-28.53-6.812 28.486c-.222.885-.487 1.46-.84 1.77-.355.31-.974.442-1.77.442h-3.804zm56.841 1.194c-2.3 0-4.6-.265-6.812-.796-2.212-.53-3.937-1.106-5.087-1.77-.708-.397-1.194-.84-1.371-1.238a3.123 3.123 0 01-.266-1.238v-2.256c0-.93.354-1.372 1.018-1.372.265 0 .53.045.796.133.265.089.663.266 1.106.442a24.047 24.047 0 004.865 1.549c1.77.354 3.495.53 5.264.53 2.787 0 4.955-.486 6.459-1.46 1.504-.972 2.3-2.388 2.3-4.201 0-1.24-.398-2.256-1.195-3.097-.796-.84-2.3-1.592-4.467-2.3l-6.414-1.99c-3.229-1.018-5.618-2.522-7.078-4.513-1.46-1.946-2.212-4.113-2.212-6.414 0-1.857.399-3.494 1.195-4.91a11.373 11.373 0 013.185-3.627c1.327-1.017 2.831-1.77 4.6-2.3 1.77-.53 3.627-.752 5.574-.752.973 0 1.99.044 2.963.177 1.018.133 1.947.31 2.876.487.884.22 1.725.442 2.521.707.796.266 1.415.531 1.858.796.619.354 1.061.708 1.327 1.106.265.354.398.84.398 1.46v2.08c0 .928-.354 1.415-1.017 1.415-.354 0-.929-.177-1.681-.531-2.522-1.15-5.353-1.725-8.493-1.725-2.522 0-4.512.398-5.884 1.238-1.371.84-2.079 2.123-2.079 3.937 0 1.239.443 2.3 1.327 3.14.885.841 2.522 1.682 4.866 2.434l6.282 1.99c3.184 1.018 5.485 2.433 6.856 4.247 1.371 1.813 2.035 3.892 2.035 6.193 0 1.901-.398 3.627-1.15 5.13-.797 1.505-1.858 2.832-3.23 3.893-1.371 1.106-3.007 1.902-4.91 2.477-1.99.62-4.069.93-6.325.93z" fill="#fff"/><path fill-rule="evenodd" clip-rule="evenodd" d="M120.243 63.078c-14.553 10.75-35.697 16.456-53.877 16.456-25.48 0-48.437-9.422-65.777-25.081-1.371-1.239-.132-2.92 1.504-1.947C20.85 63.389 43.983 69.98 67.914 69.98c16.145 0 33.884-3.362 50.206-10.262 2.433-1.106 4.512 1.592 2.123 3.361z" fill="#fff"/><path fill-rule="evenodd" clip-rule="evenodd" d="M126.303 56.178c-1.857-2.389-12.297-1.15-17.03-.575-1.415.177-1.637-1.062-.354-1.99 8.316-5.84 21.985-4.159 23.577-2.212 1.593 1.99-.442 15.658-8.227 22.205-1.195 1.018-2.345.487-1.814-.84 1.769-4.38 5.706-14.244 3.848-16.588z" fill="#fff"/></svg>