<svg width="277" height="86" fill="none" xmlns="http://www.w3.org/2000/svg"><path fill-rule="evenodd" clip-rule="evenodd" d="M238.97 73.68a28.418 28.418 0 01-.23 3.22c-.05.37-.09.71-.15 1-.05.3-.11.56-.16.78-.05.22-.1.4-.15.56l-.12.36h-.81v3.06h1.32l.03-.33.11-1.19h3.93l.11 1.19.03.33h1.32V79.6h-.86v-7.46h-5.15v1.54h.78zm1.48 2.03c.04-.61.08-1.28.1-2.03h1.19v5.92h-1.89c.05-.17.09-.35.14-.56.09-.42.18-.9.27-1.44.07-.54.14-1.17.19-1.89zM106.1 80.79v-8.65h-1.15l-.11.18-2.77 4.92v-5.1h-1.62v9.01h1.17l.1-.19 2.77-4.86v5.05h1.61v-.36zm4.88-4.46l1.31 2.69.1.2h.75l.1-.21 1.29-2.79v4.93h1.62v-9.01h-1.38l-.1.21-1.86 4-1.98-4.01-.1-.2h-1.33v9.01h1.58v-4.82zm8.47-3.83v8.65h4.47V79.6h-2.86v-2.3h2.57v-1.54h-2.57v-2.08h2.8v-1.54h-4.41v.36zm7.58 0v8.65h1.62v-3.82h2.32v3.82h1.62v-9.01h-1.62v3.64h-2.32v-3.64h-1.62v.36zm12.89 3.6v5.05h1.62v-9.01h-1.16l-.1.18-2.78 4.92v-5.1h-1.61v9.01h1.16l.11-.19 2.76-4.86zm12.98.17h-.27c-.18 0-.34-.03-.48-.08-.14-.05-.26-.13-.37-.23-.21-.2-.32-.54-.32-1.05 0-.15.01-.28.03-.4.02-.11.04-.21.07-.29.06-.16.14-.29.24-.38.05-.05.1-.08.16-.12a.67.67 0 01.18-.07c.08-.02.15-.04.23-.05.08-.01.16-.01.25-.01h.29v2.68h-.01zm-1.87 1.14l-.12.11-.06.05-.03.07-1.45 2.99-.25.52h1.83l.1-.21 1.54-3.23.33-.09v3.52h1.61v-8.83l-.26-.08c-.13-.04-.26-.07-.4-.1-.13-.02-.27-.04-.42-.06a33.2 33.2 0 01-.39-.03c-.14-.01-.26-.01-.36-.01a4.714 4.714 0 00-1.07.12c-.18.04-.35.11-.51.19-.16.08-.31.18-.45.29-.14.12-.26.25-.37.41-.1.15-.2.32-.27.51-.08.19-.14.4-.17.63-.04.23-.06.47-.06.73 0 .37.04.71.12 1.01.08.31.21.59.38.82.17.23.36.42.59.57l.14.1zm8.4-.91v-2.89h.01l.21-.01h.22c.1 0 .18.01.27.02.08.01.17.03.25.05.07.02.14.05.2.08s.12.07.17.12c.05.05.1.1.14.17.05.07.09.15.12.23.03.08.06.18.08.29.02.11.03.25.03.4 0 .18-.01.33-.03.46a1.528 1.528 0 01-.23.61c-.05.07-.1.14-.16.19-.06.05-.12.1-.19.13-.06.03-.13.06-.21.08-.17.05-.36.07-.55.07h-.33zm-1.61-3.92v8.56h1.61v-3.1h.4c.18 0 .36-.01.54-.04.18-.03.36-.07.53-.12.18-.06.35-.13.51-.22.16-.09.31-.2.45-.33s.27-.27.38-.44c.11-.16.21-.34.29-.54.08-.2.15-.42.19-.66.04-.23.06-.48.06-.75 0-.57-.09-1.04-.26-1.42-.09-.19-.19-.36-.31-.51-.12-.16-.26-.29-.4-.4-.14-.11-.3-.2-.46-.28-.16-.08-.33-.14-.51-.18a4.44 4.44 0 00-1.02-.12c-.12 0-.27 0-.43.01-.16.01-.31.02-.44.03-.15.01-.3.03-.45.06-.14.03-.29.06-.43.1l-.27.07v.28h.02zm9.1 4.06c0-.57.04-1.06.11-1.47.07-.4.17-.72.31-.97.24-.44.58-.66 1.02-.66.13 0 .24.02.34.05.1.03.19.08.27.15.09.08.18.17.25.27.08.11.15.23.21.36.06.14.12.3.17.47.05.17.09.36.12.55.03.19.05.4.07.61.02.21.02.42.02.64 0 1.12-.14 1.93-.42 2.44-.24.44-.58.66-1.03.66-.12 0-.23-.02-.33-.05a.681.681 0 01-.26-.15c-.09-.08-.18-.17-.25-.27-.08-.11-.15-.23-.21-.36-.13-.29-.22-.62-.29-1.01-.06-.38-.1-.81-.1-1.26zm-1.66 0c0 .34.01.66.04.96.02.3.06.59.12.88.11.57.28 1.06.52 1.47.13.21.27.4.43.56.16.17.35.31.55.42.2.12.43.21.67.26.24.06.5.09.76.09.52 0 .98-.1 1.38-.31.4-.21.73-.53 1-.95.25-.4.43-.89.56-1.46.12-.56.18-1.2.18-1.93a10.067 10.067 0 00-.16-1.85c-.11-.57-.28-1.06-.52-1.46-.12-.21-.27-.4-.43-.56a2.543 2.543 0 00-1.23-.7c-.24-.06-.5-.09-.77-.09-.52 0-.98.11-1.38.32-.4.21-.73.53-.99.95-.25.4-.43.89-.55 1.46-.12.58-.18 1.22-.18 1.94zm9.01 0c0 .39.02.76.06 1.1.04.34.09.66.17.95.08.29.17.56.28.8.11.25.24.47.38.66.15.2.31.37.48.51.18.14.37.26.58.36.2.09.41.16.63.2.22.05.45.07.68.07a4.543 4.543 0 001.04-.12 2.263 2.263 0 00.89-.43l.18-.15-.07-.23-.21-.73-.14-.48-.41.28c-.06.04-.13.08-.2.12-.08.04-.16.07-.26.11-.09.03-.18.05-.28.07-.1.01-.2.02-.33.02-.27 0-.5-.06-.71-.17-.21-.12-.4-.3-.56-.54-.17-.25-.3-.57-.39-.96-.09-.4-.14-.88-.14-1.43 0-.61.05-1.12.15-1.53.05-.2.11-.38.18-.55.07-.16.14-.29.22-.4.08-.11.16-.21.25-.29.09-.08.17-.14.26-.18.09-.05.19-.08.3-.11.1-.02.21-.04.32-.04.13 0 .25.01.36.01.11.01.21.03.3.05.09.02.17.04.25.07.07.03.14.06.2.09l.41.22.12-.45.21-.8.08-.3-.29-.12c-.1-.05-.22-.09-.33-.12-.11-.03-.24-.07-.38-.1-.28-.06-.62-.09-1.02-.09-.21 0-.41.02-.62.07-.21.04-.41.11-.6.19-.2.09-.4.2-.58.35-.18.14-.34.31-.49.5-.15.19-.29.41-.41.65-.12.24-.22.5-.3.8-.09.29-.15.62-.19.97-.05.32-.07.7-.07 1.1zm18.81.66l.46-1.69.12-.42.12.42.47 1.69.04.15h-1.25l.04-.15zm.02-5.03l-2.5 8.41-.14.47h1.65l.08-.26.59-2.05h1.79l.6 2.06.08.26h1.69l-.14-.47-2.5-8.41-.08-.26h-1.03l-.09.25zm7.91 3.55v-2.21h.04l.25-.01h.28c.15 0 .3.02.43.05.06.01.11.03.16.06.05.02.09.05.13.09.04.03.07.07.1.11.03.05.06.1.09.17.05.13.08.31.08.52a1.217 1.217 0 01-.51 1.03c-.09.07-.18.12-.29.17l-.09.01-.18.01-.19.01h-.3v-.01zm.43 1.49a2.44 2.44 0 01.55.05c.08.01.15.04.22.06a.864.864 0 01.32.23c.05.06.09.12.12.2.07.15.11.36.11.63 0 .11-.01.21-.02.3-.02.09-.04.17-.07.24-.03.07-.07.14-.11.2-.04.06-.09.12-.14.16-.05.05-.11.09-.16.13-.06.04-.12.07-.19.09-.14.05-.3.08-.47.08h-.25l-.13-.01-.13-.01-.1-.01V77.3h.45v.01zm-2.05-4.74v8.42l.26.08c.07.02.15.04.24.06.08.02.17.03.26.04l.25.03.26.02c.18.01.34.02.49.02h.38c.19 0 .37-.01.55-.04.18-.03.35-.07.52-.12.17-.05.34-.12.49-.21.16-.09.3-.19.44-.3.14-.12.26-.25.37-.4.11-.15.2-.32.28-.49.08-.18.13-.38.17-.59.04-.21.06-.43.06-.66a2.971 2.971 0 00-.13-.95c-.05-.14-.1-.26-.16-.38-.07-.12-.14-.23-.22-.33a1.882 1.882 0 00-.5-.43l.02-.02c.09-.08.17-.17.25-.27.08-.09.14-.2.2-.3.06-.11.11-.22.16-.33.04-.11.08-.23.11-.35.03-.12.05-.23.06-.35.01-.12.02-.24.02-.35 0-.23-.02-.44-.06-.64-.04-.2-.1-.38-.18-.54-.08-.15-.17-.29-.27-.41-.11-.13-.23-.23-.36-.32-.26-.17-.54-.28-.86-.34-.14-.03-.29-.05-.44-.06-.15-.01-.3-.02-.44-.02-.17 0-.36 0-.55.01-.18.01-.35.02-.52.04-.17.02-.32.03-.46.05-.16.02-.29.04-.41.07l-.29.06v.3h.01zm9.9-.3l-2.5 8.41-.14.47h1.64l.08-.26.59-2.05h1.79l.6 2.06.08.26h1.7l-.14-.47-2.5-8.41-.08-.26h-1.03l-.09.25zm.56 2.92l.12.42.47 1.69.04.15h-1.25l.04-.15.46-1.69.12-.42zm10.36-2.69v8.65h1.58v-4.82l1.31 2.69.1.2h.76l.09-.21 1.3-2.79v4.93h1.61v-9.01h-1.37l-.1.21-1.87 4-1.97-4.01-.1-.2h-1.34v.36zm9.38.13l2.41 6.04c-.04.17-.07.32-.11.45-.05.15-.09.28-.14.38-.04.07-.07.12-.1.15l-.01.01h-.1l-.12-.02a.16.16 0 01-.08-.03c-.04-.02-.09-.04-.13-.07l-.4-.27-.16.45-.26.76-.09.25.22.16c.08.06.16.11.24.15.08.04.17.07.26.1a2.177 2.177 0 001.02.02c.13-.04.26-.09.37-.16.11-.07.21-.16.3-.27.09-.1.17-.22.25-.35.07-.13.14-.27.21-.44.07-.16.14-.34.21-.54.13-.37.28-.84.46-1.41l1.69-5.39.15-.47H234l-.08.26-1.14 3.9-1.5-3.93-.09-.24h-1.81l.21.51zm19.03 3.87v-2.89h.01l.21-.01h.22c.1 0 .18.01.27.02.08.01.17.03.25.05.07.02.14.05.2.08s.12.07.17.12c.05.05.1.1.14.17.05.07.09.15.12.23.03.08.06.18.08.29.02.11.03.25.03.4 0 .18-.01.33-.03.46a1.528 1.528 0 01-.23.61c-.05.07-.1.14-.16.19-.06.05-.12.1-.18.13s-.13.06-.21.08c-.17.05-.35.07-.55.07h-.34zM247 72.58v8.56h1.61v-3.1h.4c.18 0 .36-.01.54-.04.18-.03.36-.07.53-.12.18-.06.35-.13.51-.22.16-.09.31-.2.45-.33s.27-.27.38-.44c.11-.16.21-.34.29-.54.08-.2.15-.42.19-.66.04-.23.06-.48.06-.75 0-.57-.09-1.04-.26-1.42-.09-.19-.19-.36-.31-.51-.12-.16-.26-.29-.4-.4-.14-.11-.3-.2-.46-.28-.16-.08-.33-.14-.51-.18a4.44 4.44 0 00-1.02-.12c-.12 0-.27 0-.43.01-.16.01-.31.02-.44.03-.15.01-.3.03-.45.06-.14.03-.29.06-.43.1l-.27.07v.28h.02zm9.11 4.06c0-.57.04-1.06.11-1.47.07-.4.17-.72.31-.97.24-.44.58-.66 1.02-.66.13 0 .24.02.34.05.1.03.19.08.27.15.09.08.18.17.25.27.08.11.15.23.21.36.06.14.12.3.17.47.05.17.09.36.12.55.03.19.05.4.07.61.02.21.02.42.02.64 0 1.12-.14 1.93-.42 2.44-.24.44-.58.66-1.03.66-.12 0-.23-.02-.33-.05a.805.805 0 01-.27-.15c-.09-.08-.18-.16-.25-.27-.08-.11-.15-.23-.21-.36-.13-.29-.23-.62-.29-1.01a9.69 9.69 0 01-.09-1.26zm-1.66 0c0 .34.01.66.04.96.03.3.06.59.12.88.11.57.28 1.06.52 1.47.13.21.27.4.43.56.16.17.35.31.55.42.2.12.43.21.67.26.24.06.5.09.76.09.52 0 .98-.1 1.38-.31.4-.21.73-.53 1-.95.25-.4.44-.89.56-1.46.12-.56.18-1.2.18-1.93a10.067 10.067 0 00-.16-1.85c-.11-.57-.28-1.06-.52-1.46-.12-.21-.27-.4-.43-.56a2.543 2.543 0 00-1.23-.7c-.24-.06-.5-.09-.77-.09-.52 0-.98.11-1.38.32-.4.21-.73.53-.99.95-.25.4-.43.89-.55 1.46-.12.58-.18 1.22-.18 1.94zm9.25-4.14v8.65h1.62v-7.47h2.74v-1.54h-4.36v.36zm7.94 4.14c0-.57.04-1.06.11-1.47.07-.4.17-.72.31-.97.24-.44.58-.66 1.02-.66.13 0 .24.02.34.05.1.03.19.08.27.15.09.08.18.17.25.27.08.11.15.23.21.36.06.14.12.3.17.47.05.17.09.36.12.55.03.19.05.4.07.61.02.21.02.42.02.64 0 1.12-.14 1.93-.42 2.44-.24.44-.58.66-1.03.66-.12 0-.23-.02-.33-.05a.681.681 0 01-.26-.15c-.09-.08-.18-.16-.25-.27-.08-.11-.15-.23-.21-.36-.13-.29-.23-.62-.29-1.01-.07-.38-.1-.81-.1-1.26zm-1.62.97c.02.3.06.59.12.88.11.57.28 1.06.53 1.47.13.21.27.4.43.56.16.17.35.31.55.42.2.12.43.21.67.26.24.06.5.09.76.09.52 0 .98-.1 1.38-.31.4-.21.73-.53 1-.95.25-.4.44-.89.56-1.46.12-.56.18-1.2.18-1.93a10.067 10.067 0 00-.16-1.85c-.11-.57-.28-1.06-.52-1.46-.12-.21-.27-.4-.43-.56a2.543 2.543 0 00-1.23-.7c-.24-.06-.5-.09-.77-.09-.52 0-.98.11-1.38.32-.4.21-.73.53-.99.95-.25.4-.43.89-.55 1.46-.12.56-.18 1.2-.18 1.93-.01.34 0 .66.03.97zm-86.39-3.93l-.01.23c-.01.43-.03.84-.05 1.22-.02.36-.04.71-.07 1.05-.02.33-.05.63-.08.9s-.06.51-.09.74c-.03.23-.07.42-.1.59-.03.17-.07.32-.11.46-.04.13-.07.24-.11.34-.05.12-.1.22-.14.29-.03.04-.04.06-.05.06-.02.01-.05.02-.07.02-.03 0-.07 0-.11-.02l-.4-.12-.07.41-.13.82-.04.26.24.12c.21.11.46.16.74.16a1.372 1.372 0 00.92-.35c.24-.21.44-.54.6-.98.11-.31.21-.67.29-1.1.08-.42.15-.9.2-1.45.05-.54.1-1.15.14-1.81.03-.56.07-1.17.1-1.84h1.15v7.46h1.61v-9h-5.11v1.54h.75zm54.05-70.72c-.52 0-.74-.14-.74-.59h-1.78c0 1.14.92 2.26 2.52 2.26 1.49 0 2.5-1.11 2.47-2.26h-1.78c0 .5-.23.59-.69.59zm-91.19 27.25a46.39 46.39 0 01-.14 2.87c-.06.65-.12 1.24-.18 1.78-.07.54-.14 1.02-.21 1.44-.08.44-.15.81-.22 1.13-.07.31-.14.58-.22.8l-.18.53h-1.17v4.44h1.92l.04-.48.16-1.72h5.67l.16 1.72.04.48h1.92v-4.44h-1.25V27.97h-7.45v2.24h1.11zm2.13 2.93c.06-.87.11-1.85.14-2.93h1.71v8.55h-2.73c.07-.24.14-.51.2-.8.14-.6.26-1.3.38-2.08.13-.79.23-1.7.3-2.74zm-45.84-22.01V5.87h-2.33v13.01h2.33v-5.52h3.36v5.52h2.33V5.87h-2.33v5.26h-3.36zm12.63 3.08c-.09-.57-.14-1.18-.14-1.83 0-.82.05-1.53.16-2.13.1-.57.25-1.04.44-1.4.34-.63.83-.95 1.47-.95.18 0 .35.02.49.07s.27.12.38.21c.13.11.26.24.36.38.11.15.21.33.3.53s.17.43.24.67c.07.25.13.52.17.79a11.24 11.24 0 01.13 1.81c0 1.61-.2 2.79-.6 3.53-.34.63-.84.95-1.49.95-.18 0-.34-.02-.48-.07-.14-.05-.27-.12-.38-.22-.13-.11-.25-.24-.36-.38-.11-.15-.21-.33-.3-.52-.16-.4-.3-.89-.39-1.44zm-2.54-1.83c0 .48.02.95.06 1.39.04.44.09.86.17 1.27.15.83.41 1.53.76 2.12.18.3.39.58.63.81.24.24.5.44.79.61.29.17.62.3.97.38.35.08.71.13 1.1.13.75 0 1.42-.15 1.99-.45.58-.31 1.06-.76 1.44-1.37.36-.58.63-1.28.8-2.11.17-.81.26-1.74.26-2.78 0-.49-.02-.95-.06-1.39-.04-.44-.1-.86-.17-1.27-.16-.82-.41-1.53-.76-2.11a3.94 3.94 0 00-.62-.81c-.24-.24-.5-.45-.79-.61-.3-.17-.62-.3-.97-.38-.35-.08-.72-.12-1.12-.12-.75 0-1.41.15-1.99.45-.58.31-1.06.76-1.43 1.37-.36.58-.62 1.28-.8 2.11-.17.78-.26 1.71-.26 2.76zm16.78-1.25l-.14.02-.26.02-.28.01h-.41V7.99h.06l.36-.02h.41c.22 0 .43.03.62.08.08.02.16.05.23.09.07.03.13.08.19.12.05.04.1.1.14.16.05.07.09.15.13.24.08.19.11.44.11.75 0 .44-.11.8-.34 1.08-.12.15-.26.29-.41.4-.12.1-.26.18-.41.24zm-.46 2.22c.15 0 .28.01.41.02.12.01.25.03.39.06a1.405 1.405 0 01.58.24c.07.05.14.12.21.19.07.08.13.18.18.28.11.21.16.52.16.91 0 .16-.01.31-.03.44-.02.13-.05.25-.1.35-.04.1-.09.2-.16.29-.06.09-.12.17-.19.24-.07.07-.15.13-.24.19-.08.05-.17.1-.27.13-.2.07-.43.11-.67.11h-.17l-.18-.01-.19-.01-.19-.02-.14-.01v-3.4h.6zm-2.96-6.85v12.16l.38.11c.1.03.22.06.35.09.12.02.24.04.37.06l.36.04.37.03c.26.02.5.03.71.03h.55c.27 0 .53-.02.79-.06.26-.04.51-.1.76-.17.25-.08.49-.18.71-.3a3.499 3.499 0 001.17-1.01c.16-.22.29-.46.4-.71.11-.26.19-.54.25-.85a5.549 5.549 0 00.03-1.67c-.03-.24-.08-.45-.15-.65-.07-.2-.14-.38-.24-.55-.09-.17-.2-.33-.32-.48a2.73 2.73 0 00-.38-.38c-.1-.09-.22-.16-.33-.23l.03-.02c.13-.12.25-.25.36-.39.11-.14.21-.29.3-.44.09-.16.16-.31.22-.47.06-.17.12-.33.16-.5a4.321 4.321 0 00.12-1c0-.33-.03-.64-.08-.92a2.98 2.98 0 00-.26-.78 2.873 2.873 0 00-.92-1.07 3.48 3.48 0 00-1.24-.5 6.969 6.969 0 00-1.26-.12c-.25 0-.52.01-.8.02-.26.01-.51.03-.75.05-.24.02-.47.05-.67.08-.22.03-.42.06-.59.1l-.42.09v.41h.02zm11.67-.1v12.48h2.34V8.1h3.94V5.87h-6.28v.53zm11.6 7.81c-.09-.57-.14-1.18-.14-1.83 0-.82.05-1.53.16-2.13.1-.57.25-1.04.44-1.4.34-.63.83-.95 1.47-.95.18 0 .35.02.49.07s.27.12.38.21c.13.11.26.24.36.38.11.15.21.33.3.53s.17.43.24.67c.07.25.13.52.17.79a11.24 11.24 0 01.13 1.81c0 1.61-.2 2.79-.6 3.53-.34.63-.84.95-1.49.95-.18 0-.34-.02-.48-.07-.14-.05-.27-.12-.38-.22-.13-.11-.25-.24-.36-.38-.11-.15-.21-.33-.3-.52-.16-.4-.3-.89-.39-1.44zm-2.49-.44c.04.44.09.86.17 1.27.15.83.41 1.53.76 2.12a3.879 3.879 0 001.41 1.42c.29.17.62.3.97.38.35.08.72.13 1.1.13.75 0 1.42-.15 1.99-.45.58-.31 1.06-.76 1.44-1.37.36-.58.63-1.28.8-2.11.17-.81.26-1.74.26-2.78 0-.49-.02-.95-.06-1.39-.04-.44-.1-.86-.17-1.27-.16-.82-.41-1.53-.76-2.11a3.94 3.94 0 00-.62-.81c-.24-.24-.5-.45-.79-.61-.3-.17-.62-.3-.97-.38-.35-.08-.72-.12-1.12-.12-.75 0-1.41.15-1.99.45-.58.31-1.06.76-1.43 1.37-.36.58-.62 1.28-.8 2.11-.17.81-.26 1.74-.26 2.78.02.46.04.93.07 1.37zm15.64-1.6V7.99h.02l.3-.02h.32c.14 0 .27.01.38.02.12.02.24.04.36.08.1.03.2.07.29.12.09.05.17.11.24.17.07.07.14.15.2.24.07.1.12.21.18.34.05.12.09.26.11.42a4.365 4.365 0 01-.01 1.24c-.03.19-.07.35-.13.5-.06.15-.12.28-.2.39a1.227 1.227 0 01-.49.46c-.09.05-.19.09-.3.12-.25.07-.51.1-.79.1h-.34l-.14-.01v.01zm-2.33-5.65v12.37h2.34V14.4h.01l.18.01h.39a5.253 5.253 0 001.56-.24 3.702 3.702 0 001.39-.79c.2-.18.39-.4.55-.63.16-.23.3-.49.42-.77.12-.29.21-.6.27-.95.06-.34.09-.7.09-1.08 0-.82-.13-1.5-.38-2.05-.13-.27-.28-.52-.45-.74-.17-.23-.37-.42-.58-.58-.21-.16-.43-.29-.67-.4-.24-.11-.48-.2-.74-.25a6.7 6.7 0 00-1.47-.17c-.18 0-.39 0-.62.01a10.594 10.594 0 00-1.28.12c-.21.04-.41.08-.62.14l-.38.11v.38h-.01zm13.15 5.86c0-.82.05-1.53.16-2.13.1-.57.25-1.04.44-1.4.34-.63.83-.95 1.47-.95.18 0 .35.02.49.07s.27.12.38.21c.13.11.25.24.36.38.11.15.21.33.3.53s.17.43.24.67c.07.25.13.52.17.79a11.24 11.24 0 01.13 1.81c0 1.61-.2 2.79-.6 3.53-.34.63-.84.95-1.49.95-.18 0-.34-.02-.48-.07-.14-.05-.27-.12-.38-.22-.13-.11-.25-.24-.36-.38-.11-.15-.21-.33-.3-.52-.19-.41-.32-.9-.41-1.46-.07-.55-.12-1.16-.12-1.81zm-2.4 0c0 .48.02.95.06 1.39.04.44.09.86.17 1.27.15.83.41 1.53.76 2.12.18.3.39.58.63.81.24.24.5.44.79.61.29.17.62.3.97.38.35.08.72.13 1.1.13.75 0 1.41-.15 1.99-.45.58-.31 1.06-.76 1.44-1.37.36-.58.63-1.28.8-2.11.17-.81.26-1.74.26-2.78 0-.49-.02-.95-.06-1.39-.04-.44-.1-.86-.17-1.27-.16-.82-.41-1.53-.76-2.11a3.94 3.94 0 00-.62-.81c-.24-.24-.5-.45-.79-.61-.3-.17-.62-.3-.97-.38-.35-.08-.72-.12-1.12-.12-.75 0-1.41.15-1.99.45-.58.31-1.06.76-1.43 1.37-.36.58-.62 1.28-.8 2.11-.18.78-.26 1.71-.26 2.76zm25.77-1.64c-.06.5-.09 1.05-.09 1.64 0 .56.03 1.1.08 1.59.05.5.14.95.25 1.37.11.42.24.81.4 1.15.16.36.35.68.55.95.21.28.44.53.7.74.25.21.53.38.84.51.29.13.6.23.91.29.32.07.64.1.98.1.25 0 .51-.01.76-.04s.5-.07.73-.13c.25-.06.48-.14.7-.24.21-.1.41-.23.59-.38l.26-.22-.1-.33-.31-1.06-.2-.7-.6.41c-.09.06-.19.12-.29.17-.11.05-.23.1-.37.15-.13.04-.26.08-.4.1-.14.02-.3.03-.47.03-.38 0-.72-.08-1.02-.25-.31-.17-.58-.43-.81-.78-.25-.36-.44-.83-.56-1.38-.13-.58-.2-1.27-.2-2.07 0-.88.07-1.62.22-2.21.07-.29.16-.55.26-.79.09-.22.2-.42.31-.58.11-.16.24-.31.36-.42.12-.11.25-.2.38-.27.14-.07.28-.12.43-.16.15-.03.3-.05.46-.05.19 0 .37.01.51.02.16.02.3.04.43.07.13.03.25.06.37.11.1.04.2.08.3.13l.59.32.17-.65.31-1.16.12-.43-.41-.18c-.15-.07-.31-.13-.48-.18-.16-.05-.34-.1-.54-.14-.4-.09-.89-.13-1.47-.13a4.579 4.579 0 00-1.77.36c-.29.13-.57.29-.83.5-.26.2-.49.44-.71.72-.22.28-.42.59-.59.94-.17.34-.31.73-.44 1.15-.16.43-.25.9-.31 1.41zm11.71-4.34v12.48h2.34v-5.2l3.02 4.95.16.25h2.86l-.5-.8-3.47-5.57-.03-.05-.05-.05-.3-.3.18-.17.06-.05.04-.06 3.13-5.16.48-.8h-2.7l-.16.26-2.72 4.68V5.87h-2.34v.53zm12.05 0v12.48h1.68l.16-.26 3.98-7.03v7.29h2.34V5.87h-1.67l-.15.27-4.01 7.1V5.87h-2.33v.53zm12.92 0v12.48h1.68l.15-.26 3.99-7.03v7.29h2.34V5.87h-1.67l-.15.27-4.01 7.1V5.87h-2.33v.53zM102.78 40.47V30.21h3.95v-2.23h-6.28v13.01h2.33v-.52zm9.27-4.15c-.09-.57-.14-1.18-.14-1.83 0-.82.05-1.53.16-2.13.1-.57.25-1.04.44-1.4.34-.63.83-.95 1.47-.95.18 0 .35.02.49.07s.27.12.38.22c.13.11.26.24.36.38.11.15.21.33.3.53s.17.43.24.67c.07.25.13.52.17.79a11.24 11.24 0 01.13 1.81c0 1.61-.2 2.79-.6 3.53-.34.63-.84.95-1.49.95-.18 0-.34-.02-.48-.07-.14-.05-.27-.12-.38-.22-.13-.11-.25-.24-.36-.38-.11-.15-.21-.33-.3-.52a6.1 6.1 0 01-.39-1.45zm-2.54-1.83c0 .48.02.95.06 1.39.04.44.09.86.17 1.26.15.83.41 1.53.76 2.12a3.879 3.879 0 001.41 1.42c.29.17.62.3.97.38.35.08.72.13 1.1.13.75 0 1.42-.15 1.99-.45.58-.31 1.06-.76 1.44-1.37.36-.58.63-1.28.8-2.11.17-.81.26-1.74.26-2.78 0-.49-.02-.95-.06-1.4-.04-.44-.1-.86-.17-1.27-.16-.82-.41-1.53-.76-2.11a3.94 3.94 0 00-.62-.81c-.24-.24-.5-.45-.79-.61-.3-.17-.62-.3-.97-.38-.34-.08-.72-.12-1.12-.12-.75 0-1.41.15-1.99.45-.58.31-1.06.76-1.43 1.37-.36.58-.62 1.28-.8 2.11-.17.8-.25 1.73-.25 2.78zm13 0c0 .56.03 1.1.08 1.59.05.5.14.95.25 1.37.11.42.24.81.4 1.15.16.36.35.68.55.95.21.28.44.53.7.74.25.21.53.38.84.51.29.13.6.23.91.29.32.06.64.1.98.1.25 0 .51-.01.76-.04s.5-.07.73-.13c.25-.06.48-.14.7-.24.21-.1.41-.23.59-.38l.26-.22-.1-.33-.31-1.06-.2-.7-.6.41c-.09.06-.19.12-.29.17-.11.05-.23.1-.37.15-.13.04-.26.08-.4.1-.14.02-.3.03-.47.03-.38 0-.72-.08-1.02-.25-.31-.17-.58-.43-.81-.78-.25-.36-.44-.83-.56-1.38-.13-.58-.2-1.27-.2-2.07 0-.88.07-1.62.22-2.21.07-.29.16-.55.26-.79.09-.22.2-.42.31-.58.11-.16.24-.3.36-.42.12-.11.25-.2.38-.27.14-.07.28-.12.43-.16.15-.03.3-.05.46-.05.19 0 .37.01.51.02.16.01.3.04.43.07.13.03.25.06.37.11.1.04.2.08.3.13l.59.32.17-.65.31-1.16.12-.44-.41-.18c-.15-.07-.31-.13-.48-.18-.16-.05-.34-.1-.54-.14-.4-.09-.89-.13-1.47-.13a4.579 4.579 0 00-1.77.36c-.29.13-.57.29-.83.5-.26.2-.49.44-.71.72-.22.28-.42.59-.59.94-.17.34-.31.73-.44 1.15-.13.42-.22.89-.28 1.4-.09.52-.12 1.07-.12 1.66zm10.43-5.79l3.48 8.72c-.05.24-.11.46-.16.65-.07.22-.14.41-.21.55-.05.11-.1.18-.15.22l-.01.01-.14-.01-.17-.03c-.03-.01-.07-.02-.11-.04a.871.871 0 01-.18-.11l-.57-.39-.22.65-.38 1.09-.13.37.31.23c.11.08.23.15.34.21.12.06.25.11.37.14.24.07.54.11.88.11.21 0 .4-.02.59-.07.19-.05.37-.13.53-.23.16-.1.3-.23.44-.39.13-.15.25-.32.36-.51.1-.18.21-.39.31-.63s.2-.5.3-.77c.18-.54.4-1.21.66-2.03l2.44-7.77.21-.68h-2.43l-.11.38-1.64 5.63-2.16-5.67-.13-.34h-2.6l.28.71zm27.74 6.73l.66-2.44.17-.61.17.61.68 2.44.06.22h-1.8l.06-.22zm.02-7.26l-3.61 12.15-.2.67h2.36l.11-.38.85-2.97h2.58l.86 2.97.11.38h2.44l-.2-.67-3.61-12.15-.11-.38h-1.48l-.1.38zm11.42 6.11V30.1h.02l.3-.02h.32c.14 0 .27.01.38.02.12.02.24.04.36.08.1.03.2.07.29.12.09.05.17.11.24.17.07.07.14.15.2.24.07.1.13.21.18.34.05.12.09.26.11.42.03.17.04.36.04.57 0 .26-.02.48-.05.67-.03.19-.07.35-.13.5-.06.15-.12.28-.2.39a1.227 1.227 0 01-.49.46c-.09.05-.19.09-.3.12-.25.07-.51.1-.79.1h-.34l-.14-.01v.01zm-2.34-5.65V41h2.34v-4.49h.01l.18.01h.39a5.253 5.253 0 001.56-.24 3.702 3.702 0 001.39-.79c.2-.18.39-.4.55-.63.16-.23.3-.49.42-.77.12-.29.21-.6.27-.95.06-.34.09-.7.09-1.08 0-.82-.13-1.5-.38-2.05-.13-.27-.28-.52-.45-.74-.17-.23-.37-.42-.58-.58-.21-.16-.43-.29-.67-.4-.24-.11-.48-.2-.74-.25a6.7 6.7 0 00-1.47-.17c-.18 0-.39 0-.62.01a10.594 10.594 0 00-1.28.12c-.21.04-.41.08-.62.14l-.38.11v.38h-.01zm10.84 4.22c-.06.5-.09 1.05-.09 1.64 0 .56.03 1.1.08 1.59.05.5.14.95.25 1.37.11.42.24.81.4 1.15.16.36.35.68.55.95.21.28.44.53.7.74.25.21.53.38.84.51.29.13.6.23.91.29.32.06.65.1.98.1.25 0 .51-.01.76-.04s.5-.07.73-.13c.25-.06.48-.14.7-.24.21-.1.41-.23.59-.38l.26-.22-.09-.33-.31-1.06-.2-.7-.6.41c-.09.06-.19.12-.29.17-.11.05-.23.1-.37.15-.13.04-.26.08-.4.1-.14.02-.3.03-.47.03-.38 0-.72-.08-1.02-.25-.31-.17-.58-.43-.81-.78-.25-.36-.44-.83-.56-1.38-.13-.58-.2-1.27-.2-2.07 0-.88.07-1.62.22-2.21.07-.29.16-.55.26-.79.09-.22.2-.42.31-.58.11-.16.24-.3.36-.42.12-.11.25-.2.38-.27.14-.07.28-.12.43-.16.15-.03.3-.05.46-.05.19 0 .37.01.51.02.16.01.3.04.43.07.13.03.25.06.37.11.1.04.2.08.3.13l.59.32.17-.65.31-1.16.12-.44-.41-.18c-.15-.07-.31-.13-.48-.18-.16-.05-.34-.1-.54-.14-.4-.09-.89-.13-1.47-.13a4.579 4.579 0 00-1.77.36c-.29.13-.57.29-.83.5-.26.2-.49.44-.71.72-.22.28-.42.59-.58.94-.17.34-.31.73-.44 1.15-.17.44-.27.91-.33 1.42zm13.37-2.64v10.78h2.34V30.21h2.94v-2.23h-8.21v2.23h2.93zm11.51 3.08V30.1h.06l.36-.02h.41c.22 0 .43.03.62.08.08.02.16.05.23.09.07.03.13.08.19.12.05.04.1.1.14.16.05.07.09.15.13.24.08.19.11.44.11.75 0 .44-.11.8-.34 1.08-.12.15-.26.29-.41.4-.13.1-.27.18-.41.24l-.14.02-.26.02-.28.01h-.41zm.62 2.17c.15 0 .28.01.41.02.12.01.25.03.39.06a1.405 1.405 0 01.58.24c.07.05.14.12.2.19.07.08.13.18.18.28.11.21.16.52.16.91 0 .16-.01.31-.03.44-.02.13-.05.25-.1.35-.04.1-.09.2-.16.29a1.545 1.545 0 01-.44.43c-.08.05-.17.1-.27.13-.2.07-.43.11-.67.11h-.17l-.18-.01-.19-.01-.19-.02-.14-.01v-3.4h.62zm-2.95-6.85v12.16l.38.11c.1.03.22.06.35.09.12.02.24.04.37.06l.36.04.37.03c.26.02.5.03.71.03h.55c.27 0 .53-.02.79-.06.26-.04.51-.1.76-.17.25-.08.49-.18.71-.3a3.499 3.499 0 001.17-1.01c.16-.22.29-.46.4-.71.11-.26.19-.54.25-.85a5.549 5.549 0 00.03-1.67c-.03-.24-.08-.45-.15-.65-.07-.2-.14-.38-.24-.55-.09-.17-.2-.33-.32-.48a2.73 2.73 0 00-.38-.38c-.1-.09-.22-.16-.33-.23l.03-.02c.13-.12.25-.25.36-.39.11-.14.21-.29.3-.44.09-.16.16-.31.23-.47.06-.17.12-.33.15-.5a4.321 4.321 0 00.12-1c0-.33-.03-.64-.08-.92a2.98 2.98 0 00-.26-.78 2.873 2.873 0 00-.92-1.07 3.48 3.48 0 00-1.24-.5 6.969 6.969 0 00-1.26-.12c-.25 0-.52.01-.8.02-.26.01-.51.03-.75.05-.24.02-.47.05-.67.08-.22.03-.42.06-.59.1l-.42.08v.42h.02zm11.67-.1v12.48h6.45v-2.23h-4.12v-3.32h3.71v-2.23h-3.71v-3h4.04v-2.23h-6.37v.53zm10.95 0v12.48h2.34v-5.52h3.35v5.52h2.34V27.98h-2.34v5.26h-3.35v-5.26h-2.34v.53zm12.78 0v12.48h2.34v-5.52h3.35v5.52h2.34V27.98h-2.34v5.26h-3.35v-5.26h-2.34v.53zm15.12 10.37v-4.13c.17-.03.32-.04.45-.04.14 0 .27.01.4.02.12.02.24.04.36.07.1.03.18.06.26.1.08.04.15.1.22.17.07.06.13.14.18.23.06.1.11.21.16.34.09.27.14.62.14 1.07 0 .41-.04.77-.12 1.06-.08.27-.18.48-.32.64-.14.16-.31.28-.5.36-.2.08-.44.13-.71.13-.22 0-.38-.01-.52-.02zm-2.34-10.37v12.26l.38.11a6.62 6.62 0 001.28.22l.58.03.47.01c.63 0 1.2-.09 1.71-.27.53-.19.98-.47 1.35-.85.75-.75 1.12-1.89 1.12-3.42 0-.38-.02-.74-.07-1.06-.05-.33-.13-.64-.24-.91-.1-.27-.23-.51-.37-.72a2.62 2.62 0 00-.51-.58c-.19-.16-.39-.3-.6-.41-.21-.11-.44-.2-.69-.26-.45-.11-.91-.17-1.4-.17-.13 0-.26.01-.39.02l-.3.04V28h-2.34v.51h.02zm8.33 0v12.48h2.33V27.98h-2.33v.53zm7.09 0v12.48h1.69l.15-.26 3.99-7.03v7.29h2.33V27.98h-1.67l-.15.27-4.01 7.1v-7.37h-2.33v.53zM105.61 58.55l2.44-7.77.21-.68h-2.43l-.11.38-1.64 5.63-2.16-5.67-.13-.34h-2.6l.29.72 3.48 8.72c-.05.24-.11.46-.16.65-.07.22-.14.41-.21.55-.05.11-.1.18-.15.22l-.01.01-.14-.01-.17-.03c-.03-.01-.07-.02-.11-.04a.871.871 0 01-.18-.11l-.57-.39-.23.65-.38 1.09-.13.37.31.23c.11.08.23.15.34.21.12.06.25.11.37.14.24.07.54.11.88.11.21 0 .4-.02.59-.07.19-.05.37-.13.53-.23.15-.1.3-.23.44-.39.13-.15.25-.32.36-.51.1-.18.21-.39.31-.63s.2-.5.3-.77c.19-.55.41-1.23.66-2.04zm6.12-7.93V63.1h2.33v-5.52h3.36v5.52h2.33V50.09h-2.33v5.26h-3.36v-5.26h-2.33v.53zm19.12-.26l-4.01 7.1v-7.37h-2.33V63.1h1.68l.15-.26 3.99-7.03v7.29h2.34V50.09H131l-.15.27zm8.91 5.04v-3.19h.06l.36-.02h.41c.22 0 .43.03.62.08.08.02.16.05.23.09.07.03.13.08.19.12.05.04.1.1.14.16.05.07.09.15.13.24.08.19.11.44.11.75 0 .44-.11.8-.34 1.08-.12.15-.26.29-.41.4-.13.1-.27.18-.42.24l-.14.02-.26.02-.28.01h-.4zm1.41 2.24a1.405 1.405 0 01.58.24c.07.05.14.12.21.19.07.08.13.18.18.28.11.21.16.52.16.91 0 .16-.01.31-.03.44-.02.13-.05.25-.1.35-.04.1-.09.2-.16.29-.06.09-.12.17-.19.24-.07.07-.15.13-.24.19-.08.05-.17.1-.27.13-.2.07-.43.11-.67.11h-.17l-.18-.01-.19-.01-.19-.01-.14-.01v-3.4h.62c.15 0 .28.01.41.02.11.01.24.02.37.05zm-3.75-6.92v12.16l.38.11c.1.03.22.06.35.08.12.02.24.04.37.06l.36.04.37.03c.26.02.5.03.71.03h.56c.27 0 .53-.02.79-.06.26-.04.51-.1.76-.17.25-.08.49-.18.71-.3a3.499 3.499 0 001.17-1.01c.16-.22.29-.46.4-.71.11-.26.19-.54.25-.85a5.549 5.549 0 00.03-1.67c-.03-.24-.08-.45-.15-.65-.07-.2-.14-.38-.24-.55-.09-.17-.2-.33-.32-.48a2.73 2.73 0 00-.38-.38c-.11-.09-.22-.16-.33-.23l.03-.02a3.328 3.328 0 00.65-.83c.09-.16.16-.31.23-.47.06-.17.12-.33.16-.5a4.321 4.321 0 00.12-1c0-.33-.03-.64-.08-.92a2.98 2.98 0 00-.26-.78 2.873 2.873 0 00-.92-1.07 3.48 3.48 0 00-1.24-.5 6.969 6.969 0 00-1.26-.12c-.25 0-.52.01-.8.02-.26.01-.51.03-.75.05-.24.02-.47.05-.67.08-.22.03-.42.06-.59.1l-.42.08v.43h.01zm11.67-.1V63.1h6.46v-2.23h-4.12v-3.32h3.71v-2.23h-3.71v-3h4.03v-2.23h-6.37v.53zm13.29 5.77v-4.18h.02l.3-.02h.32c.14 0 .27.01.38.02.12.02.24.04.36.08.1.03.2.07.29.12.09.05.17.11.24.17.07.07.14.15.2.24.07.1.12.21.18.34.05.12.09.26.11.42.03.17.04.36.04.57 0 .25-.01.48-.05.67-.03.19-.07.35-.13.5-.06.15-.12.28-.2.39a1.227 1.227 0 01-.49.46c-.09.05-.19.09-.3.12-.25.07-.51.1-.79.1h-.34l-.14-.01v.01zm-2.33-5.65v12.37h2.34v-4.49h.01l.18.01h.39a5.253 5.253 0 001.56-.24 3.702 3.702 0 001.39-.79c.2-.18.39-.4.55-.64.16-.23.3-.49.42-.77.12-.29.21-.6.27-.95.06-.34.09-.7.09-1.08 0-.82-.13-1.5-.38-2.05-.13-.27-.28-.52-.45-.74-.17-.23-.37-.42-.58-.58-.21-.16-.43-.29-.67-.4-.24-.11-.48-.2-.74-.25a6.7 6.7 0 00-1.47-.17c-.18 0-.39.01-.62.01a10.594 10.594 0 00-1.28.12c-.21.04-.41.08-.62.14l-.38.11v.39h-.01zm10.74 5.86c0 .56.03 1.1.08 1.59.05.5.14.95.25 1.37.11.42.24.81.4 1.15.16.36.35.68.55.95.21.28.44.53.7.74.25.21.53.38.84.51.29.13.6.23.91.29.32.07.65.1.98.1.25 0 .51-.01.76-.04s.5-.07.73-.13c.25-.06.48-.14.7-.24.21-.1.41-.23.59-.38l.26-.22-.1-.33-.31-1.06-.2-.7-.6.41c-.09.06-.19.12-.29.17-.11.05-.23.1-.37.15-.13.04-.26.08-.4.1-.14.02-.3.03-.47.03-.38 0-.73-.08-1.02-.25-.31-.17-.58-.43-.81-.78-.25-.36-.44-.83-.56-1.38-.13-.58-.2-1.27-.2-2.07 0-.88.07-1.62.22-2.21.07-.29.16-.55.26-.79.09-.22.2-.42.31-.58.11-.16.24-.31.36-.42.12-.11.25-.2.38-.27.14-.07.28-.12.43-.16.15-.03.3-.05.46-.05.19 0 .37.01.51.02.16.01.3.04.43.07.13.03.25.06.37.11.1.04.2.08.3.13l.59.32.17-.65.31-1.16.12-.44-.41-.18c-.15-.07-.31-.13-.48-.18-.16-.05-.34-.1-.54-.14-.4-.09-.89-.13-1.47-.13a4.579 4.579 0 00-1.77.36c-.29.13-.57.29-.83.5-.26.2-.49.44-.71.72-.22.28-.42.59-.59.94-.17.34-.31.73-.44 1.15-.13.42-.22.89-.28 1.4-.09.52-.12 1.07-.12 1.66zm11.81-5.98V63.1h1.69l.15-.26 3.99-7.03v7.29h2.33V50.09h-1.67l-.15.27-4 7.1v-7.37h-2.34v.53zm15 1.7V63.1h2.34V52.32h2.94v-2.23h-8.22v2.23h2.94zm9.18-1.7V63.1h6.45v-2.23h-4.12v-3.32h3.71v-2.23h-3.71v-3h4.03v-2.23h-6.36v.53zm13.04 1.7V63.1h2.33V52.32h2.94v-2.23h-8.21v2.23h2.94zm-34-44.22a46.39 46.39 0 01-.14 2.87c-.06.65-.12 1.24-.18 1.78-.07.54-.14 1.02-.21 1.44-.08.44-.15.81-.22 1.13-.07.31-.14.58-.22.8l-.18.53h-1.17v4.44h1.92l.04-.48.16-1.72h5.67l.16 1.72.04.48h1.92v-4.44h-1.25V5.87h-7.45v2.24h1.11V8.1zm2.14 2.93c.06-.87.11-1.85.14-2.93h1.71v8.55h-2.73c.07-.24.14-.51.2-.8.14-.6.26-1.3.38-2.08.12-.79.22-1.7.3-2.74zm82.98 14.04c-.52 0-.74-.14-.74-.59h-1.78c0 1.14.92 2.26 2.52 2.26 1.49 0 2.5-1.11 2.47-2.26h-1.78c0 .5-.24.59-.69.59zM41.98 6.96l-.05-.05-.04-.06-.04-.06-.03-.06-.02-.07-.02-.07-.01-.07v-.14l.01-.07.02-.07.02-.07.03-.06.03-.06v-.01l.04-.05.01-.01.01-.01.03-.03.01-.01.05-.05.06-.04.06-.04.06-.03.07-.02.07-.02.07-.01h.14l.07.01.07.02.07.02.07.03.06.04.06.04.05.05.05.05.04.06.04.06.03.06.02.07.02.07.01.07v.14l-.01.07-.02.07-.02.07-.03.07-.04.06-.04.06-.05.05-.01.01-.03.03-.01.01-.01.01-.05.04h-.01l-.06.03-.06.03-.07.02-.07.02-.07.01h-.14l-.07-.01-.07-.02-.07-.02-.06-.03-.06-.04-.06-.04-.05-.05zm-8.19 19.98v-.85l-.03-.02-.14-.08-.02-.01-1.42-.82-.02-.02-.01-.02-.01-.02-.01-.02v-.01c.15-.33.3-.67.45-1 .16-.35.32-.68.48-1.01.16-.33.33-.66.5-1 .17-.34.35-.67.53-.99.17-.31.35-.64.54-.97.19-.33.38-.65.57-.97.2-.32.39-.64.59-.95l.6-.93c.24-.36.48-.71.72-1.06a58.726 58.726 0 011.5-2.06c.26-.35.53-.68.79-1.01.25-.32.52-.64.8-.98l.83-.98c.26-.3.52-.59.78-.88.22-.25.45-.5.69-.75.24.25.47.5.69.75.26.29.52.58.78.88.28.32.55.64.83.98.28.33.55.66.8.98.26.33.52.66.79 1.01.26.34.52.68.76 1.02.25.34.49.68.74 1.04.24.34.48.7.72 1.06.21.31.41.62.6.94.2.31.39.63.58.95.19.32.38.64.57.97.19.33.37.66.54.97.18.33.35.66.53.99.18.34.34.67.5 1 .16.33.32.66.48 1.01.15.33.3.67.45 1v.01l-.01.02-.01.02-.01.02-.01.02-.01.01-1.41.82-.02.01-.1.06-.07.04v12.12h2.41V27.5l1.28-.74h.01l.01-.01.01-.01.08-.06h.01l.01-.01.01-.01.08-.07.01-.01h.01c.05-.05.09-.1.13-.15.04-.06.08-.11.11-.17.03-.06.06-.12.08-.18.02-.06.04-.13.06-.19l.03-.2c0-.07.01-.13 0-.2 0-.07-.01-.13-.03-.2a.603.603 0 00-.06-.19v-.02a61.35 61.35 0 00-1.06-2.36c-.19-.39-.37-.78-.56-1.15-.19-.37-.38-.75-.58-1.14-.2-.38-.4-.75-.61-1.13-.21-.38-.42-.75-.64-1.12-.22-.37-.44-.74-.68-1.11-.23-.37-.47-.74-.72-1.12-.23-.34-.46-.69-.7-1.03-.24-.35-.48-.69-.72-1.02-.23-.32-.48-.65-.74-1-.26-.34-.51-.67-.77-1-.26-.33-.52-.65-.78-.97-.27-.33-.54-.65-.8-.95-.25-.29-.5-.58-.75-.86-.23-.25-.45-.51-.69-.76l.08-.09c.05-.06.1-.13.15-.2l.15-.24c.05-.08.09-.17.12-.25.04-.09.07-.17.09-.26.03-.09.05-.18.07-.27.02-.09.03-.18.04-.28.01-.09.01-.19.01-.28 0-.09-.01-.18-.01-.28a2.358 2.358 0 00-.11-.55 7.71 7.71 0 00-.09-.26c-.03-.08-.07-.16-.12-.25-.04-.08-.09-.16-.14-.23l-.1-.14-.02-.03.02-.02-.1-.1-.14-.14-.02-.02c-.06-.06-.13-.13-.21-.19-.07-.06-.15-.12-.23-.17l-.24-.15c-.08-.04-.17-.08-.25-.12-.09-.04-.18-.07-.26-.09a2.68 2.68 0 00-.55-.11c-.1-.01-.19-.01-.28-.01-.09 0-.18.01-.28.01a2.358 2.358 0 00-.55.11l-.27.09c-.08.03-.17.07-.25.12-.08.04-.16.09-.24.15-.08.05-.16.11-.23.17-.07.06-.14.12-.21.19-.06.06-.13.13-.19.21-.06.07-.11.15-.17.23-.05.08-.1.16-.14.24-.05.08-.09.17-.12.25-.04.09-.07.17-.09.26-.03.09-.05.18-.07.27-.02.09-.03.18-.04.28-.01.1-.01.19-.01.28a2.715 2.715 0 00.05.56c.02.09.04.18.07.27.03.09.06.18.09.26.04.09.08.17.12.25.04.08.09.16.14.24.05.07.1.14.15.2l.08.09c-.23.25-.46.5-.68.76-.25.28-.5.57-.76.86l-.8.95c-.26.32-.52.64-.78.97-.26.33-.52.66-.77 1-.26.34-.51.68-.74 1-.24.33-.48.67-.72 1.02-.24.34-.47.69-.7 1.03-.25.37-.49.75-.72 1.12a40.656 40.656 0 00-1.32 2.23c-.21.38-.41.75-.61 1.13-.2.38-.4.76-.58 1.14-.19.38-.37.76-.56 1.15-.18.38-.36.77-.54 1.17-.18.4-.35.8-.52 1.19v.02c-.02.06-.04.13-.06.19l-.03.2v.2c0 .07.01.13.03.2.01.06.03.13.06.19.02.06.05.13.08.18.03.06.07.11.11.17.04.06.09.11.13.15l.01.01.06.06.01.01h.01l.08.06.01.01.01.01h.02l.01.01 1.28.74v10.73h2.41V26.94z" fill="#fff"/><path fill-rule="evenodd" clip-rule="evenodd" d="M54.5 74.9l3.82-2.3c.26-.16.53-.29.8-.42.28-.12.56-.23.84-.31.29-.09.58-.16.87-.21.3-.05.59-.08.89-.1.2-.01.41-.01.61 0 .21.01.41.02.61.05.16.02.33.05.49.08.12.02.23.05.35.08.03-.11.06-.23.1-.34.05-.16.1-.32.16-.47.07-.19.16-.38.24-.56.09-.18.18-.36.29-.54.15-.26.32-.5.51-.74a7.73 7.73 0 011.26-1.27c.23-.18.48-.35.74-.51l.49-.3 1.78-1.07 1.55-.93-7.1-11.81-3.42 2.06-.4.24c-.18.11-.34.22-.5.34-.16.13-.31.26-.45.4l-.15.16-.14.16c-.08.1-.16.2-.24.31-.08.11-.15.22-.21.33-.11.18-.2.36-.28.55-.08.19-.15.38-.21.58-.05.15-.08.3-.11.45-.03.15-.05.3-.07.46l-.01.07-.06.04-1.78 1.07-.06.04-.07-.03c-.14-.06-.29-.11-.44-.15-.15-.05-.3-.08-.45-.11-.2-.04-.4-.07-.61-.08-.2-.02-.41-.02-.61-.01h-.03c-.2.01-.39.03-.59.07-.2.03-.39.08-.59.14a4.793 4.793 0 00-1.11.49l-3.82 2.3L54.5 74.9zM39.38 59.54l.04.08c.04.08.08.15.11.23.07.17.12.35.16.53.04.18.05.36.05.55 0 .19-.02.37-.05.55-.04.18-.09.36-.16.53-.14.35-.35.66-.61.92l-.15.15-.1.1-.02-.02c-.08.06-.17.12-.26.18-.12.07-.24.14-.38.19L52.18 81.5c.96-.24 1.9-.51 2.83-.81.97-.32 1.92-.67 2.85-1.05a39.44 39.44 0 006.12-3.18 39.84 39.84 0 005.43-4.13 26.571 26.571 0 00-.99-3.07l-.12.08c-.18.11-.34.22-.5.34-.16.13-.31.26-.45.4s-.28.3-.4.46c-.12.16-.24.33-.34.5-.11.18-.2.36-.28.55-.08.19-.15.38-.21.58-.05.15-.08.3-.11.45-.03.15-.05.3-.07.46l-.01.07-.06.04-1.67 1-.11.07-.06.04-.07-.03c-.14-.06-.29-.11-.44-.15-.15-.05-.3-.08-.45-.11-.2-.04-.4-.07-.61-.08-.2-.02-.41-.02-.61-.01h-.02c-.2.01-.39.03-.59.07-.2.03-.39.08-.59.14-.19.06-.38.13-.57.21-.18.08-.36.18-.54.28l-4.83 2.9-.71.42-.18.11-.12.07-.07-.12-.11-.18-.43-.71-8.3-13.82-.42-.71-.11-.18-.07-.12.12-.07.18-.11.71-.43 4.83-2.9c.26-.16.53-.29.8-.41.28-.12.56-.23.84-.31.29-.09.58-.16.87-.21.3-.05.59-.08.9-.1.2-.01.41-.01.61 0 .21.01.41.02.61.05.16.02.33.04.49.08.12.02.23.05.35.08.03-.11.06-.23.1-.34.05-.16.1-.32.16-.47.07-.19.15-.38.24-.56.09-.18.19-.36.29-.54.08-.13.16-.26.25-.39l.17-.24c-.61-.37-1.24-.71-1.89-1.03-.67-.33-1.35-.63-2.05-.91l-13.39 6.07zM50.81.81a42.865 42.865 0 00-16.6 0c-2.76.55-5.42 1.36-7.95 2.41a42.112 42.112 0 00-7.35 3.93 42.782 42.782 0 00-6.46 5.3 42.187 42.187 0 00-5.3 6.46c-1.54 2.3-2.86 4.76-3.93 7.35-1.05 2.54-1.86 5.2-2.41 7.96a42.865 42.865 0 000 16.6c.55 2.76 1.36 5.42 2.41 7.95 1.07 2.59 2.39 5.05 3.93 7.35 1.56 2.33 3.33 4.49 5.3 6.46a42.436 42.436 0 0021.76 11.64 42.865 42.865 0 0012.75.58c1.49-.15 2.95-.39 4.39-.69.37-.08.74-.16 1.12-.25.38-.09.75-.19 1.11-.28.89-.24 1.76-.5 2.63-.8.87-.29 1.72-.62 2.57-.97 2.08-.86 4.07-1.88 5.97-3.04 1.91-1.18 3.73-2.5 5.42-3.95.31-.26.61-.53.91-.81.3-.28.6-.55.89-.83l.31-.3.31-.3c1.97-1.97 3.75-4.13 5.3-6.46 1.54-2.3 2.86-4.76 3.93-7.35 1.05-2.54 1.86-5.2 2.41-7.95a42.865 42.865 0 000-16.6c-.55-2.76-1.36-5.42-2.41-7.95a42.112 42.112 0 00-3.93-7.35 42.782 42.782 0 00-5.3-6.46 42.187 42.187 0 00-6.46-5.3c-2.3-1.54-4.76-2.86-7.35-3.93A42.675 42.675 0 0050.81.81zm-13.6 59.42a.737.737 0 00-.14-.04c-.05-.01-.1-.01-.15-.01-.05 0-.1.01-.15.01-.05.01-.1.02-.14.04-.05.02-.09.04-.13.07-.04.03-.08.06-.12.1l-.04.04-.01.01a.55.55 0 00-.07.09.737.737 0 00-.09.24c-.01.05-.01.1-.01.15 0 .05.01.1.01.15.01.05.02.1.04.14.02.05.04.09.07.13l.09.12c.03.03.07.07.12.09.04.03.09.05.13.07a.737.737 0 00.29.05c.05 0 .1-.01.15-.01.05-.01.1-.02.14-.04.04-.01.07-.03.1-.05a.55.55 0 00.09-.07l.01-.01.04-.04c.03-.03.07-.07.09-.12a.737.737 0 00.11-.27c.01-.05.01-.1.01-.15 0-.05-.01-.1-.01-.15a.573.573 0 00-.04-.14.539.539 0 00-.07-.13l-.09-.12a.634.634 0 00-.12-.1c-.02 0-.06-.03-.11-.05zm-7.43-5.62c-1.36.7-2.66 1.52-3.88 2.43a28.109 28.109 0 00-6.01 6.14l14.32-1.38c-.03-.11-.06-.22-.08-.33-.03-.17-.05-.35-.05-.53 0-.19.02-.37.05-.55a2.986 2.986 0 01.36-.93c.06-.09.12-.18.18-.26l-.02-.02.1-.1.15-.15a2.866 2.866 0 01.92-.61c.11-.04.22-.08.33-.11l.16-.04-2.45-5.28c-1.4.46-2.77 1.04-4.08 1.72zM3.1 34.67a39.34 39.34 0 012.28-7.51c1.01-2.44 2.26-4.77 3.71-6.94 1.47-2.19 3.15-4.24 5.01-6.1 1.86-1.86 3.91-3.54 6.1-5.01a40.154 40.154 0 0114.45-5.99c2.54-.5 5.16-.77 7.85-.77 2.69 0 5.31.26 7.85.77 2.61.52 5.12 1.28 7.51 2.28 2.44 1.01 4.77 2.26 6.94 3.71 2.19 1.47 4.24 3.15 6.1 5.01 1.86 1.86 3.54 3.91 5.01 6.1a40.154 40.154 0 015.99 14.45c.5 2.54.77 5.16.77 7.85 0 2.69-.26 5.31-.77 7.85a39.34 39.34 0 01-2.28 7.51 40.084 40.084 0 01-8.3 12.61c-.12-.39-.25-.79-.39-1.18-.15-.43-.31-.86-.48-1.27l2.66-1.6.71-.43.18-.11.12-.07-.07-.12-.11-.18-.42-.71L65.22 51l-.43-.71-.11-.18-.07-.12-.12.07-.18.11-.71.42-4.83 2.9-.21.13-.13.08c-.55-.34-1.11-.67-1.69-.98-.6-.32-1.21-.62-1.83-.91l-.53-.23-.53-.22-.53-.21-.54-.2-.08-.03-.05-.02-.05.02-.08.03-14.02 6.37-3.26-7.01-.07-.16-.05-.11-.11.03-.17.04c-1.29.34-2.54.76-3.76 1.26-1.23.5-2.42 1.09-3.57 1.75-1.15.66-2.26 1.4-3.31 2.21a30.032 30.032 0 00-5.38 5.32 29.8 29.8 0 00-2.05 2.94l-.03.06c-.1.16-.18.29-.22.45-.05.16-.06.33-.01.57.01.06.03.13.05.19.02.06.05.12.08.18s.07.11.1.16a1.503 1.503 0 00.43.38c.1.06.21.09.32.11.1.02.2.02.3.02.1 0 .2-.01.31-.02l17.28-1.67 14.21 18.02a40.951 40.951 0 01-7.12.63c-2.69 0-5.31-.26-7.85-.77a39.34 39.34 0 01-7.51-2.28 40.154 40.154 0 01-6.94-3.71 40.755 40.755 0 01-6.1-5.01 40.755 40.755 0 01-5.01-6.1 40.154 40.154 0 01-5.99-14.45c-.5-2.54-.77-5.16-.77-7.85.03-2.67.3-5.29.8-7.83z" fill="#fff"/><path fill-rule="evenodd" clip-rule="evenodd" d="M35.1 31.5l-.03.82v.03l-.01.21v.14h.14l.21.01h.03l3.79.14v5.21l.02.03c.19.35.43.69.68.99.21.25.42.49.63.7-.87.54-1.8 1.02-2.75 1.44-1.01.45-2.04.85-3.05 1.19-1.04.36-2.04.66-2.96.92-.93.26-1.77.48-2.46.65l-.37.1h-.01l-.02.01-.02.01-.01.01a.984.984 0 00-.38.39c-.04.08-.07.17-.09.26-.02.09-.02.19-.01.28l.01.11.03.11.03.11.04.1.05.09.06.09.06.08.07.08c.05.05.1.09.15.13.05.04.11.07.17.09.06.02.12.04.19.04.06 0 .12-.01.17-.02.39-.05.78-.11 1.16-.17.39-.07.78-.14 1.17-.22.4-.08.79-.18 1.19-.28.4-.1.81-.21 1.22-.34.42-.12.84-.26 1.27-.4.43-.14.87-.3 1.34-.47.47-.17.94-.35 1.43-.54.48-.19.99-.39 1.53-.62l.43-.18.42-.18.41-.18.39-.18.38-.19c.13-.07.25-.14.38-.2l.35-.21.28-.18c.64.3 1.26.57 1.84.83.61.27 1.19.52 1.75.75.57.24 1.11.45 1.64.65.53.2 1.03.38 1.53.55.5.17.98.32 1.45.46s.94.27 1.4.38c.46.11.92.21 1.37.3.45.09.9.17 1.35.23.05.02.11.03.17.02.06 0 .13-.01.19-.03.06-.02.12-.05.17-.09.05-.04.11-.08.16-.13l.07-.08.06-.08.06-.09.05-.09.05-.1.04-.11.03-.11.02-.11c.01-.09.01-.19-.01-.28a.823.823 0 00-.24-.48.984.984 0 00-.22-.17l-.01-.01-.02-.01-.02-.01h-.02l-.37-.1c-.87-.24-1.95-.54-3.14-.91-1.19-.37-2.48-.82-3.76-1.35-1.25-.52-2.51-1.12-3.66-1.81-1.14-.68-2.18-1.45-3.04-2.33v-6.7l-.14-.01-.2-.01h-.03l-5.75-.21h-.03l-.2-.01h-.14l-.01.14-.01.21v.03l-.09.86z" fill="#fff"/><path fill-rule="evenodd" clip-rule="evenodd" d="M44.15 30.97l.09 1.65v.03l.01.21V33l.15-.01.2-.01h.03l4.95-.26h.03l.21-.01.14-.01v-.14l-.02-.21v-.03l-.08-1.65-.01-.03v-.21l-.01-.14-.14.01-.21.01h-.03l-4.95.26h-.03l-.21.01-.14.01.01.14.01.21v.03zM42.5 51.21c-.24 0-.47-.03-.71-.08a4.5 4.5 0 01-.76-.25c-.27-.12-.53-.26-.8-.42-.27-.17-.54-.37-.8-.58a9.346 9.346 0 01-2.11-2.46c-.17-.29-.31-.57-.42-.85l-.01-.03-.04-.09-.05-.13-.13.05-.1.04-.03.01-1.58.57-.03.01-.1.04-.13.05.05.13.03.1.01.03c.14.39.32.78.52 1.16a10.834 10.834 0 001.65 2.27c.34.36.69.71 1.06 1.02.37.32.76.62 1.15.87.39.26.78.48 1.16.67.38.18.76.32 1.12.42.36.09.7.14 1.02.14.32 0 .66-.05 1.02-.14.36-.1.74-.24 1.12-.42.38-.18.77-.41 1.16-.67.39-.26.78-.55 1.15-.87.36-.31.72-.66 1.06-1.02.33-.36.64-.73.92-1.11.27-.37.52-.76.73-1.16.21-.38.38-.77.52-1.16l.01-.03.03-.1.05-.13-.13-.05-.1-.03-.03-.01-1.58-.57-.03-.01-.09-.03-.13-.05-.05.13-.04.09-.01.03c-.11.27-.25.56-.42.85a9.014 9.014 0 01-1.31 1.72c-.25.26-.52.51-.8.74-.26.21-.53.41-.8.58-.26.16-.53.31-.8.43-.25.11-.51.2-.76.25-.19.02-.42.05-.66.05z" fill="#fff"/></svg>