<svg width="117" height="110" fill="none" xmlns="http://www.w3.org/2000/svg"><path fill-rule="evenodd" clip-rule="evenodd" d="M116.294 45.927a10.498 10.498 0 01-2.013 3.58 8.867 8.867 0 01-3.155 2.31c-1.291.553-2.683.83-4.088.812a11.187 11.187 0 01-3.881-.75 8.688 8.688 0 01-3.155-2.123 10.179 10.179 0 01-2.137-3.538 14.187 14.187 0 01-.789-4.952c-.011-1.501.2-2.995.624-4.434a10.487 10.487 0 011.868-3.6 8.878 8.878 0 013.113-2.435 9.985 9.985 0 014.358-.895c1.514-.036 3.017.27 4.398.895a8.986 8.986 0 013.113 2.414 9.982 9.982 0 011.847 3.6 16 16 0 01.602 4.454 14.492 14.492 0 01-.705 4.662zm-2.366-8.241a8.5 8.5 0 00-1.286-2.893 6.207 6.207 0 00-2.242-1.935 7.268 7.268 0 00-3.362-.707 6.8 6.8 0 00-3.341.769 6.554 6.554 0 00-2.262 2.04 8.954 8.954 0 00-1.286 2.913 13.763 13.763 0 00-.415 3.392 13.466 13.466 0 00.477 3.684 8.618 8.618 0 001.39 2.892 6.221 6.221 0 002.283 1.873c.987.46 2.066.688 3.154.666a6.795 6.795 0 003.341-.77 6.467 6.467 0 002.263-2.06 9.24 9.24 0 001.286-2.913c.279-1.102.419-2.234.415-3.371a14.782 14.782 0 00-.415-3.58zM91.64 52.628c-1.246 0-2.193-.312-2.844-.936-.65-.624-.974-1.741-.974-3.35V32.566h-3.03v-2.081h3.03v-5.992h2.49v5.993h4.026v2.081h-4.026v14.776c0 .527.014.985.041 1.373.013.334.098.66.25.958.14.252.37.445.643.54.395.127.81.184 1.224.167.34 0 .68-.028 1.017-.083.345-.055.684-.124 1.017-.207v2.037c-.305.056-.707.153-1.204.292-.541.144-1.1.214-1.66.207zm-11.975-3.121a8.871 8.871 0 01-3.154 2.31 10.05 10.05 0 01-4.088.811 11.179 11.179 0 01-3.881-.749 8.684 8.684 0 01-3.155-2.123 10.18 10.18 0 01-2.137-3.538 14.187 14.187 0 01-.789-4.952c-.011-1.5.198-2.994.623-4.433a10.48 10.48 0 011.867-3.6 8.88 8.88 0 013.113-2.435 9.988 9.988 0 014.359-.895 10.09 10.09 0 014.399.895 8.986 8.986 0 013.113 2.414 9.982 9.982 0 011.847 3.6 15.98 15.98 0 01.602 4.454 14.462 14.462 0 01-.706 4.661 10.502 10.502 0 01-2.013 3.58zm-.353-11.821a8.505 8.505 0 00-1.286-2.893 6.196 6.196 0 00-2.242-1.935 7.269 7.269 0 00-3.362-.707 6.802 6.802 0 00-3.34.769 6.544 6.544 0 00-2.263 2.04 8.975 8.975 0 00-1.286 2.913 13.791 13.791 0 00-.416 3.392 13.52 13.52 0 00.478 3.684 8.634 8.634 0 001.39 2.892 6.221 6.221 0 002.283 1.873c.987.46 2.066.688 3.154.666a6.795 6.795 0 003.342-.77 6.466 6.466 0 002.262-2.06 9.253 9.253 0 001.286-2.913 13.58 13.58 0 00.415-3.371 14.792 14.792 0 00-.415-3.58zM64.371 68.725a7.717 7.717 0 013.3-3.018 9.896 9.896 0 014.378-1.02 9.123 9.123 0 014.254.936 8.743 8.743 0 012.989 2.498 10.76 10.76 0 011.764 3.642c.39 1.409.585 2.865.58 4.328a17.701 17.701 0 01-.539 4.454 9.773 9.773 0 01-1.722 3.6 8.274 8.274 0 01-3.01 2.393c-1.396.62-2.914.918-4.44.874a8.119 8.119 0 01-2.117-.29 10.003 10.003 0 01-2.096-.834 8.415 8.415 0 01-1.868-1.352 6.75 6.75 0 01-1.39-1.894h-.083v3.788h-2.49V56.862h2.49v11.863zm.477 10.884a8.875 8.875 0 001.39 2.913 6.55 6.55 0 002.283 1.935 6.676 6.676 0 003.113.708c.996.01 1.985-.18 2.906-.562a6.647 6.647 0 002.324-1.644 7.683 7.683 0 001.556-2.643c.393-1.159.583-2.377.561-3.6.062-1.279-.05-2.56-.332-3.809a9.116 9.116 0 00-1.328-3.1 6.593 6.593 0 00-2.345-2.101 6.954 6.954 0 00-3.341-.77 6.318 6.318 0 00-3.05.729A7.046 7.046 0 0066.3 69.62a9.018 9.018 0 00-1.432 2.872 11.93 11.93 0 00-.498 3.475c-.01 1.23.15 2.455.477 3.64zm-9.484-41.632c0-1.942-.43-3.399-1.287-4.37-.858-.972-2.283-1.457-4.275-1.457a6.065 6.065 0 00-2.117.355 6.663 6.663 0 00-1.723.937 6.264 6.264 0 00-2.137 2.913 7.952 7.952 0 00-.456 1.998 23.737 23.737 0 00-.083 2.08v11.613h-2.49V22.078h2.49v11.404a15.821 15.821 0 013.092-2.58 7.095 7.095 0 013.84-.999 9.776 9.776 0 013.693.687 6.31 6.31 0 012.863 2.393c.5.71.82 1.531.934 2.393.098.85.147 1.704.145 2.56v14.11h-2.49V37.977zM43.97 65.08a13.374 13.374 0 013.3-.395 12.7 12.7 0 013.05.355 7.07 7.07 0 012.49 1.125 5.224 5.224 0 011.661 2.06c.428.998.634 2.077.602 3.163v11.737c0 .972.173 1.59.519 1.852.345.263 1.044.201 2.095-.187v1.956c-.194.056-.477.139-.85.25a3.873 3.873 0 01-1.1.166 4.94 4.94 0 01-1.122-.124 1.92 1.92 0 01-.996-.396 2.424 2.424 0 01-.602-.749c-.155-.3-.26-.623-.312-.957a6.976 6.976 0 01-.082-1.103 10.817 10.817 0 01-3.611 2.663 10.602 10.602 0 01-4.398.915 9.822 9.822 0 01-2.72-.374 6.571 6.571 0 01-2.302-1.165 5.774 5.774 0 01-1.575-1.935 5.95 5.95 0 01-.582-2.726c0-3.663 2.505-5.827 7.513-6.493l3.445-.458a32.9 32.9 0 001.68-.25 6.32 6.32 0 001.599-.457 1.321 1.321 0 00.767-.979 6.15 6.15 0 00.146-1.269 4.27 4.27 0 00-1.225-3.142c-.816-.818-2.193-1.228-4.13-1.228-.794-.006-1.587.07-2.365.229a5.14 5.14 0 00-1.89.79 4.357 4.357 0 00-1.328 1.499 6.36 6.36 0 00-.685 2.352H38.43a7.727 7.727 0 01.871-3.268 6.627 6.627 0 011.93-2.206 8.017 8.017 0 012.74-1.25zm5.416 11.3c-1.079.14-2.158.251-3.237.334-1.909.139-3.396.569-4.462 1.29-1.066.721-1.598 1.817-1.598 3.288-.015.6.12 1.194.395 1.727a3.63 3.63 0 001.037 1.207c.449.33.956.57 1.495.708a6.6 6.6 0 001.722.229c.98.002 1.957-.124 2.905-.375a7.844 7.844 0 002.511-1.144 5.844 5.844 0 001.765-1.955c.46-.864.69-1.832.664-2.811v-3.37c-1.02.436-2.096.73-3.196.874v-.001zM32.703 37.125a11.331 11.331 0 01-3.673 1.311c-1.363.25-2.745.375-4.13.375h-6.392v13.236h-2.823V22.078h10.916c1.936 0 3.534.222 4.794.666a7.423 7.423 0 012.988 1.831 6.464 6.464 0 011.535 2.685c.294 1.035.44 2.107.436 3.184 0 1.665-.34 3.038-1.017 4.12a7.516 7.516 0 01-2.634 2.56zM31.688 25.95c-1.232-.971-3.19-1.457-5.874-1.457h-7.305v11.904h6.474a23 23 0 003.57-.25 7.11 7.11 0 002.677-.936 4.639 4.639 0 001.701-1.873 6.874 6.874 0 00.602-3.101c0-1.887-.615-3.316-1.847-4.287h.002zM2.965 16.054H0V0h16.004v2.973H2.964v13.081zM15.81 56.862h2.822v27.553h16.021v2.414H15.81V56.862zM2.964 107.027h13.04V110H0V93.946h2.964v13.081z" fill="#fff"/></svg>