<svg width="235" height="207" fill="none" xmlns="http://www.w3.org/2000/svg"><path d="M146.139 99.755H93.454V88.347l24.268-25.513c5.981-6.81 8.971-12.22 8.971-16.23 0-3.25-.709-5.721-2.126-7.415-1.417-1.694-3.474-2.541-6.171-2.541-2.661 0-4.822 1.14-6.481 3.422-1.66 2.247-2.489 5.065-2.489 8.453H91.899c0-4.633 1.158-8.902 3.474-12.809 2.316-3.94 5.531-7.017 9.645-9.23 4.114-2.212 8.712-3.318 13.793-3.318 8.159 0 14.433 1.884 18.823 5.652 4.425 3.768 6.638 9.178 6.638 16.23 0 2.973-.553 5.877-1.66 8.712-1.106 2.8-2.834 5.756-5.185 8.867-2.316 3.077-6.067 7.208-11.252 12.393l-9.749 11.252h29.713v13.483z" fill="#fff"/><path d="M88.356 136.914a29.004 29.004 0 00-1.221-1.139c-.222-.198-.402-.344-.63-.538a25.47 25.47 0 00-.657-.523 40.943 40.943 0 00-2.683-1.841c-1.801-1.152-3.608-2.218-5.387-3.322a107.842 107.842 0 01-3.077-1.969c-.095-2.376-.108-5.092-.937-6.607-1.128-2.052-3.43-4.116-5.532-5.344-.013 2.261.53 5.87 1.653 7.921.205.377.47.767.763 1.163a60.906 60.906 0 01-3.025-2.447 49.068 49.068 0 01-2.633-2.457c.72-2.859 2.01-6.431 1.563-8.684-.528-2.662-2.348-5.791-4.245-7.923-.802 2.46-1.463 6.597-.93 9.26.348 1.749 1.41 3.936 2.26 5.933a42.918 42.918 0 01-4.31-5.491 41.206 41.206 0 01-2.588-4.546c1.447-2.556 3.706-5.661 3.869-7.986.19-2.7-.746-6.212-2.02-8.794-1.421 2.123-3.15 5.895-3.34 8.589-.124 1.765.321 4.146.623 6.292a42.611 42.611 0 01-1.804-5.035 53.608 53.608 0 01-.418-1.533 32.941 32.941 0 01-.36-1.548 34.37 34.37 0 01-.495-3.127 38.43 38.43 0 01-.142-1.715c2.249-1.803 5.425-3.803 6.383-5.875 1.12-2.424 1.472-6.022 1.183-8.895-2.076 1.417-5.011 4.247-6.13 6.666-.669 1.448-1.071 3.554-1.498 5.511.005-.68.02-1.358.059-2.03.183-3.233.737-6.433 1.547-9.567 2.472-1.327 6.281-2.605 7.674-4.492 1.509-2.039 2.51-5.34 2.775-8.088-2.22.903-5.52 2.951-7.028 4.99-1.133 1.53-2.067 4.128-3.031 6.15.14-.49.285-.978.435-1.466a69.91 69.91 0 014.282-10.605 8.846 8.846 0 005.323-3.944c1.34-2.166 1.66-4.816 1.556-7.623-2.228.913-4.634 2.42-5.98 4.58-1.275 2.062-1.673 4.46-1.29 6.725a51.025 51.025 0 00-2.399 4.566 53.259 53.259 0 00-1.442 3.378c.527-2.08 1.288-4.436 1.371-6.23.12-2.593-1.11-6.452-2.23-8.69-1.491 2.257-2.77 5.446-2.885 8.044-.11 2.405 1.992 6.052 3.031 8.792-.076.225-.163.447-.24.672-1.056 3.124-1.862 6.355-2.327 9.66-.024-2.488.425-5.76.059-7.978-.447-2.688-2.527-6.34-4.15-8.37-1.021 2.68-1.621 6.252-1.18 8.938.422 2.564 3.51 5.92 5.133 8.513a40.3 40.3 0 00-.206 7.77c-.428-1.68-.875-3.365-1.493-4.593-1.259-2.498-4.416-5.413-6.621-6.871-.184 2.974.327 6.7 1.585 9.204 1.107 2.197 4.617 4.303 7.023 6.191l.015.09c.102.542.221 1.082.346 1.614.124.541.26 1.069.406 1.6a44.54 44.54 0 001.627 4.879c-.972-1.664-1.97-3.382-3.005-4.496-1.946-2.095-5.873-4.006-8.455-4.775.666 3.009 2.225 6.554 4.176 8.649 1.743 1.874 5.91 2.883 8.82 4.038a43.587 43.587 0 002.097 3.731 42.83 42.83 0 002.27 3.238c-1.476-1.301-3.007-2.668-4.374-3.403-2.48-1.336-6.76-1.833-9.425-1.691 1.558 2.638 4.124 5.489 6.604 6.825 2.169 1.172 6.263.765 9.339.857a51.456 51.456 0 003.909 3.946 8.186 8.186 0 00-.84-.316c-2.399-.755-6.259-.448-8.583.149 1.8 2.073 4.516 4.152 6.915 4.907 1.873.588 4.887-.202 7.451-.699a99.865 99.865 0 005.479 3.76c1.78 1.153 3.576 2.255 5.312 3.397.866.574 1.719 1.155 2.514 1.773.199.155.393.31.58.474.178.151.401.344.573.505.373.332.742.686 1.099 1.047 1.419 1.444 2.65 3.073 3.58 4.851.069.133.131.27.2.403l1.04-2.977a23.86 23.86 0 00-3.256-3.998z" fill="#FFC700"/><path d="M88.356 136.914a29.004 29.004 0 00-1.221-1.139c-.222-.198-.402-.344-.63-.538a25.47 25.47 0 00-.657-.523 40.943 40.943 0 00-2.683-1.841c-1.801-1.152-3.608-2.218-5.387-3.322a107.842 107.842 0 01-3.077-1.969c-.095-2.376-.108-5.092-.937-6.607-1.128-2.052-3.43-4.116-5.532-5.344-.013 2.261.53 5.87 1.653 7.921.205.377.47.767.763 1.163a60.906 60.906 0 01-3.025-2.447 49.068 49.068 0 01-2.633-2.457c.72-2.859 2.01-6.431 1.563-8.684-.528-2.662-2.348-5.791-4.245-7.923-.802 2.46-1.463 6.597-.93 9.26.348 1.749 1.41 3.936 2.26 5.933a42.918 42.918 0 01-4.31-5.491 41.206 41.206 0 01-2.588-4.546c1.447-2.556 3.706-5.661 3.869-7.986.19-2.7-.746-6.212-2.02-8.794-1.421 2.123-3.15 5.895-3.34 8.589-.124 1.765.321 4.146.623 6.292a42.611 42.611 0 01-1.804-5.035 53.608 53.608 0 01-.418-1.533 32.941 32.941 0 01-.36-1.548 34.37 34.37 0 01-.495-3.127 38.43 38.43 0 01-.142-1.715c2.249-1.803 5.425-3.803 6.383-5.875 1.12-2.424 1.472-6.022 1.183-8.895-2.076 1.417-5.011 4.247-6.13 6.666-.669 1.448-1.071 3.554-1.498 5.511.005-.68.02-1.358.059-2.03.183-3.233.737-6.433 1.547-9.567 2.472-1.327 6.281-2.605 7.674-4.492 1.509-2.039 2.51-5.34 2.775-8.088-2.22.903-5.52 2.951-7.028 4.99-1.133 1.53-2.067 4.128-3.031 6.15.14-.49.285-.978.435-1.466a69.91 69.91 0 014.282-10.605 8.846 8.846 0 005.323-3.944c1.34-2.166 1.66-4.816 1.556-7.623-2.228.913-4.634 2.42-5.98 4.58-1.275 2.062-1.673 4.46-1.29 6.725a51.025 51.025 0 00-2.399 4.566 53.259 53.259 0 00-1.442 3.378c.527-2.08 1.288-4.436 1.371-6.23.12-2.593-1.11-6.452-2.23-8.69-1.491 2.257-2.77 5.446-2.885 8.044-.11 2.405 1.992 6.052 3.031 8.792-.076.225-.163.447-.24.672-1.056 3.124-1.862 6.355-2.327 9.66-.024-2.488.425-5.76.059-7.978-.447-2.688-2.527-6.34-4.15-8.37-1.021 2.68-1.621 6.252-1.18 8.938.422 2.564 3.51 5.92 5.133 8.513a40.3 40.3 0 00-.206 7.77c-.428-1.68-.875-3.365-1.493-4.593-1.259-2.498-4.416-5.413-6.621-6.871-.184 2.974.327 6.7 1.585 9.204 1.107 2.197 4.617 4.303 7.023 6.191l.015.09c.102.542.221 1.082.346 1.614.124.541.26 1.069.406 1.6a44.54 44.54 0 001.627 4.879c-.972-1.664-1.97-3.382-3.005-4.496-1.946-2.095-5.873-4.006-8.455-4.775.666 3.009 2.225 6.554 4.176 8.649 1.743 1.874 5.91 2.883 8.82 4.038a43.587 43.587 0 002.097 3.731 42.83 42.83 0 002.27 3.238c-1.476-1.301-3.007-2.668-4.374-3.403-2.48-1.336-6.76-1.833-9.425-1.691 1.558 2.638 4.124 5.489 6.604 6.825 2.169 1.172 6.263.765 9.339.857a51.456 51.456 0 003.909 3.946 8.186 8.186 0 00-.84-.316c-2.399-.755-6.259-.448-8.583.149 1.8 2.073 4.516 4.152 6.915 4.907 1.873.588 4.887-.202 7.451-.699a99.865 99.865 0 005.479 3.76c1.78 1.153 3.576 2.255 5.312 3.397.866.574 1.719 1.155 2.514 1.773.199.155.393.31.58.474.178.151.401.344.573.505.373.332.742.686 1.099 1.047 1.419 1.444 2.65 3.073 3.58 4.851.069.133.131.27.2.403l1.04-2.977a23.86 23.86 0 00-3.256-3.998z" fill="#47ABFE"/><path d="M147.664 136.915a28.71 28.71 0 011.222-1.139c.222-.198.402-.344.629-.538.22-.182.437-.352.658-.523a40.89 40.89 0 012.682-1.841c1.802-1.152 3.609-2.219 5.388-3.322a109.345 109.345 0 003.076-1.969c.096-2.376.109-5.093.938-6.608 1.128-2.051 3.429-4.116 5.532-5.343.012 2.261-.53 5.87-1.653 7.921-.205.377-.47.766-.764 1.163a60.77 60.77 0 003.026-2.447 49.358 49.358 0 002.632-2.457c-.719-2.859-2.01-6.431-1.562-8.684.528-2.662 2.348-5.791 4.245-7.924.801 2.46 1.463 6.597.93 9.261-.348 1.748-1.411 3.936-2.261 5.933a42.792 42.792 0 004.31-5.492 41.144 41.144 0 002.589-4.545c-1.448-2.557-3.706-5.662-3.869-7.986-.19-2.7.746-6.212 2.02-8.794 1.421 2.122 3.15 5.894 3.339 8.588.124 1.765-.321 4.146-.623 6.293a42.63 42.63 0 001.805-5.036 51.95 51.95 0 00.418-1.533c.132-.522.255-1.037.359-1.547a34.31 34.31 0 00.495-3.127 38.14 38.14 0 00.143-1.715c-2.249-1.804-5.426-3.804-6.384-5.876-1.119-2.424-1.472-6.021-1.183-8.894 2.076 1.417 5.012 4.247 6.13 6.665.67 1.448 1.072 3.555 1.498 5.511a39.097 39.097 0 00-.058-2.03c-.184-3.233-.737-6.433-1.547-9.567-2.473-1.326-6.281-2.605-7.675-4.492-1.508-2.038-2.508-5.34-2.774-8.088 2.22.903 5.519 2.951 7.028 4.99 1.132 1.53 2.067 4.128 3.031 6.15a72.01 72.01 0 00-.436-1.466 69.987 69.987 0 00-4.281-10.605 8.846 8.846 0 01-5.323-3.944c-1.341-2.166-1.661-4.816-1.556-7.623 2.227.913 4.634 2.42 5.979 4.58 1.276 2.062 1.674 4.46 1.29 6.725a50.91 50.91 0 012.399 4.566 53.09 53.09 0 011.442 3.378c-.526-2.08-1.288-4.436-1.371-6.23-.119-2.593 1.11-6.452 2.231-8.69 1.491 2.257 2.769 5.446 2.884 8.044.111 2.405-1.991 6.052-3.031 8.792.077.225.164.448.241.672 1.055 3.124 1.862 6.356 2.327 9.661.023-2.488-.425-5.76-.059-7.98.446-2.686 2.527-6.339 4.149-8.369 1.022 2.681 1.622 6.252 1.181 8.938-.422 2.564-3.51 5.92-5.134 8.513a40.474 40.474 0 01.207 7.77c.427-1.68.875-3.364 1.493-4.592 1.259-2.499 4.416-5.413 6.621-6.872.183 2.975-.328 6.7-1.585 9.204-1.108 2.197-4.618 4.303-7.023 6.192-.005.027-.011.055-.015.089a36.594 36.594 0 01-.347 1.614c-.123.542-.26 1.07-.406 1.6a44.572 44.572 0 01-1.626 4.879c.971-1.663 1.97-3.381 3.005-4.496 1.945-2.094 5.872-4.006 8.455-4.774-.667 3.008-2.226 6.553-4.176 8.649-1.743 1.873-5.911 2.883-8.82 4.038a43.298 43.298 0 01-2.098 3.731 42.353 42.353 0 01-2.269 3.237c1.476-1.301 3.007-2.667 4.373-3.403 2.48-1.335 6.761-1.833 9.426-1.691-1.558 2.638-4.124 5.489-6.604 6.825-2.169 1.172-6.263.766-9.339.857a51.636 51.636 0 01-3.909 3.947c.287-.122.565-.235.839-.316 2.4-.755 6.259-.448 8.584.148-1.8 2.074-4.516 4.153-6.915 4.908-1.873.588-4.887-.203-7.452-.699a99.81 99.81 0 01-5.478 3.76c-1.781 1.153-3.576 2.254-5.313 3.397-.865.574-1.718 1.155-2.514 1.773-.198.155-.392.31-.579.473-.179.152-.401.345-.573.505a24.56 24.56 0 00-1.099 1.048c-1.419 1.444-2.65 3.073-3.58 4.851-.069.133-.132.27-.201.403l-1.039-2.977a23.839 23.839 0 013.255-3.998z" fill="#FFC700"/><path d="M147.664 136.915a28.71 28.71 0 011.222-1.139c.222-.198.402-.344.629-.538.22-.182.437-.352.658-.523a40.89 40.89 0 012.682-1.841c1.802-1.152 3.609-2.219 5.388-3.322a109.345 109.345 0 003.076-1.969c.096-2.376.109-5.093.938-6.608 1.128-2.051 3.429-4.116 5.532-5.343.012 2.261-.53 5.87-1.653 7.921-.205.377-.47.766-.764 1.163a60.77 60.77 0 003.026-2.447 49.358 49.358 0 002.632-2.457c-.719-2.859-2.01-6.431-1.562-8.684.528-2.662 2.348-5.791 4.245-7.924.801 2.46 1.463 6.597.93 9.261-.348 1.748-1.411 3.936-2.261 5.933a42.792 42.792 0 004.31-5.492 41.144 41.144 0 002.589-4.545c-1.448-2.557-3.706-5.662-3.869-7.986-.19-2.7.746-6.212 2.02-8.794 1.421 2.122 3.15 5.894 3.339 8.588.124 1.765-.321 4.146-.623 6.293a42.63 42.63 0 001.805-5.036 51.95 51.95 0 00.418-1.533c.132-.522.255-1.037.359-1.547a34.31 34.31 0 00.495-3.127 38.14 38.14 0 00.143-1.715c-2.249-1.804-5.426-3.804-6.384-5.876-1.119-2.424-1.472-6.021-1.183-8.894 2.076 1.417 5.012 4.247 6.13 6.665.67 1.448 1.072 3.555 1.498 5.511a39.097 39.097 0 00-.058-2.03c-.184-3.233-.737-6.433-1.547-9.567-2.473-1.326-6.281-2.605-7.675-4.492-1.508-2.038-2.508-5.34-2.774-8.088 2.22.903 5.519 2.951 7.028 4.99 1.132 1.53 2.067 4.128 3.031 6.15a72.01 72.01 0 00-.436-1.466 69.987 69.987 0 00-4.281-10.605 8.846 8.846 0 01-5.323-3.944c-1.341-2.166-1.661-4.816-1.556-7.623 2.227.913 4.634 2.42 5.979 4.58 1.276 2.062 1.674 4.46 1.29 6.725a50.91 50.91 0 012.399 4.566 53.09 53.09 0 011.442 3.378c-.526-2.08-1.288-4.436-1.371-6.23-.119-2.593 1.11-6.452 2.231-8.69 1.491 2.257 2.769 5.446 2.884 8.044.111 2.405-1.991 6.052-3.031 8.792.077.225.164.448.241.672 1.055 3.124 1.862 6.356 2.327 9.661.023-2.488-.425-5.76-.059-7.98.446-2.686 2.527-6.339 4.149-8.369 1.022 2.681 1.622 6.252 1.181 8.938-.422 2.564-3.51 5.92-5.134 8.513a40.474 40.474 0 01.207 7.77c.427-1.68.875-3.364 1.493-4.592 1.259-2.499 4.416-5.413 6.621-6.872.183 2.975-.328 6.7-1.585 9.204-1.108 2.197-4.618 4.303-7.023 6.192-.005.027-.011.055-.015.089a36.594 36.594 0 01-.347 1.614c-.123.542-.26 1.07-.406 1.6a44.572 44.572 0 01-1.626 4.879c.971-1.663 1.97-3.381 3.005-4.496 1.945-2.094 5.872-4.006 8.455-4.774-.667 3.008-2.226 6.553-4.176 8.649-1.743 1.873-5.911 2.883-8.82 4.038a43.298 43.298 0 01-2.098 3.731 42.353 42.353 0 01-2.269 3.237c1.476-1.301 3.007-2.667 4.373-3.403 2.48-1.335 6.761-1.833 9.426-1.691-1.558 2.638-4.124 5.489-6.604 6.825-2.169 1.172-6.263.766-9.339.857a51.636 51.636 0 01-3.909 3.947c.287-.122.565-.235.839-.316 2.4-.755 6.259-.448 8.584.148-1.8 2.074-4.516 4.153-6.915 4.908-1.873.588-4.887-.203-7.452-.699a99.81 99.81 0 01-5.478 3.76c-1.781 1.153-3.576 2.254-5.313 3.397-.865.574-1.718 1.155-2.514 1.773-.198.155-.392.31-.579.473-.179.152-.401.345-.573.505a24.56 24.56 0 00-1.099 1.048c-1.419 1.444-2.65 3.073-3.58 4.851-.069.133-.132.27-.201.403l-1.039-2.977a23.839 23.839 0 013.255-3.998z" fill="#47ABFE"/><path d="M234.627 143.301c-21.208 10.708-43.967 15.044-66.432 13.008v49.856c22.465 2.035 45.231-2.301 66.432-13.009a1346.35 1346.35 0 01-11.477-19.81 1558.32 1558.32 0 0011.477-30.045z" fill="#DC3F16"/><path d="M234.627 143.301c-21.208 10.708-43.967 15.044-66.432 13.008v49.856c22.465 2.035 45.231-2.301 66.432-13.009a1346.35 1346.35 0 01-11.477-19.81 1558.32 1558.32 0 0011.477-30.045z" fill="#078EFF"/><path d="M0 143.301c21.201 10.708 43.967 15.044 66.432 13.008v49.856C43.967 208.2 21.2 203.864 0 193.156c3.779-6.4 7.61-13.001 11.477-19.81A1520.275 1520.275 0 010 143.301z" fill="#DC3F16"/><path d="M0 143.301c21.201 10.708 43.967 15.044 66.432 13.008v49.856C43.967 208.2 21.2 203.864 0 193.156c3.779-6.4 7.61-13.001 11.477-19.81A1520.275 1520.275 0 010 143.301z" fill="#078EFF"/><path d="M184.039 149.677c-9.356 4.724-15.851 6.63-15.851 6.63v49.855s6.541-1.089 16.955-6.773c10.413-5.683 14.74-10.75 14.74-10.75v-49.856c.007 0-6.34 6.1-15.844 10.894z" fill="#931700"/><path d="M184.039 149.677c-9.356 4.724-15.851 6.63-15.851 6.63v49.855s6.541-1.089 16.955-6.773c10.413-5.683 14.74-10.75 14.74-10.75v-49.856c.007 0-6.34 6.1-15.844 10.894z" fill="#2249BE"/><path d="M50.588 149.677c9.356 4.724 15.85 6.63 15.85 6.63v49.855s-6.54-1.089-16.954-6.773c-10.413-5.683-14.74-10.75-14.74-10.75v-49.856c-.007 0 6.334 6.1 15.844 10.894z" fill="#931700"/><path d="M50.588 149.677c9.356 4.724 15.85 6.63 15.85 6.63v49.855s-6.54-1.089-16.954-6.773c-10.413-5.683-14.74-10.75-14.74-10.75v-49.856c-.007 0 6.334 6.1 15.844 10.894z" fill="#2249BE"/><path d="M117.312 125.29c-28.142 0-56.283 4.483-82.785 13.442v49.656c26.502-8.959 54.643-13.442 82.785-13.442 28.141 0 56.282 4.483 82.788 13.442v-49.656c-26.506-8.959-54.643-13.442-82.788-13.442z" fill="#FF5418"/><path d="M117.312 125.29c-28.142 0-56.283 4.483-82.785 13.442v49.656c26.502-8.959 54.643-13.442 82.785-13.442 28.141 0 56.282 4.483 82.788 13.442v-49.656c-26.506-8.959-54.643-13.442-82.788-13.442z" fill="#47ABFE"/><path d="M79.794 153.436l4.177-12.103h7.228v18.445h-5.762V149.55l-3.716 10.228h-3.819l-3.511-9.683v9.683h-5.762v-18.445h7.057l4.108 12.103zm24.173 6.683c-2.83 0-5.12-.841-6.87-2.523-1.75-1.694-2.625-3.893-2.625-6.597v-.478c0-1.886.347-3.551 1.04-4.994.704-1.444 1.727-2.557 3.068-3.342 1.341-.795 2.932-1.193 4.773-1.193 2.591 0 4.637.807 6.137 2.421 1.5 1.602 2.25 3.841 2.25 6.716v2.233h-11.421c.205 1.035.653 1.847 1.347 2.438.693.591 1.591.887 2.693.887 1.818 0 3.239-.637 4.262-1.91l2.625 3.103c-.716.989-1.733 1.778-3.051 2.369-1.307.58-2.717.87-4.228.87zm-.648-14.695c-1.682 0-2.682 1.114-3 3.342h5.796v-.444c.023-.92-.21-1.631-.699-2.131-.489-.511-1.188-.767-2.097-.767zm18.547 10.263c.807 0 1.432-.216 1.875-.648.444-.443.66-1.057.648-1.841h5.387c0 2.023-.727 3.682-2.182 4.977-1.443 1.296-3.307 1.944-5.591 1.944-2.682 0-4.796-.841-6.342-2.523-1.545-1.682-2.318-4.012-2.318-6.989v-.239c0-1.864.341-3.506 1.023-4.927.693-1.432 1.687-2.528 2.983-3.29 1.295-.773 2.83-1.159 4.603-1.159 2.397 0 4.301.665 5.71 1.995 1.409 1.329 2.114 3.131 2.114 5.403h-5.387c0-.954-.233-1.687-.699-2.199-.466-.511-1.091-.767-1.875-.767-1.489 0-2.358.949-2.608 2.847-.08.602-.119 1.432-.119 2.489 0 1.852.221 3.137.664 3.853.444.716 1.148 1.074 2.114 1.074zm26.491-9.956h-5.813v14.047h-5.779v-14.047h-5.727v-4.398h17.319v4.398zm.921 4.654c0-1.841.358-3.478 1.074-4.91.716-1.443 1.744-2.551 3.085-3.324 1.341-.773 2.915-1.159 4.722-1.159 2.762 0 4.938.858 6.529 2.574 1.591 1.705 2.387 4.029 2.387 6.972v.205c0 2.875-.801 5.159-2.404 6.853-1.591 1.682-3.75 2.523-6.478 2.523-2.625 0-4.733-.784-6.324-2.353-1.591-1.579-2.449-3.716-2.574-6.409l-.017-.972zm5.745.358c0 1.705.267 2.955.801 3.75.534.796 1.324 1.194 2.369 1.194 2.046 0 3.092-1.574 3.137-4.722v-.58c0-3.307-1.057-4.961-3.171-4.961-1.92 0-2.96 1.427-3.119 4.279l-.017 1.04z" fill="#912600"/><path d="M79.794 153.436l4.177-12.103h7.228v18.445h-5.762V149.55l-3.716 10.228h-3.819l-3.511-9.683v9.683h-5.762v-18.445h7.057l4.108 12.103zm24.173 6.683c-2.83 0-5.12-.841-6.87-2.523-1.75-1.694-2.625-3.893-2.625-6.597v-.478c0-1.886.347-3.551 1.04-4.994.704-1.444 1.727-2.557 3.068-3.342 1.341-.795 2.932-1.193 4.773-1.193 2.591 0 4.637.807 6.137 2.421 1.5 1.602 2.25 3.841 2.25 6.716v2.233h-11.421c.205 1.035.653 1.847 1.347 2.438.693.591 1.591.887 2.693.887 1.818 0 3.239-.637 4.262-1.91l2.625 3.103c-.716.989-1.733 1.778-3.051 2.369-1.307.58-2.717.87-4.228.87zm-.648-14.695c-1.682 0-2.682 1.114-3 3.342h5.796v-.444c.023-.92-.21-1.631-.699-2.131-.489-.511-1.188-.767-2.097-.767zm18.547 10.263c.807 0 1.432-.216 1.875-.648.444-.443.66-1.057.648-1.841h5.387c0 2.023-.727 3.682-2.182 4.977-1.443 1.296-3.307 1.944-5.591 1.944-2.682 0-4.796-.841-6.342-2.523-1.545-1.682-2.318-4.012-2.318-6.989v-.239c0-1.864.341-3.506 1.023-4.927.693-1.432 1.687-2.528 2.983-3.29 1.295-.773 2.83-1.159 4.603-1.159 2.397 0 4.301.665 5.71 1.995 1.409 1.329 2.114 3.131 2.114 5.403h-5.387c0-.954-.233-1.687-.699-2.199-.466-.511-1.091-.767-1.875-.767-1.489 0-2.358.949-2.608 2.847-.08.602-.119 1.432-.119 2.489 0 1.852.221 3.137.664 3.853.444.716 1.148 1.074 2.114 1.074zm26.491-9.956h-5.813v14.047h-5.779v-14.047h-5.727v-4.398h17.319v4.398zm.921 4.654c0-1.841.358-3.478 1.074-4.91.716-1.443 1.744-2.551 3.085-3.324 1.341-.773 2.915-1.159 4.722-1.159 2.762 0 4.938.858 6.529 2.574 1.591 1.705 2.387 4.029 2.387 6.972v.205c0 2.875-.801 5.159-2.404 6.853-1.591 1.682-3.75 2.523-6.478 2.523-2.625 0-4.733-.784-6.324-2.353-1.591-1.579-2.449-3.716-2.574-6.409l-.017-.972zm5.745.358c0 1.705.267 2.955.801 3.75.534.796 1.324 1.194 2.369 1.194 2.046 0 3.092-1.574 3.137-4.722v-.58c0-3.307-1.057-4.961-3.171-4.961-1.92 0-2.96 1.427-3.119 4.279l-.017 1.04z" fill="#2151E4"/></svg>