<svg width="299" height="264" fill="none" xmlns="http://www.w3.org/2000/svg"><path d="M169.087 134.752h-23.765V59.096l-23.344 6.82v-18l44.929-15.539h2.18v102.375z" fill="#fff"/><path d="M112.605 164.756a35.31 35.31 0 00-1.557-1.372c-.282-.239-.511-.415-.802-.649a36.66 36.66 0 00-.838-.63 52.261 52.261 0 00-3.419-2.217c-2.296-1.388-4.599-2.673-6.867-4.002a140.3 140.3 0 01-3.92-2.373c-.123-2.86-.14-6.133-1.196-7.957-1.439-2.472-4.372-4.958-7.052-6.437-.015 2.723.676 7.07 2.108 9.54.261.454.599.924.974 1.401a77.631 77.631 0 01-3.857-2.947 62.068 62.068 0 01-3.355-2.96c.916-3.444 2.56-7.745 1.99-10.459-.673-3.206-2.993-6.976-5.411-9.544-1.021 2.963-1.864 7.946-1.184 11.153.444 2.107 1.798 4.742 2.881 7.147-2.004-2.057-3.855-4.258-5.493-6.615a48.933 48.933 0 01-3.3-5.475c1.844-3.079 4.722-6.818 4.93-9.618.242-3.252-.951-7.482-2.576-10.592-1.81 2.556-4.014 7.099-4.255 10.344-.157 2.125.41 4.993.795 7.579a49.58 49.58 0 01-2.3-6.065 62.012 62.012 0 01-.533-1.847 37.902 37.902 0 01-.458-1.864 39.309 39.309 0 01-.632-3.766 44.026 44.026 0 01-.182-2.066c2.866-2.172 6.915-4.58 8.135-7.076 1.427-2.919 1.876-7.252 1.507-10.712-2.646 1.706-6.386 5.114-7.812 8.027-.853 1.744-1.365 4.281-1.909 6.638.006-.82.025-1.636.075-2.446.233-3.893.939-7.748 1.97-11.522 3.151-1.597 8.005-3.137 9.78-5.409 1.923-2.456 3.197-6.433 3.536-9.742-2.83 1.088-7.034 3.554-8.956 6.01-1.444 1.843-2.635 4.971-3.863 7.407.178-.59.364-1.178.555-1.766a81.577 81.577 0 015.456-12.773c2.702-.661 5.158-2.271 6.783-4.749 1.708-2.61 2.116-5.8 1.982-9.181-2.838 1.099-5.906 2.913-7.62 5.515a11.133 11.133 0 00-1.643 8.1c-1.122 1.773-2.125 3.616-3.058 5.499a62.401 62.401 0 00-1.837 4.069c.67-2.505 1.641-5.343 1.747-7.505.151-3.122-1.416-7.77-2.844-10.466-1.9 2.719-3.53 6.559-3.675 9.688-.142 2.897 2.538 7.29 3.864 10.59-.098.27-.208.539-.306.81-1.345 3.762-2.373 7.654-2.965 11.635-.03-2.997.54-6.937.074-9.61-.57-3.237-3.222-7.636-5.289-10.082-1.302 3.229-2.066 7.53-1.504 10.765.539 3.089 4.475 7.13 6.544 10.254a45.87 45.87 0 00-.262 9.359c-.546-2.024-1.116-4.053-1.904-5.532-1.604-3.009-5.629-6.52-8.44-8.277-.232 3.583.42 8.07 2.023 11.086 1.41 2.646 5.885 5.183 8.95 7.458a42.834 42.834 0 00.461 2.052c.158.652.332 1.288.519 1.927a51.642 51.642 0 002.073 5.877c-1.239-2.004-2.51-4.074-3.83-5.416-2.48-2.523-7.485-4.826-10.777-5.751.85 3.623 2.837 7.893 5.323 10.417 2.222 2.257 7.534 3.473 11.242 4.865a51.977 51.977 0 002.674 4.494 51.285 51.285 0 002.892 3.899c-1.88-1.567-3.832-3.213-5.574-4.099-3.16-1.609-8.617-2.209-12.013-2.038 1.986 3.178 5.257 6.612 8.417 8.221 2.765 1.412 7.983.923 11.904 1.034a63.697 63.697 0 004.982 4.753 10.621 10.621 0 00-1.07-.38c-3.058-.91-7.977-.541-10.94.178 2.294 2.497 5.756 5.002 8.814 5.912 2.387.708 6.229-.244 9.497-.842a127.87 127.87 0 006.983 4.53c2.27 1.388 4.558 2.716 6.771 4.092 1.103.691 2.19 1.392 3.204 2.135.253.188.5.374.738.571.228.182.512.415.731.608.475.401.946.827 1.401 1.262 1.808 1.74 3.377 3.702 4.563 5.844.088.16.168.325.256.485l1.324-3.586c-1.205-1.771-2.613-3.371-4.15-4.815z" fill="#FFC700"/><path d="M112.605 164.756a35.31 35.31 0 00-1.557-1.372c-.282-.239-.511-.415-.802-.649a36.66 36.66 0 00-.838-.63 52.261 52.261 0 00-3.419-2.217c-2.296-1.388-4.599-2.673-6.867-4.002a140.3 140.3 0 01-3.92-2.373c-.123-2.86-.14-6.133-1.196-7.957-1.439-2.472-4.372-4.958-7.052-6.437-.015 2.723.676 7.07 2.108 9.54.261.454.599.924.974 1.401a77.631 77.631 0 01-3.857-2.947 62.068 62.068 0 01-3.355-2.96c.916-3.444 2.56-7.745 1.99-10.459-.673-3.206-2.993-6.976-5.411-9.544-1.021 2.963-1.864 7.946-1.184 11.153.444 2.107 1.798 4.742 2.881 7.147-2.004-2.057-3.855-4.258-5.493-6.615a48.933 48.933 0 01-3.3-5.475c1.844-3.079 4.722-6.818 4.93-9.618.242-3.252-.951-7.482-2.576-10.592-1.81 2.556-4.014 7.099-4.255 10.344-.157 2.125.41 4.993.795 7.579a49.58 49.58 0 01-2.3-6.065 62.012 62.012 0 01-.533-1.847 37.902 37.902 0 01-.458-1.864 39.309 39.309 0 01-.632-3.766 44.026 44.026 0 01-.182-2.066c2.866-2.172 6.915-4.58 8.135-7.076 1.427-2.919 1.876-7.252 1.507-10.712-2.646 1.706-6.386 5.114-7.812 8.027-.853 1.744-1.365 4.281-1.909 6.638.006-.82.025-1.636.075-2.446.233-3.893.939-7.748 1.97-11.522 3.151-1.597 8.005-3.137 9.78-5.409 1.923-2.456 3.197-6.433 3.536-9.742-2.83 1.088-7.034 3.554-8.956 6.01-1.444 1.843-2.635 4.971-3.863 7.407.178-.59.364-1.178.555-1.766a81.577 81.577 0 015.456-12.773c2.702-.661 5.158-2.271 6.783-4.749 1.708-2.61 2.116-5.8 1.982-9.181-2.838 1.099-5.906 2.913-7.62 5.515a11.133 11.133 0 00-1.643 8.1c-1.122 1.773-2.125 3.616-3.058 5.499a62.401 62.401 0 00-1.837 4.069c.67-2.505 1.641-5.343 1.747-7.505.151-3.122-1.416-7.77-2.844-10.466-1.9 2.719-3.53 6.559-3.675 9.688-.142 2.897 2.538 7.29 3.864 10.59-.098.27-.208.539-.306.81-1.345 3.762-2.373 7.654-2.965 11.635-.03-2.997.54-6.937.074-9.61-.57-3.237-3.222-7.636-5.289-10.082-1.302 3.229-2.066 7.53-1.504 10.765.539 3.089 4.475 7.13 6.544 10.254a45.87 45.87 0 00-.262 9.359c-.546-2.024-1.116-4.053-1.904-5.532-1.604-3.009-5.629-6.52-8.44-8.277-.232 3.583.42 8.07 2.023 11.086 1.41 2.646 5.885 5.183 8.95 7.458a42.834 42.834 0 00.461 2.052c.158.652.332 1.288.519 1.927a51.642 51.642 0 002.073 5.877c-1.239-2.004-2.51-4.074-3.83-5.416-2.48-2.523-7.485-4.826-10.777-5.751.85 3.623 2.837 7.893 5.323 10.417 2.222 2.257 7.534 3.473 11.242 4.865a51.977 51.977 0 002.674 4.494 51.285 51.285 0 002.892 3.899c-1.88-1.567-3.832-3.213-5.574-4.099-3.16-1.609-8.617-2.209-12.013-2.038 1.986 3.178 5.257 6.612 8.417 8.221 2.765 1.412 7.983.923 11.904 1.034a63.697 63.697 0 004.982 4.753 10.621 10.621 0 00-1.07-.38c-3.058-.91-7.977-.541-10.94.178 2.294 2.497 5.756 5.002 8.814 5.912 2.387.708 6.229-.244 9.497-.842a127.87 127.87 0 006.983 4.53c2.27 1.388 4.558 2.716 6.771 4.092 1.103.691 2.19 1.392 3.204 2.135.253.188.5.374.738.571.228.182.512.415.731.608.475.401.946.827 1.401 1.262 1.808 1.74 3.377 3.702 4.563 5.844.088.16.168.325.256.485l1.324-3.586c-1.205-1.771-2.613-3.371-4.15-4.815z" fill="#FF79AE"/><path d="M188.178 174.269c.507-.5 1.018-.979 1.557-1.451.282-.253.511-.439.802-.687.28-.231.556-.448.838-.666 1.126-.852 2.27-1.612 3.418-2.346 2.296-1.468 4.598-2.827 6.866-4.234a136.603 136.603 0 003.92-2.509c.122-3.027.139-6.489 1.195-8.42 1.438-2.615 4.37-5.245 7.05-6.809.016 2.881-.675 7.48-2.107 10.093-.261.481-.598.977-.973 1.482a77.982 77.982 0 003.856-3.117 62.936 62.936 0 003.355-3.132c-.916-3.643-2.562-8.195-1.992-11.066.673-3.393 2.993-7.38 5.41-10.098 1.021 3.135 1.865 8.407 1.185 11.801-.443 2.229-1.797 5.017-2.88 7.561a54.651 54.651 0 005.492-6.998 52.556 52.556 0 003.299-5.793c-1.845-3.257-4.723-7.214-4.931-10.177-.242-3.44.951-7.916 2.575-11.206 1.81 2.704 4.015 7.511 4.256 10.945.157 2.249-.41 5.283-.795 8.019a54.335 54.335 0 002.3-6.417 68.99 68.99 0 00.533-1.954c.168-.666.325-1.322.457-1.972.274-1.317.48-2.647.632-3.985.078-.728.136-1.458.182-2.186-2.867-2.298-6.915-4.846-8.136-7.487-1.426-3.089-1.876-7.674-1.507-11.335 2.646 1.806 6.386 5.412 7.811 8.494.854 1.846 1.366 4.53 1.91 7.024a50.48 50.48 0 00-.075-2.588c-.234-4.119-.939-8.198-1.972-12.192-3.15-1.69-8.004-3.319-9.78-5.723-1.922-2.599-3.196-6.807-3.535-10.308 2.829 1.15 7.033 3.761 8.956 6.36 1.443 1.95 2.634 5.26 3.863 7.838a103 103 0 00-.555-1.87 89.117 89.117 0 00-5.457-13.514c-2.702-.7-5.158-2.404-6.783-5.026-1.708-2.76-2.116-6.138-1.983-9.714 2.839 1.163 5.906 3.083 7.62 5.835 1.625 2.629 2.133 5.684 1.644 8.571 1.122 1.877 2.125 3.826 3.058 5.819a68.107 68.107 0 011.837 4.305c-.671-2.65-1.641-5.653-1.747-7.94-.152-3.304 1.414-8.222 2.842-11.074 1.901 2.877 3.53 6.94 3.676 10.25.142 3.066-2.537 7.713-3.862 11.205.097.287.208.57.306.857 1.345 3.981 2.373 8.099 2.965 12.311.03-3.171-.541-7.34-.074-10.168.568-3.425 3.22-8.08 5.287-10.666 1.302 3.416 2.067 7.967 1.505 11.39-.538 3.267-4.474 7.543-6.542 10.848a51.408 51.408 0 01.263 9.902c.545-2.141 1.115-4.288 1.902-5.852 1.605-3.184 5.629-6.898 8.438-8.757.234 3.791-.417 8.538-2.02 11.729-1.411 2.8-5.884 5.484-8.95 7.89-.006.036-.013.071-.019.113a46.887 46.887 0 01-.442 2.058c-.157.69-.331 1.363-.517 2.039a56.653 56.653 0 01-2.073 6.218c1.239-2.121 2.511-4.31 3.83-5.73 2.479-2.669 7.483-5.105 10.774-6.084-.849 3.834-2.835 8.351-5.321 11.022-2.221 2.387-7.532 3.673-11.24 5.146a55.629 55.629 0 01-2.673 4.754 54.138 54.138 0 01-2.892 4.126c1.881-1.658 3.832-3.399 5.573-4.337 3.161-1.702 8.616-2.336 12.012-2.155-1.986 3.362-5.256 6.995-8.416 8.698-2.764 1.493-7.982.975-11.902 1.092a65.487 65.487 0 01-4.981 5.029c.366-.155.721-.3 1.07-.403 3.058-.962 7.976-.57 10.939.19-2.294 2.642-5.755 5.292-8.813 6.254-2.387.749-6.228-.259-9.496-.891a127.454 127.454 0 01-6.982 4.792c-2.269 1.468-4.557 2.873-6.77 4.329-1.102.731-2.19 1.472-3.203 2.258-.254.199-.5.396-.738.604a21.16 21.16 0 00-.731.644c-.475.424-.945.874-1.401 1.335-1.808 1.84-3.376 3.916-4.562 6.182-.087.169-.168.344-.255.513l-1.325-3.794a30.408 30.408 0 014.149-5.094z" fill="#FFC700"/><path d="M188.178 174.269c.507-.5 1.018-.979 1.557-1.451.282-.253.511-.439.802-.687.28-.231.556-.448.838-.666 1.126-.852 2.27-1.612 3.418-2.346 2.296-1.468 4.598-2.827 6.866-4.234a136.603 136.603 0 003.92-2.509c.122-3.027.139-6.489 1.195-8.42 1.438-2.615 4.37-5.245 7.05-6.809.016 2.881-.675 7.48-2.107 10.093-.261.481-.598.977-.973 1.482a77.982 77.982 0 003.856-3.117 62.936 62.936 0 003.355-3.132c-.916-3.643-2.562-8.195-1.992-11.066.673-3.393 2.993-7.38 5.41-10.098 1.021 3.135 1.865 8.407 1.185 11.801-.443 2.229-1.797 5.017-2.88 7.561a54.651 54.651 0 005.492-6.998 52.556 52.556 0 003.299-5.793c-1.845-3.257-4.723-7.214-4.931-10.177-.242-3.44.951-7.916 2.575-11.206 1.81 2.704 4.015 7.511 4.256 10.945.157 2.249-.41 5.283-.795 8.019a54.335 54.335 0 002.3-6.417 68.99 68.99 0 00.533-1.954c.168-.666.325-1.322.457-1.972.274-1.317.48-2.647.632-3.985.078-.728.136-1.458.182-2.186-2.867-2.298-6.915-4.846-8.136-7.487-1.426-3.089-1.876-7.674-1.507-11.335 2.646 1.806 6.386 5.412 7.811 8.494.854 1.846 1.366 4.53 1.91 7.024a50.48 50.48 0 00-.075-2.588c-.234-4.119-.939-8.198-1.972-12.192-3.15-1.69-8.004-3.319-9.78-5.723-1.922-2.599-3.196-6.807-3.535-10.308 2.829 1.15 7.033 3.761 8.956 6.36 1.443 1.95 2.634 5.26 3.863 7.838a103 103 0 00-.555-1.87 89.117 89.117 0 00-5.457-13.514c-2.702-.7-5.158-2.404-6.783-5.026-1.708-2.76-2.116-6.138-1.983-9.714 2.839 1.163 5.906 3.083 7.62 5.835 1.625 2.629 2.133 5.684 1.644 8.571 1.122 1.877 2.125 3.826 3.058 5.819a68.107 68.107 0 011.837 4.305c-.671-2.65-1.641-5.653-1.747-7.94-.152-3.304 1.414-8.222 2.842-11.074 1.901 2.877 3.53 6.94 3.676 10.25.142 3.066-2.537 7.713-3.862 11.205.097.287.208.57.306.857 1.345 3.981 2.373 8.099 2.965 12.311.03-3.171-.541-7.34-.074-10.168.568-3.425 3.22-8.08 5.287-10.666 1.302 3.416 2.067 7.967 1.505 11.39-.538 3.267-4.474 7.543-6.542 10.848a51.408 51.408 0 01.263 9.902c.545-2.141 1.115-4.288 1.902-5.852 1.605-3.184 5.629-6.898 8.438-8.757.234 3.791-.417 8.538-2.02 11.729-1.411 2.8-5.884 5.484-8.95 7.89-.006.036-.013.071-.019.113a46.887 46.887 0 01-.442 2.058c-.157.69-.331 1.363-.517 2.039a56.653 56.653 0 01-2.073 6.218c1.239-2.121 2.511-4.31 3.83-5.73 2.479-2.669 7.483-5.105 10.774-6.084-.849 3.834-2.835 8.351-5.321 11.022-2.221 2.387-7.532 3.673-11.24 5.146a55.629 55.629 0 01-2.673 4.754 54.138 54.138 0 01-2.892 4.126c1.881-1.658 3.832-3.399 5.573-4.337 3.161-1.702 8.616-2.336 12.012-2.155-1.986 3.362-5.256 6.995-8.416 8.698-2.764 1.493-7.982.975-11.902 1.092a65.487 65.487 0 01-4.981 5.029c.366-.155.721-.3 1.07-.403 3.058-.962 7.976-.57 10.939.19-2.294 2.642-5.755 5.292-8.813 6.254-2.387.749-6.228-.259-9.496-.891a127.454 127.454 0 01-6.982 4.792c-2.269 1.468-4.557 2.873-6.77 4.329-1.102.731-2.19 1.472-3.203 2.258-.254.199-.5.396-.738.604a21.16 21.16 0 00-.731.644c-.475.424-.945.874-1.401 1.335-1.808 1.84-3.376 3.916-4.562 6.182-.087.169-.168.344-.255.513l-1.325-3.794a30.408 30.408 0 014.149-5.094z" fill="#FF79AE"/><path d="M299 182.405c-27.026 13.646-56.03 19.172-84.658 16.578v63.534c28.628 2.594 57.64-2.932 84.658-16.578a1718.088 1718.088 0 01-14.625-25.245A1991.388 1991.388 0 00299 182.405z" fill="#DC3F16"/><path d="M299 182.405c-27.026 13.646-56.03 19.172-84.658 16.578v63.534c28.628 2.594 57.64-2.932 84.658-16.578a1718.088 1718.088 0 01-14.625-25.245A1991.388 1991.388 0 00299 182.405z" fill="#FF73A2"/><path d="M0 182.405c27.018 13.646 56.03 19.172 84.658 16.578v63.534C56.03 265.111 27.018 259.585 0 245.939a1716.52 1716.52 0 0014.625-25.245A1934.626 1934.626 0 010 182.405z" fill="#DC3F16"/><path d="M0 182.405c27.018 13.646 56.03 19.172 84.658 16.578v63.534C56.03 265.111 27.018 259.585 0 245.939a1716.52 1716.52 0 0014.625-25.245A1934.626 1934.626 0 010 182.405z" fill="#FF73A2"/><path d="M234.532 190.536c-11.923 6.019-20.199 8.448-20.199 8.448v63.534s8.335-1.388 21.606-8.631c13.27-7.243 18.784-13.701 18.784-13.701v-63.534c.009 0-8.079 7.773-20.191 13.884z" fill="#931700"/><path d="M234.532 190.536c-11.923 6.019-20.199 8.448-20.199 8.448v63.534s8.335-1.388 21.606-8.631c13.27-7.243 18.784-13.701 18.784-13.701v-63.534c.009 0-8.079 7.773-20.191 13.884z" fill="#D24575"/><path d="M64.468 190.536c11.923 6.019 20.199 8.448 20.199 8.448v63.534s-8.335-1.388-21.606-8.631c-13.27-7.243-18.784-13.701-18.784-13.701v-63.534c-.009 0 8.07 7.773 20.19 13.884z" fill="#931700"/><path d="M64.468 190.536c11.923 6.019 20.199 8.448 20.199 8.448v63.534s-8.335-1.388-21.606-8.631c-13.27-7.243-18.784-13.701-18.784-13.701v-63.534c-.009 0 8.07 7.773 20.19 13.884z" fill="#D24575"/><path d="M149.498 159.452c-35.863 0-71.725 5.713-105.498 17.13v63.279c33.773-11.417 69.635-17.13 105.498-17.13 35.862 0 71.724 5.713 105.502 17.13v-63.279c-33.778-11.417-69.635-17.13-105.502-17.13z" fill="#FF5418"/><path d="M149.498 159.452c-35.863 0-71.725 5.713-105.498 17.13v63.279c33.773-11.417 69.635-17.13 105.498-17.13 35.862 0 71.724 5.713 105.502 17.13v-63.279c-33.778-11.417-69.635-17.13-105.502-17.13z" fill="#FF79AE"/><path d="M101.687 195.548l5.322-15.424h9.211v23.505h-7.343v-13.034l-4.736 13.034h-4.866L94.8 191.29v12.339h-7.343v-23.505h8.994l5.236 15.424zm30.804 8.516c-3.606 0-6.524-1.072-8.754-3.215-2.231-2.158-3.346-4.961-3.346-8.407v-.609c0-2.404.442-4.526 1.325-6.365.898-1.839 2.202-3.258 3.911-4.258 1.708-1.014 3.736-1.52 6.082-1.52 3.302 0 5.909 1.028 7.821 3.084 1.912 2.042 2.867 4.895 2.867 8.56v2.845h-14.555c.261 1.318.833 2.354 1.717 3.107.883.753 2.027 1.13 3.432 1.13 2.317 0 4.128-.811 5.431-2.433l3.345 3.953c-.912 1.26-2.208 2.267-3.888 3.02-1.666.739-3.461 1.108-5.388 1.108zm-.825-18.726c-2.144 0-3.418 1.419-3.824 4.258h7.387v-.565c.029-1.173-.268-2.078-.891-2.716-.623-.651-1.514-.977-2.672-.977zm23.636 13.078c1.028 0 1.824-.276 2.389-.826.565-.565.84-1.347.826-2.346h6.864c0 2.578-.926 4.692-2.78 6.343-1.84 1.651-4.215 2.477-7.126 2.477-3.418 0-6.111-1.072-8.081-3.215-1.97-2.144-2.954-5.113-2.954-8.907v-.304c0-2.375.434-4.468 1.303-6.278.883-1.825 2.151-3.223 3.802-4.193 1.651-.985 3.606-1.477 5.865-1.477 3.056 0 5.482.847 7.278 2.541 1.796 1.695 2.693 3.99 2.693 6.887h-6.864c0-1.217-.297-2.151-.891-2.803-.594-.651-1.39-.977-2.39-.977-1.897 0-3.005 1.209-3.323 3.628-.102.767-.152 1.825-.152 3.171 0 2.361.282 3.998.847 4.91.565.912 1.463 1.369 2.694 1.369zm33.759-12.687h-7.408v17.9h-7.365v-17.9h-7.299v-5.605h22.072v5.605zm1.173 5.93c0-2.346.456-4.431 1.368-6.256.913-1.839 2.223-3.251 3.932-4.236 1.709-.985 3.715-1.477 6.018-1.477 3.519 0 6.293 1.093 8.32 3.28 2.028 2.172 3.042 5.134 3.042 8.885v.261c0 3.664-1.021 6.575-3.063 8.733-2.028 2.143-4.78 3.215-8.256 3.215-3.345 0-6.032-.999-8.059-2.998-2.028-2.013-3.121-4.736-3.281-8.168l-.021-1.239zm7.321.457c0 2.172.34 3.765 1.021 4.779.68 1.014 1.687 1.521 3.019 1.521 2.607 0 3.94-2.006 3.998-6.018v-.739c0-4.214-1.347-6.321-4.041-6.321-2.448 0-3.773 1.817-3.976 5.453l-.021 1.325z" fill="#912600"/><path d="M101.687 195.548l5.322-15.424h9.211v23.505h-7.343v-13.034l-4.736 13.034h-4.866L94.8 191.29v12.339h-7.343v-23.505h8.994l5.236 15.424zm30.804 8.516c-3.606 0-6.524-1.072-8.754-3.215-2.231-2.158-3.346-4.961-3.346-8.407v-.609c0-2.404.442-4.526 1.325-6.365.898-1.839 2.202-3.258 3.911-4.258 1.708-1.014 3.736-1.52 6.082-1.52 3.302 0 5.909 1.028 7.821 3.084 1.912 2.042 2.867 4.895 2.867 8.56v2.845h-14.555c.261 1.318.833 2.354 1.717 3.107.883.753 2.027 1.13 3.432 1.13 2.317 0 4.128-.811 5.431-2.433l3.345 3.953c-.912 1.26-2.208 2.267-3.888 3.02-1.666.739-3.461 1.108-5.388 1.108zm-.825-18.726c-2.144 0-3.418 1.419-3.824 4.258h7.387v-.565c.029-1.173-.268-2.078-.891-2.716-.623-.651-1.514-.977-2.672-.977zm23.636 13.078c1.028 0 1.824-.276 2.389-.826.565-.565.84-1.347.826-2.346h6.864c0 2.578-.926 4.692-2.78 6.343-1.84 1.651-4.215 2.477-7.126 2.477-3.418 0-6.111-1.072-8.081-3.215-1.97-2.144-2.954-5.113-2.954-8.907v-.304c0-2.375.434-4.468 1.303-6.278.883-1.825 2.151-3.223 3.802-4.193 1.651-.985 3.606-1.477 5.865-1.477 3.056 0 5.482.847 7.278 2.541 1.796 1.695 2.693 3.99 2.693 6.887h-6.864c0-1.217-.297-2.151-.891-2.803-.594-.651-1.39-.977-2.39-.977-1.897 0-3.005 1.209-3.323 3.628-.102.767-.152 1.825-.152 3.171 0 2.361.282 3.998.847 4.91.565.912 1.463 1.369 2.694 1.369zm33.759-12.687h-7.408v17.9h-7.365v-17.9h-7.299v-5.605h22.072v5.605zm1.173 5.93c0-2.346.456-4.431 1.368-6.256.913-1.839 2.223-3.251 3.932-4.236 1.709-.985 3.715-1.477 6.018-1.477 3.519 0 6.293 1.093 8.32 3.28 2.028 2.172 3.042 5.134 3.042 8.885v.261c0 3.664-1.021 6.575-3.063 8.733-2.028 2.143-4.78 3.215-8.256 3.215-3.345 0-6.032-.999-8.059-2.998-2.028-2.013-3.121-4.736-3.281-8.168l-.021-1.239zm7.321.457c0 2.172.34 3.765 1.021 4.779.68 1.014 1.687 1.521 3.019 1.521 2.607 0 3.94-2.006 3.998-6.018v-.739c0-4.214-1.347-6.321-4.041-6.321-2.448 0-3.773 1.817-3.976 5.453l-.021 1.325z" fill="#fff"/></svg>