<svg width="215" height="189" fill="none" xmlns="http://www.w3.org/2000/svg"><path d="M100.43 50.6h7.763c6.153 0 9.229-3.01 9.229-9.032 0-2.344-.733-4.248-2.197-5.713-1.465-1.498-3.532-2.246-6.202-2.246-2.181 0-4.085.634-5.712 1.904-1.596 1.27-2.393 2.848-2.393 4.736H84.463c0-3.743 1.042-7.08 3.125-10.01 2.083-2.93 4.964-5.208 8.643-6.835 3.71-1.66 7.779-2.49 12.207-2.49 7.91 0 14.127 1.806 18.652 5.42 4.525 3.613 6.787 8.577 6.787 14.892 0 3.06-.944 5.957-2.832 8.691-1.856 2.702-4.574 4.9-8.154 6.592 3.776 1.367 6.738 3.45 8.886 6.25C133.926 65.526 135 68.96 135 73.062c0 6.347-2.441 11.425-7.324 15.234-4.883 3.809-11.296 5.713-19.238 5.713-4.655 0-8.985-.879-12.989-2.637-3.971-1.79-6.982-4.248-9.033-7.373-2.05-3.157-3.076-6.738-3.076-10.742h16.553c0 2.181.878 4.07 2.636 5.664 1.758 1.595 3.923 2.393 6.494 2.393 2.898 0 5.209-.798 6.934-2.393 1.725-1.628 2.588-3.695 2.588-6.201 0-3.58-.895-6.12-2.686-7.617-1.79-1.498-4.264-2.246-7.421-2.246h-8.008V50.6z" fill="#fff"/><path d="M80.742 124.436c-.364-.358-.73-.702-1.117-1.04-.203-.181-.367-.315-.575-.492a23.755 23.755 0 00-.602-.478 37.355 37.355 0 00-2.451-1.681c-1.647-1.052-3.298-2.027-4.925-3.035a99.393 99.393 0 01-2.812-1.798c-.088-2.171-.1-4.653-.858-6.038-1.032-1.874-3.135-3.76-5.057-4.881-.01 2.066.485 5.364 1.513 7.237.187.345.429.701.698 1.063a55.915 55.915 0 01-2.766-2.235 44.71 44.71 0 01-2.406-2.245c.656-2.612 1.835-5.877 1.426-7.935-.484-2.433-2.148-5.292-3.882-7.24-.732 2.248-1.335 6.03-.848 8.462.319 1.598 1.29 3.597 2.068 5.422a39.193 39.193 0 01-3.94-5.018 37.54 37.54 0 01-2.367-4.153c1.322-2.336 3.385-5.174 3.534-7.298.173-2.467-.683-5.676-1.849-8.035-1.298 1.94-2.877 5.387-3.05 7.849-.112 1.612.295 3.788.572 5.75a38.94 38.94 0 01-1.65-4.601 48.704 48.704 0 01-.383-1.401 31.392 31.392 0 01-.782-4.271 35.239 35.239 0 01-.131-1.568c2.055-1.648 4.958-3.476 5.833-5.37 1.022-2.215 1.343-5.503 1.079-8.128-1.897 1.296-4.58 3.882-5.6 6.092-.612 1.324-.98 3.249-1.369 5.037a35.71 35.71 0 01.053-1.856c.167-2.954.673-5.878 1.412-8.742 2.26-1.213 5.74-2.382 7.013-4.106 1.378-1.864 2.291-4.881 2.533-7.392-2.029.826-5.043 2.698-6.421 4.562-1.035 1.398-1.889 3.772-2.77 5.62a63.885 63.885 0 014.309-11.032 8.085 8.085 0 004.863-3.604c1.225-1.98 1.517-4.402 1.42-6.966-2.034.834-4.234 2.211-5.462 4.186-1.166 1.885-1.529 4.075-1.178 6.146a46.66 46.66 0 00-2.191 4.172 48.747 48.747 0 00-1.317 3.087c.48-1.9 1.176-4.053 1.251-5.694.108-2.368-1.016-5.894-2.04-7.939-1.363 2.063-2.53 4.977-2.635 7.35-.1 2.2 1.822 5.53 2.773 8.035-.07.205-.15.408-.22.614-.964 2.855-1.7 5.808-2.125 8.828-.022-2.274.387-5.263.052-7.291-.408-2.456-2.31-5.793-3.793-7.647-.933 2.45-1.481 5.713-1.077 8.167.386 2.343 3.209 5.409 4.693 7.778a36.82 36.82 0 00-.187 7.1c-.391-1.535-.8-3.074-1.365-4.196-1.151-2.282-4.038-4.945-6.053-6.278-.167 2.719.3 6.123 1.451 8.41 1.012 2.008 4.22 3.932 6.42 5.657.004.025.01.05.013.08.094.497.203.99.317 1.476.114.495.238.978.372 1.462.41 1.51.904 3 1.488 4.458-.889-1.52-1.802-3.09-2.748-4.107-1.778-1.914-5.367-3.66-7.728-4.361.61 2.749 2.035 5.988 3.818 7.902 1.594 1.712 5.403 2.633 8.062 3.688a39.922 39.922 0 001.918 3.409 38.998 38.998 0 002.074 2.957c-1.349-1.188-2.748-2.436-3.997-3.108-2.267-1.22-6.18-1.674-8.615-1.543 1.425 2.41 3.77 5.015 6.037 6.235 1.983 1.07 5.724.698 8.536.781a47.047 47.047 0 003.573 3.605 7.169 7.169 0 00-.767-.288c-2.193-.69-5.72-.408-7.845.137 1.645 1.895 4.128 3.794 6.321 4.483 1.712.537 4.466-.186 6.81-.641a90.843 90.843 0 005.007 3.435c1.628 1.053 3.27 2.059 4.856 3.103a37.877 37.877 0 012.298 1.619c.182.142.359.283.53.433.163.138.367.314.524.461.34.304.678.627 1.004.957 1.297 1.32 2.423 2.808 3.273 4.432.063.122.12.247.184.368l.948-2.721a21.792 21.792 0 00-2.975-3.652z" fill="#FFC700"/><path d="M80.742 124.436c-.364-.358-.73-.702-1.117-1.04-.203-.181-.367-.315-.575-.492a23.755 23.755 0 00-.602-.478 37.355 37.355 0 00-2.451-1.681c-1.647-1.052-3.298-2.027-4.925-3.035a99.393 99.393 0 01-2.812-1.798c-.088-2.171-.1-4.653-.858-6.038-1.032-1.874-3.135-3.76-5.057-4.881-.01 2.066.485 5.364 1.513 7.237.187.345.429.701.698 1.063a55.915 55.915 0 01-2.766-2.235 44.71 44.71 0 01-2.406-2.245c.656-2.612 1.835-5.877 1.426-7.935-.484-2.433-2.148-5.292-3.882-7.24-.732 2.248-1.335 6.03-.848 8.462.319 1.598 1.29 3.597 2.068 5.422a39.193 39.193 0 01-3.94-5.018 37.54 37.54 0 01-2.367-4.153c1.322-2.336 3.385-5.174 3.534-7.298.173-2.467-.683-5.676-1.849-8.035-1.298 1.94-2.877 5.387-3.05 7.849-.112 1.612.295 3.788.572 5.75a38.94 38.94 0 01-1.65-4.601 48.704 48.704 0 01-.383-1.401 31.392 31.392 0 01-.782-4.271 35.239 35.239 0 01-.131-1.568c2.055-1.648 4.958-3.476 5.833-5.37 1.022-2.215 1.343-5.503 1.079-8.128-1.897 1.296-4.58 3.882-5.6 6.092-.612 1.324-.98 3.249-1.369 5.037a35.71 35.71 0 01.053-1.856c.167-2.954.673-5.878 1.412-8.742 2.26-1.213 5.74-2.382 7.013-4.106 1.378-1.864 2.291-4.881 2.533-7.392-2.029.826-5.043 2.698-6.421 4.562-1.035 1.398-1.889 3.772-2.77 5.62a63.885 63.885 0 014.309-11.032 8.085 8.085 0 004.863-3.604c1.225-1.98 1.517-4.402 1.42-6.966-2.034.834-4.234 2.211-5.462 4.186-1.166 1.885-1.529 4.075-1.178 6.146a46.66 46.66 0 00-2.191 4.172 48.747 48.747 0 00-1.317 3.087c.48-1.9 1.176-4.053 1.251-5.694.108-2.368-1.016-5.894-2.04-7.939-1.363 2.063-2.53 4.977-2.635 7.35-.1 2.2 1.822 5.53 2.773 8.035-.07.205-.15.408-.22.614-.964 2.855-1.7 5.808-2.125 8.828-.022-2.274.387-5.263.052-7.291-.408-2.456-2.31-5.793-3.793-7.647-.933 2.45-1.481 5.713-1.077 8.167.386 2.343 3.209 5.409 4.693 7.778a36.82 36.82 0 00-.187 7.1c-.391-1.535-.8-3.074-1.365-4.196-1.151-2.282-4.038-4.945-6.053-6.278-.167 2.719.3 6.123 1.451 8.41 1.012 2.008 4.22 3.932 6.42 5.657.004.025.01.05.013.08.094.497.203.99.317 1.476.114.495.238.978.372 1.462.41 1.51.904 3 1.488 4.458-.889-1.52-1.802-3.09-2.748-4.107-1.778-1.914-5.367-3.66-7.728-4.361.61 2.749 2.035 5.988 3.818 7.902 1.594 1.712 5.403 2.633 8.062 3.688a39.922 39.922 0 001.918 3.409 38.998 38.998 0 002.074 2.957c-1.349-1.188-2.748-2.436-3.997-3.108-2.267-1.22-6.18-1.674-8.615-1.543 1.425 2.41 3.77 5.015 6.037 6.235 1.983 1.07 5.724.698 8.536.781a47.047 47.047 0 003.573 3.605 7.169 7.169 0 00-.767-.288c-2.193-.69-5.72-.408-7.845.137 1.645 1.895 4.128 3.794 6.321 4.483 1.712.537 4.466-.186 6.81-.641a90.843 90.843 0 005.007 3.435c1.628 1.053 3.27 2.059 4.856 3.103a37.877 37.877 0 012.298 1.619c.182.142.359.283.53.433.163.138.367.314.524.461.34.304.678.627 1.004.957 1.297 1.32 2.423 2.808 3.273 4.432.063.122.12.247.184.368l.948-2.721a21.792 21.792 0 00-2.975-3.652z" fill="#47ABFE"/><path d="M134.902 124.436c.363-.358.73-.702 1.116-1.04.203-.181.367-.315.575-.492.201-.166.399-.321.602-.478a37.48 37.48 0 012.451-1.681c1.647-1.052 3.299-2.027 4.925-3.035a99.398 99.398 0 002.812-1.798c.088-2.171.1-4.653.858-6.038 1.032-1.874 3.135-3.76 5.057-4.881.011 2.066-.485 5.364-1.512 7.237-.188.345-.43.701-.699 1.063a55.09 55.09 0 002.766-2.235 44.84 44.84 0 002.407-2.245c-.657-2.612-1.836-5.877-1.426-7.935.483-2.433 2.147-5.292 3.881-7.24.732 2.249 1.336 6.03.848 8.462-.319 1.598-1.29 3.597-2.067 5.422a39.154 39.154 0 003.939-5.018 37.332 37.332 0 002.367-4.153c-1.322-2.336-3.385-5.174-3.534-7.298-.173-2.467.684-5.676 1.849-8.035 1.298 1.94 2.877 5.387 3.05 7.849.112 1.612-.295 3.788-.571 5.75a38.93 38.93 0 001.65-4.601c.132-.465.264-.935.382-1.401a30.649 30.649 0 00.782-4.271 34.51 34.51 0 00.131-1.568c-2.055-1.648-4.958-3.476-5.832-5.37-1.023-2.215-1.344-5.503-1.08-8.128 1.897 1.296 4.579 3.882 5.601 6.092.611 1.324.978 3.249 1.368 5.037a35.708 35.708 0 00-.053-1.856c-.167-2.954-.673-5.878-1.412-8.742-2.259-1.213-5.74-2.382-7.012-4.106-1.379-1.864-2.292-4.881-2.534-7.392 2.029.826 5.043 2.698 6.421 4.562 1.035 1.398 1.889 3.772 2.769 5.62a70.82 70.82 0 00-.397-1.34 64.032 64.032 0 00-3.911-9.691 8.082 8.082 0 01-4.863-3.605c-1.225-1.98-1.517-4.402-1.421-6.967 2.035.835 4.235 2.212 5.463 4.187 1.166 1.885 1.529 4.075 1.178 6.146a46.821 46.821 0 012.192 4.172c.474 1.01.911 2.043 1.316 3.087-.48-1.9-1.176-4.053-1.251-5.694-.108-2.368 1.016-5.894 2.04-7.939 1.363 2.063 2.53 4.977 2.635 7.35.101 2.2-1.822 5.53-2.772 8.035.07.205.149.408.219.614.964 2.855 1.701 5.808 2.125 8.828.022-2.274-.387-5.263-.052-7.291.408-2.456 2.311-5.793 3.793-7.647.934 2.45 1.481 5.713 1.077 8.168-.386 2.342-3.209 5.408-4.693 7.777a36.82 36.82 0 01.187 7.1c.391-1.535.801-3.074 1.365-4.196 1.151-2.282 4.038-4.945 6.053-6.277.167 2.718-.301 6.122-1.451 8.41-1.012 2.007-4.221 3.93-6.419 5.656-.005.025-.01.05-.014.081-.094.496-.203.99-.317 1.475-.113.495-.238.978-.372 1.462A40.696 40.696 0 01166 96.852c.888-1.52 1.801-3.09 2.747-4.107 1.778-1.914 5.368-3.66 7.728-4.361-.61 2.749-2.035 5.988-3.818 7.902-1.594 1.712-5.403 2.633-8.062 3.688a40.079 40.079 0 01-1.917 3.409 39.261 39.261 0 01-2.075 2.957c1.349-1.188 2.748-2.436 3.997-3.108 2.267-1.22 6.179-1.673 8.615-1.543-1.425 2.41-3.771 5.015-6.037 6.235-1.983 1.07-5.724.698-8.536.781a46.934 46.934 0 01-3.573 3.605c.263-.111.517-.215.768-.288 2.192-.69 5.72-.408 7.844.137-1.645 1.895-4.128 3.794-6.321 4.483-1.712.537-4.466-.186-6.809-.64a91.613 91.613 0 01-5.008 3.434c-1.628 1.053-3.269 2.059-4.856 3.103a37.877 37.877 0 00-2.298 1.619c-.182.142-.359.283-.529.433-.164.138-.368.314-.525.461-.34.304-.678.627-1.004.957-1.297 1.32-2.422 2.808-3.273 4.432-.063.122-.12.247-.183.368l-.949-2.721a21.787 21.787 0 012.976-3.652z" fill="#FFC700"/><path d="M134.902 124.436c.363-.358.73-.702 1.116-1.04.203-.181.367-.315.575-.492.201-.166.399-.321.602-.478a37.48 37.48 0 012.451-1.681c1.647-1.052 3.299-2.027 4.925-3.035a99.398 99.398 0 002.812-1.798c.088-2.171.1-4.653.858-6.038 1.032-1.874 3.135-3.76 5.057-4.881.011 2.066-.485 5.364-1.512 7.237-.188.345-.43.701-.699 1.063a55.09 55.09 0 002.766-2.235 44.84 44.84 0 002.407-2.245c-.657-2.612-1.836-5.877-1.426-7.935.483-2.433 2.147-5.292 3.881-7.24.732 2.249 1.336 6.03.848 8.462-.319 1.598-1.29 3.597-2.067 5.422a39.154 39.154 0 003.939-5.018 37.332 37.332 0 002.367-4.153c-1.322-2.336-3.385-5.174-3.534-7.298-.173-2.467.684-5.676 1.849-8.035 1.298 1.94 2.877 5.387 3.05 7.849.112 1.612-.295 3.788-.571 5.75a38.93 38.93 0 001.65-4.601c.132-.465.264-.935.382-1.401a30.649 30.649 0 00.782-4.271 34.51 34.51 0 00.131-1.568c-2.055-1.648-4.958-3.476-5.832-5.37-1.023-2.215-1.344-5.503-1.08-8.128 1.897 1.296 4.579 3.882 5.601 6.092.611 1.324.978 3.249 1.368 5.037a35.708 35.708 0 00-.053-1.856c-.167-2.954-.673-5.878-1.412-8.742-2.259-1.213-5.74-2.382-7.012-4.106-1.379-1.864-2.292-4.881-2.534-7.392 2.029.826 5.043 2.698 6.421 4.562 1.035 1.398 1.889 3.772 2.769 5.62a70.82 70.82 0 00-.397-1.34 64.032 64.032 0 00-3.911-9.691 8.082 8.082 0 01-4.863-3.605c-1.225-1.98-1.517-4.402-1.421-6.967 2.035.835 4.235 2.212 5.463 4.187 1.166 1.885 1.529 4.075 1.178 6.146a46.821 46.821 0 012.192 4.172c.474 1.01.911 2.043 1.316 3.087-.48-1.9-1.176-4.053-1.251-5.694-.108-2.368 1.016-5.894 2.04-7.939 1.363 2.063 2.53 4.977 2.635 7.35.101 2.2-1.822 5.53-2.772 8.035.07.205.149.408.219.614.964 2.855 1.701 5.808 2.125 8.828.022-2.274-.387-5.263-.052-7.291.408-2.456 2.311-5.793 3.793-7.647.934 2.45 1.481 5.713 1.077 8.168-.386 2.342-3.209 5.408-4.693 7.777a36.82 36.82 0 01.187 7.1c.391-1.535.801-3.074 1.365-4.196 1.151-2.282 4.038-4.945 6.053-6.277.167 2.718-.301 6.122-1.451 8.41-1.012 2.007-4.221 3.93-6.419 5.656-.005.025-.01.05-.014.081-.094.496-.203.99-.317 1.475-.113.495-.238.978-.372 1.462A40.696 40.696 0 01166 96.852c.888-1.52 1.801-3.09 2.747-4.107 1.778-1.914 5.368-3.66 7.728-4.361-.61 2.749-2.035 5.988-3.818 7.902-1.594 1.712-5.403 2.633-8.062 3.688a40.079 40.079 0 01-1.917 3.409 39.261 39.261 0 01-2.075 2.957c1.349-1.188 2.748-2.436 3.997-3.108 2.267-1.22 6.179-1.673 8.615-1.543-1.425 2.41-3.771 5.015-6.037 6.235-1.983 1.07-5.724.698-8.536.781a46.934 46.934 0 01-3.573 3.605c.263-.111.517-.215.768-.288 2.192-.69 5.72-.408 7.844.137-1.645 1.895-4.128 3.794-6.321 4.483-1.712.537-4.466-.186-6.809-.64a91.613 91.613 0 01-5.008 3.434c-1.628 1.053-3.269 2.059-4.856 3.103a37.877 37.877 0 00-2.298 1.619c-.182.142-.359.283-.529.433-.164.138-.368.314-.525.461-.34.304-.678.627-1.004.957-1.297 1.32-2.422 2.808-3.273 4.432-.063.122-.12.247-.183.368l-.949-2.721a21.787 21.787 0 012.976-3.652z" fill="#47ABFE"/><path d="M214.37 130.266c-19.377 9.783-40.171 13.745-60.697 11.885v45.551c20.526 1.86 41.326-2.102 60.697-11.885a1229.38 1229.38 0 01-10.486-18.1 1429.865 1429.865 0 0010.486-27.451z" fill="#DC3F16"/><path d="M214.37 130.266c-19.377 9.783-40.171 13.745-60.697 11.885v45.551c20.526 1.86 41.326-2.102 60.697-11.885a1229.38 1229.38 0 01-10.486-18.1 1429.865 1429.865 0 0010.486-27.451z" fill="#078EFF"/><path d="M0 130.266c19.37 9.783 40.17 13.745 60.696 11.885v45.551C40.171 189.562 19.371 185.6 0 175.817a1233.006 1233.006 0 0010.486-18.1A1388.636 1388.636 0 010 130.266z" fill="#DC3F16"/><path d="M0 130.266c19.37 9.783 40.17 13.745 60.696 11.885v45.551C40.171 189.562 19.371 185.6 0 175.817a1233.006 1233.006 0 0010.486-18.1A1388.636 1388.636 0 010 130.266z" fill="#078EFF"/><path d="M168.149 136.096c-8.549 4.316-14.482 6.058-14.482 6.058v45.55s5.976-.995 15.49-6.188 13.468-9.822 13.468-9.822v-45.551c.006 0-5.793 5.572-14.476 9.953z" fill="#931700"/><path d="M168.149 136.096c-8.549 4.316-14.482 6.058-14.482 6.058v45.55s5.976-.995 15.49-6.188 13.468-9.822 13.468-9.822v-45.551c.006 0-5.793 5.572-14.476 9.953z" fill="#2249BE"/><path d="M46.22 136.096c8.549 4.316 14.482 6.058 14.482 6.058v45.55s-5.976-.995-15.49-6.188-13.468-9.822-13.468-9.822v-45.551c-.006 0 5.787 5.572 14.476 9.953z" fill="#931700"/><path d="M46.22 136.096c8.549 4.316 14.482 6.058 14.482 6.058v45.55s-5.976-.995-15.49-6.188-13.468-9.822-13.468-9.822v-45.551c-.006 0 5.787 5.572 14.476 9.953z" fill="#2249BE"/><path d="M107.183 113.812c-25.712 0-51.423 4.096-75.637 12.282v45.368c24.214-8.185 49.925-12.281 75.637-12.281 25.711 0 51.423 4.096 75.64 12.281v-45.368c-24.217-8.186-49.925-12.282-75.64-12.282z" fill="#FF5418"/><path d="M107.183 113.812c-25.712 0-51.423 4.096-75.637 12.282v45.368c24.214-8.185 49.925-12.281 75.637-12.281 25.711 0 51.423 4.096 75.64 12.281v-45.368c-24.217-8.186-49.925-12.282-75.64-12.282z" fill="#47ABFE"/><path d="M72.904 140.294l3.816-11.058h6.604v16.852h-5.265v-9.345l-3.395 9.345h-3.489l-3.208-8.847v8.847h-5.265v-16.852h6.448l3.754 11.058zm22.086 6.105c-2.586 0-4.678-.768-6.277-2.305-1.6-1.547-2.399-3.556-2.399-6.027v-.436c0-1.724.317-3.245.95-4.564.644-1.319 1.579-2.336 2.804-3.053 1.225-.727 2.679-1.09 4.36-1.09 2.368 0 4.237.737 5.608 2.212 1.37 1.464 2.056 3.509 2.056 6.136v2.041H91.656c.187.945.597 1.687 1.23 2.227.634.54 1.455.81 2.462.81 1.661 0 2.959-.582 3.894-1.745l2.398 2.835c-.654.903-1.583 1.625-2.788 2.165-1.194.53-2.481.794-3.862.794zm-.592-13.425c-1.537 0-2.45 1.017-2.742 3.052h5.296v-.405c.02-.841-.192-1.49-.639-1.947-.446-.467-1.085-.7-1.915-.7zm16.945 9.376c.738 0 1.309-.197 1.714-.592.405-.405.602-.966.592-1.682h4.921c0 1.848-.664 3.364-1.993 4.548-1.319 1.184-3.022 1.775-5.109 1.775-2.45 0-4.382-.768-5.794-2.305-1.412-1.536-2.118-3.665-2.118-6.386v-.218c0-1.702.311-3.203.934-4.501.634-1.308 1.542-2.31 2.726-3.006 1.184-.706 2.585-1.059 4.205-1.059 2.191 0 3.93.608 5.218 1.822 1.288 1.215 1.931 2.861 1.931 4.938h-4.921c0-.873-.213-1.542-.639-2.01-.426-.467-.997-.7-1.713-.7-1.361 0-2.155.867-2.383 2.601-.073.55-.109 1.308-.109 2.274 0 1.692.202 2.865.607 3.52.405.654 1.049.981 1.931.981zm24.204-9.096h-5.311v12.834h-5.28v-12.834h-5.233v-4.018h15.824v4.018zm.841 4.252c0-1.682.327-3.177.981-4.486.655-1.318 1.594-2.331 2.82-3.037 1.225-.706 2.663-1.059 4.314-1.059 2.523 0 4.512.784 5.965 2.352 1.454 1.557 2.181 3.681 2.181 6.37v.187c0 2.627-.732 4.714-2.196 6.261-1.454 1.537-3.427 2.305-5.919 2.305-2.399 0-4.325-.716-5.778-2.149-1.454-1.443-2.238-3.395-2.352-5.856l-.016-.888zm5.249.327c0 1.558.244 2.7.732 3.427.488.726 1.21 1.09 2.165 1.09 1.869 0 2.824-1.438 2.866-4.314v-.53c0-3.022-.966-4.532-2.897-4.532-1.755 0-2.705 1.303-2.85 3.909l-.016.95z" fill="#912600"/><path d="M72.904 140.294l3.816-11.058h6.604v16.852h-5.265v-9.345l-3.395 9.345h-3.489l-3.208-8.847v8.847h-5.265v-16.852h6.448l3.754 11.058zm22.086 6.105c-2.586 0-4.678-.768-6.277-2.305-1.6-1.547-2.399-3.556-2.399-6.027v-.436c0-1.724.317-3.245.95-4.564.644-1.319 1.579-2.336 2.804-3.053 1.225-.727 2.679-1.09 4.36-1.09 2.368 0 4.237.737 5.608 2.212 1.37 1.464 2.056 3.509 2.056 6.136v2.041H91.656c.187.945.597 1.687 1.23 2.227.634.54 1.455.81 2.462.81 1.661 0 2.959-.582 3.894-1.745l2.398 2.835c-.654.903-1.583 1.625-2.788 2.165-1.194.53-2.481.794-3.862.794zm-.592-13.425c-1.537 0-2.45 1.017-2.742 3.052h5.296v-.405c.02-.841-.192-1.49-.639-1.947-.446-.467-1.085-.7-1.915-.7zm16.945 9.376c.738 0 1.309-.197 1.714-.592.405-.405.602-.966.592-1.682h4.921c0 1.848-.664 3.364-1.993 4.548-1.319 1.184-3.022 1.775-5.109 1.775-2.45 0-4.382-.768-5.794-2.305-1.412-1.536-2.118-3.665-2.118-6.386v-.218c0-1.702.311-3.203.934-4.501.634-1.308 1.542-2.31 2.726-3.006 1.184-.706 2.585-1.059 4.205-1.059 2.191 0 3.93.608 5.218 1.822 1.288 1.215 1.931 2.861 1.931 4.938h-4.921c0-.873-.213-1.542-.639-2.01-.426-.467-.997-.7-1.713-.7-1.361 0-2.155.867-2.383 2.601-.073.55-.109 1.308-.109 2.274 0 1.692.202 2.865.607 3.52.405.654 1.049.981 1.931.981zm24.204-9.096h-5.311v12.834h-5.28v-12.834h-5.233v-4.018h15.824v4.018zm.841 4.252c0-1.682.327-3.177.981-4.486.655-1.318 1.594-2.331 2.82-3.037 1.225-.706 2.663-1.059 4.314-1.059 2.523 0 4.512.784 5.965 2.352 1.454 1.557 2.181 3.681 2.181 6.37v.187c0 2.627-.732 4.714-2.196 6.261-1.454 1.537-3.427 2.305-5.919 2.305-2.399 0-4.325-.716-5.778-2.149-1.454-1.443-2.238-3.395-2.352-5.856l-.016-.888zm5.249.327c0 1.558.244 2.7.732 3.427.488.726 1.21 1.09 2.165 1.09 1.869 0 2.824-1.438 2.866-4.314v-.53c0-3.022-.966-4.532-2.897-4.532-1.755 0-2.705 1.303-2.85 3.909l-.016.95z" fill="#2151E4"/></svg>