<svg width="332" height="113" fill="none" xmlns="http://www.w3.org/2000/svg"><path fill-rule="evenodd" clip-rule="evenodd" d="M29.096 32.125c2.018 2.41 3.013 4.612 3.013 4.612s1.026-2.188 3.064-4.584c2.296-2.702 5.877-5.669 10.717-6.063 7.1-.58 11.736 3.446 15.573 9.362 6.408 9.879-.509 19.678-7.633 29.068C45.89 74.985 32.109 86 32.109 86s-13.41-11.382-21.722-21.48C2.075 54.422-3.667 45.323 2.754 35.452c3.913-6.014 8.738-10.118 15.945-9.362 4.727.495 8.18 3.39 10.397 6.035z" fill="#FF720E"/><path d="M102.782 83.8c-.48.373-1.334-.053-2.56-1.28-.32-.267-.48-.587-.48-.96 0-.267.213-1.387.64-3.36.106-.747.213-1.28.32-1.6.266-1.28.586-2.64.96-4.08.426-1.493.693-2.453.8-2.88.426-.213 1.386-2.827 2.88-7.84.8-2.88 1.706-5.84 2.72-8.88.48-1.493.853-2.8 1.12-3.92.266-1.12.453-1.84.56-2.16-.48.267-1.52.88-3.12 1.84a42.147 42.147 0 00-4.4 2.96c-.107.053-1.12.773-3.04 2.16a36.96 36.96 0 00-1.76 1.2c-.694.533-1.28.933-1.76 1.2-.8.64-1.467 1.147-2 1.52-.48.32-.827.48-1.04.48-.107 0-.374-.107-.8-.32-1.014-.907-1.52-1.787-1.52-2.64 0-.32.08-.64.24-.96.213-.053 1.173-.693 2.88-1.92 1.92-1.387 3.013-2.133 3.28-2.24.106 0 .4-.187.88-.56.48-.427.933-.773 1.36-1.04.16-.213 1.413-1.147 3.76-2.8l4.24-3.12c4.48-2.773 6.933-4.107 7.36-4 .266.053.693.32 1.28.8.64.427.986.853 1.04 1.28.106.213.16.4.16.56 0 .373-.214 1.04-.64 2-.48 1.013-1.36 3.36-2.64 7.04-1.227 3.68-2.16 6.587-2.8 8.72-.374 1.387-.934 3.093-1.68 5.12-.16.48-.4 1.173-.72 2.08a37.742 37.742 0 00-.72 2.64c-.48 1.173-1.014 2.8-1.6 4.88-.587 2.08-1.04 3.84-1.36 5.28l-.8 2.4c-.48 1.44-.827 2.24-1.04 2.4zm32.735-2.48c-.586 0-1.573-.373-2.96-1.12-1.386-.747-2.48-1.467-3.28-2.16-1.493-1.44-2.693-3.253-3.6-5.44-.853-2.24-1.28-4.507-1.28-6.8 0-.48.054-1.253.16-2.32.587-3.36 1.84-6.693 3.76-10 1.974-3.36 4.267-6.16 6.88-8.4 1.387-1.227 2.64-2.16 3.76-2.8 1.174-.693 2.534-1.227 4.08-1.6.747-.213 1.92-.32 3.52-.32 1.014 0 2.054.213 3.12.64 1.12.427 2.054.96 2.8 1.6.747.587 1.12 1.147 1.12 1.68 0 .48-.053.773-.16.88-.053.107-.266.08-.64-.08h-.8l.8 2.32c.214.48.4 1.067.56 1.76.16.693.24 1.333.24 1.92 0 .96-.293 2.827-.88 5.6-.586 2.72-1.093 4.56-1.52 5.52-.213.427-.32.987-.32 1.68l-2 4.4c-.213.16-.373.347-.48.56-.106.213-.08.4.08.56 0 .213-.293.827-.88 1.84-.533.96-.88 1.44-1.04 1.44a.618.618 0 00-.24.08c-.106 0-.16.08-.16.24 0 .213-.373.773-1.12 1.68a27.34 27.34 0 01-2.4 2.72c-.8.853-2 1.733-3.6 2.64-1.546.853-2.72 1.28-3.52 1.28zm-.24-5.04c1.28 0 2.294-.373 3.04-1.12 1.014-.693 2.134-1.76 3.36-3.2 1.28-1.493 2.214-2.907 2.8-4.24.534-.747.96-1.52 1.28-2.32.374-.8.96-2.373 1.76-4.72.374-.533.64-1.2.8-2 .214-.853.32-1.627.32-2.32 0-2.347.134-4 .4-4.96 0-1.493-.026-2.427-.08-2.8-.053-.427-.266-.853-.64-1.28-.586-.48-1.226-.72-1.92-.72-.373 0-1.066.213-2.08.64-1.013.373-1.733.693-2.16.96-.32.107-.56.16-.72.16a2.35 2.35 0 01-.88-.16c-.213-.16-.32-.347-.32-.56 0-.373-.16-.56-.48-.56-.426 0-1.013.32-1.76.96-.746.64-1.546 1.467-2.4 2.48a21.518 21.518 0 00-2.4 2.88c-.693 1.013-1.04 1.627-1.04 1.84 0 .16-.106.453-.32.88-.16.427-.293.773-.4 1.04-.373.587-.88 1.627-1.52 3.12-.64 1.44-1.04 2.48-1.2 3.12v4.32c0 1.333.08 2.373.24 3.12.16.747.454 1.52.88 2.32.214.373.56.827 1.04 1.36.48.533.774.88.88 1.04.374.373.667.64.88.8.267.107.587.16.96.16.427 0 .987-.08 1.68-.24zm36.256 5.04c-.587 0-1.574-.373-2.96-1.12-1.387-.747-2.48-1.467-3.28-2.16-1.494-1.44-2.694-3.253-3.6-5.44-.854-2.24-1.28-4.507-1.28-6.8 0-.48.053-1.253.16-2.32.586-3.36 1.84-6.693 3.76-10 1.973-3.36 4.266-6.16 6.88-8.4 1.386-1.227 2.64-2.16 3.76-2.8 1.173-.693 2.533-1.227 4.08-1.6.746-.213 1.92-.32 3.52-.32 1.013 0 2.053.213 3.12.64 1.12.427 2.053.96 2.8 1.6.746.587 1.12 1.147 1.12 1.68 0 .48-.054.773-.16.88-.054.107-.267.08-.64-.08h-.8l.8 2.32c.213.48.4 1.067.56 1.76.16.693.24 1.333.24 1.92 0 .96-.294 2.827-.88 5.6-.587 2.72-1.094 4.56-1.52 5.52-.214.427-.32.987-.32 1.68l-2 4.4c-.214.16-.374.347-.48.56-.107.213-.08.4.08.56 0 .213-.294.827-.88 1.84-.534.96-.88 1.44-1.04 1.44a.608.608 0 00-.24.08c-.107 0-.16.08-.16.24 0 .213-.374.773-1.12 1.68a27.598 27.598 0 01-2.4 2.72c-.8.853-2 1.733-3.6 2.64-1.547.853-2.72 1.28-3.52 1.28zm-.24-5.04c1.28 0 2.293-.373 3.04-1.12 1.013-.693 2.133-1.76 3.36-3.2 1.28-1.493 2.213-2.907 2.8-4.24.533-.747.96-1.52 1.28-2.32.373-.8.96-2.373 1.76-4.72.373-.533.64-1.2.8-2 .213-.853.32-1.627.32-2.32 0-2.347.133-4 .4-4.96 0-1.493-.027-2.427-.08-2.8-.054-.427-.267-.853-.64-1.28-.587-.48-1.227-.72-1.92-.72-.374 0-1.067.213-2.08.64-1.014.373-1.734.693-2.16.96-.32.107-.56.16-.72.16a2.34 2.34 0 01-.88-.16c-.214-.16-.32-.347-.32-.56 0-.373-.16-.56-.48-.56-.427 0-1.014.32-1.76.96-.747.64-1.547 1.467-2.4 2.48a21.368 21.368 0 00-2.4 2.88c-.694 1.013-1.04 1.627-1.04 1.84 0 .16-.107.453-.32.88-.16.427-.294.773-.4 1.04-.374.587-.88 1.627-1.52 3.12-.64 1.44-1.04 2.48-1.2 3.12v4.32c0 1.333.08 2.373.24 3.12.16.747.453 1.52.88 2.32.213.373.56.827 1.04 1.36.48.533.773.88.88 1.04.373.373.666.64.88.8.266.107.586.16.96.16.426 0 .986-.08 1.68-.24zm27.215 4.8a8.271 8.271 0 01-1.04-.88c-.266-.373-.4-.667-.4-.88-.106-.213-.213-.347-.32-.4a.889.889 0 00-.4-.08c-.213.107-.426-.24-.64-1.04-.213-.853-.266-1.467-.16-1.84.214-.48.64-.72 1.28-.72.374 0 .72.107 1.04.32.32.16.507.4.56.72.107.427.48.773 1.12 1.04.694.213 1.547.32 2.56.32 2.134 0 4.48-.72 7.04-2.16 2.614-1.44 4.614-3.067 6-4.88.427-.907.8-2.08 1.12-3.52.374-1.493.56-2.64.56-3.44 0-.48-.08-.72-.24-.72 0-.107-.053-.32-.16-.64a6.117 6.117 0 00-.32-1.12c-.266-.747-.88-1.547-1.84-2.4-.96-.853-1.893-1.467-2.8-1.84-1.493-.213-2.613-.32-3.36-.32-.64 0-1.093.027-1.36.08l-1.2.08a9.83 9.83 0 01-1.36-.08 6.838 6.838 0 00-.72-.08c-.426-.107-1.066-.507-1.92-1.2-.853-.747-1.28-1.307-1.28-1.68.16-.8.96-2.347 2.4-4.64 1.44-2.347 2.747-4.107 3.92-5.28 1.547-1.653 3.254-2.907 5.12-3.76 1.92-.907 3.894-1.36 5.92-1.36 1.974 0 3.307.107 4 .32.747.213 1.44.747 2.08 1.6.374.693.56 1.307.56 1.84 0 .427-.106.773-.32 1.04-.213.267-.506.4-.88.4-.32 0-.64-.08-.96-.24-.586-.373-1.44-.56-2.56-.56-1.226 0-2.773.267-4.64.8-1.12.427-2.32 1.12-3.6 2.08-1.226.907-1.973 1.653-2.24 2.24-.106.107-.24.267-.4.48-.16.16-.32.213-.48.16-.053.053-.16.187-.32.4a.865.865 0 00-.16.48c-.16.16-.293.32-.4.48-.106.16-.213.267-.32.32-.053 0-.133-.08-.24-.24l-.08.8v.4c0 .32.107.56.32.72.267.16.774.267 1.52.32 1.494.213 2.56.427 3.2.64.694.213 1.654.693 2.88 1.44 1.814 1.067 3.227 2.613 4.24 4.64 1.014 1.973 1.52 4.16 1.52 6.56 0 .48-.053 1.253-.16 2.32-.16 1.333-.346 2.293-.56 2.88-.16.587-.586 1.413-1.28 2.48-1.866 2.56-4.293 4.667-7.28 6.32-2.986 1.6-5.786 2.4-8.4 2.4-1.6 0-2.986-.373-4.16-1.12zm45.056.24c-.587 0-1.573-.373-2.96-1.12-1.387-.747-2.48-1.467-3.28-2.16-1.493-1.44-2.693-3.253-3.6-5.44-.853-2.24-1.28-4.507-1.28-6.8 0-.48.053-1.253.16-2.32.587-3.36 1.84-6.693 3.76-10 1.973-3.36 4.267-6.16 6.88-8.4 1.387-1.227 2.64-2.16 3.76-2.8 1.173-.693 2.533-1.227 4.08-1.6.747-.213 1.92-.32 3.52-.32 1.013 0 2.053.213 3.12.64 1.12.427 2.053.96 2.8 1.6.747.587 1.12 1.147 1.12 1.68 0 .48-.053.773-.16.88-.053.107-.267.08-.64-.08h-.8l.8 2.32c.213.48.4 1.067.56 1.76.16.693.24 1.333.24 1.92 0 .96-.293 2.827-.88 5.6-.587 2.72-1.093 4.56-1.52 5.52-.213.427-.32.987-.32 1.68l-2 4.4c-.213.16-.373.347-.48.56-.107.213-.08.4.08.56 0 .213-.293.827-.88 1.84-.533.96-.88 1.44-1.04 1.44a.618.618 0 00-.24.08c-.107 0-.16.08-.16.24 0 .213-.373.773-1.12 1.68a27.34 27.34 0 01-2.4 2.72c-.8.853-2 1.733-3.6 2.64-1.547.853-2.72 1.28-3.52 1.28zm-.24-5.04c1.28 0 2.293-.373 3.04-1.12 1.013-.693 2.133-1.76 3.36-3.2 1.28-1.493 2.213-2.907 2.8-4.24.533-.747.96-1.52 1.28-2.32.373-.8.96-2.373 1.76-4.72.373-.533.64-1.2.8-2 .213-.853.32-1.627.32-2.32 0-2.347.133-4 .4-4.96 0-1.493-.027-2.427-.08-2.8-.053-.427-.267-.853-.64-1.28-.587-.48-1.227-.72-1.92-.72-.373 0-1.067.213-2.08.64-1.013.373-1.733.693-2.16.96-.32.107-.56.16-.72.16a2.35 2.35 0 01-.88-.16c-.213-.16-.32-.347-.32-.56 0-.373-.16-.56-.48-.56-.427 0-1.013.32-1.76.96-.747.64-1.547 1.467-2.4 2.48a21.518 21.518 0 00-2.4 2.88c-.693 1.013-1.04 1.627-1.04 1.84 0 .16-.107.453-.32.88-.16.427-.293.773-.4 1.04-.373.587-.88 1.627-1.52 3.12-.64 1.44-1.04 2.48-1.2 3.12v4.32c0 1.333.08 2.373.24 3.12.16.747.453 1.52.88 2.32.213.373.56.827 1.04 1.36.48.533.773.88.88 1.04.373.373.667.64.88.8.267.107.587.16.96.16.427 0 .987-.08 1.68-.24zm36.256 5.04c-.587 0-1.574-.373-2.96-1.12-1.387-.747-2.48-1.467-3.28-2.16-1.494-1.44-2.694-3.253-3.6-5.44-.854-2.24-1.28-4.507-1.28-6.8 0-.48.053-1.253.16-2.32.586-3.36 1.84-6.693 3.76-10 1.973-3.36 4.266-6.16 6.88-8.4 1.386-1.227 2.64-2.16 3.76-2.8 1.173-.693 2.533-1.227 4.08-1.6.746-.213 1.92-.32 3.52-.32 1.013 0 2.053.213 3.12.64 1.12.427 2.053.96 2.8 1.6.746.587 1.12 1.147 1.12 1.68 0 .48-.054.773-.16.88-.054.107-.267.08-.64-.08h-.8l.8 2.32c.213.48.4 1.067.56 1.76.16.693.24 1.333.24 1.92 0 .96-.294 2.827-.88 5.6-.587 2.72-1.094 4.56-1.52 5.52-.214.427-.32.987-.32 1.68l-2 4.4c-.214.16-.374.347-.48.56-.107.213-.08.4.08.56 0 .213-.294.827-.88 1.84-.534.96-.88 1.44-1.04 1.44a.608.608 0 00-.24.08c-.107 0-.16.08-.16.24 0 .213-.374.773-1.12 1.68a27.598 27.598 0 01-2.4 2.72c-.8.853-2 1.733-3.6 2.64-1.547.853-2.72 1.28-3.52 1.28zm-.24-5.04c1.28 0 2.293-.373 3.04-1.12 1.013-.693 2.133-1.76 3.36-3.2 1.28-1.493 2.213-2.907 2.8-4.24.533-.747.96-1.52 1.28-2.32.373-.8.96-2.373 1.76-4.72.373-.533.64-1.2.8-2 .213-.853.32-1.627.32-2.32 0-2.347.133-4 .4-4.96 0-1.493-.027-2.427-.08-2.8-.054-.427-.267-.853-.64-1.28-.587-.48-1.227-.72-1.92-.72-.374 0-1.067.213-2.08.64-1.014.373-1.734.693-2.16.96-.32.107-.56.16-.72.16a2.34 2.34 0 01-.88-.16c-.214-.16-.32-.347-.32-.56 0-.373-.16-.56-.48-.56-.427 0-1.014.32-1.76.96-.747.64-1.547 1.467-2.4 2.48a21.368 21.368 0 00-2.4 2.88c-.694 1.013-1.04 1.627-1.04 1.84 0 .16-.107.453-.32.88-.16.427-.294.773-.4 1.04-.374.587-.88 1.627-1.52 3.12-.64 1.44-1.04 2.48-1.2 3.12v4.32c0 1.333.08 2.373.24 3.12.16.747.453 1.52.88 2.32.213.373.56.827 1.04 1.36.48.533.773.88.88 1.04.373.373.666.64.88.8.266.107.586.16.96.16.426 0 .986-.08 1.68-.24zm51.055-11.36c.64.64.96 1.253.96 1.84 0 .48-.213.827-.64 1.04-.373.213-.906.267-1.6.16l-5.04.4-5.12.16.08 6.88c0 1.067-.133 2-.4 2.8 0 .747-.08 1.28-.24 1.6-.16.267-.453.507-.88.72-.48.32-.853.48-1.12.48-.32 0-.586-.293-.8-.88-.16-.587-.32-1.627-.48-3.12-.373-1.813-.64-4.587-.8-8.32l-6.88.08c-1.066 0-2-.133-2.8-.4-.746 0-1.28-.08-1.6-.24-.266-.16-.506-.453-.72-.88-.32-.48-.48-.853-.48-1.12 0-.32.294-.56.88-.72.587-.213 1.627-.4 3.12-.56 1.814-.373 4.587-.64 8.32-.8l-.16-7.2c0-1.387.054-2.32.16-2.8.16-.48.507-1.013 1.04-1.6.64-.64 1.254-.96 1.84-.96.48 0 .827.213 1.04.64.214.373.267.907.16 1.6l.4 5.04.16 5.12 7.2-.16c1.387 0 2.32.08 2.8.24.48.107 1.014.427 1.6.96z" fill="#FF720E"/></svg>